%FSLAX45Y45*%
G04 Gerber Fmt 4.5, Leading zero omitted, Abs format (unit mm)*
G04 Created by KiCad (PCBNEW 5.99.0+really5.1.10+dfsg1-1) date 2021-11-08 11:55:26*
%MOMM*%
%LPD*%
G01*
G04 APERTURE LIST*
%TA.AperFunction,Profile*%
%ADD10C,0.150000*%
%TD*%
%ADD11C,0.200000*%
%ADD12C,0.300000*%
G04 APERTURE END LIST*
D10*
X20243800Y-12166600D02*
X10337800Y-12166600D01*
X20243800Y-12039600D02*
X20243800Y-12166600D01*
X20497800Y-11785600D02*
X20243800Y-12039600D01*
X20497800Y-8356600D02*
X20497800Y-11785600D01*
X20243800Y-8102600D02*
X20497800Y-8356600D01*
X20243800Y-7086600D02*
X20243800Y-8102600D01*
X19989800Y-6832600D02*
X20243800Y-7086600D01*
X10337800Y-6832600D02*
X19989800Y-6832600D01*
X10337800Y-12166600D02*
X10337800Y-6832600D01*
D11*
D12*
X10616728Y-12639814D02*
X10616728Y-12339814D01*
X10688157Y-12339814D01*
X10731014Y-12354100D01*
X10759586Y-12382671D01*
X10773871Y-12411243D01*
X10788157Y-12468386D01*
X10788157Y-12511243D01*
X10773871Y-12568386D01*
X10759586Y-12596957D01*
X10731014Y-12625529D01*
X10688157Y-12639814D01*
X10616728Y-12639814D01*
X10916728Y-12639814D02*
X10916728Y-12439814D01*
X10916728Y-12496957D02*
X10931014Y-12468386D01*
X10945300Y-12454100D01*
X10973871Y-12439814D01*
X11002443Y-12439814D01*
X11102443Y-12639814D02*
X11102443Y-12439814D01*
X11102443Y-12339814D02*
X11088157Y-12354100D01*
X11102443Y-12368386D01*
X11116728Y-12354100D01*
X11102443Y-12339814D01*
X11102443Y-12368386D01*
X11288157Y-12639814D02*
X11259586Y-12625529D01*
X11245300Y-12596957D01*
X11245300Y-12339814D01*
X11445300Y-12639814D02*
X11416728Y-12625529D01*
X11402443Y-12596957D01*
X11402443Y-12339814D01*
X11788157Y-12639814D02*
X11788157Y-12339814D01*
X11888157Y-12554100D01*
X11988157Y-12339814D01*
X11988157Y-12639814D01*
X12259586Y-12639814D02*
X12259586Y-12482671D01*
X12245300Y-12454100D01*
X12216728Y-12439814D01*
X12159586Y-12439814D01*
X12131014Y-12454100D01*
X12259586Y-12625529D02*
X12231014Y-12639814D01*
X12159586Y-12639814D01*
X12131014Y-12625529D01*
X12116728Y-12596957D01*
X12116728Y-12568386D01*
X12131014Y-12539814D01*
X12159586Y-12525529D01*
X12231014Y-12525529D01*
X12259586Y-12511243D01*
X12402443Y-12439814D02*
X12402443Y-12739814D01*
X12402443Y-12454100D02*
X12431014Y-12439814D01*
X12488157Y-12439814D01*
X12516728Y-12454100D01*
X12531014Y-12468386D01*
X12545300Y-12496957D01*
X12545300Y-12582671D01*
X12531014Y-12611243D01*
X12516728Y-12625529D01*
X12488157Y-12639814D01*
X12431014Y-12639814D01*
X12402443Y-12625529D01*
X12673871Y-12611243D02*
X12688157Y-12625529D01*
X12673871Y-12639814D01*
X12659586Y-12625529D01*
X12673871Y-12611243D01*
X12673871Y-12639814D01*
X12673871Y-12454100D02*
X12688157Y-12468386D01*
X12673871Y-12482671D01*
X12659586Y-12468386D01*
X12673871Y-12454100D01*
X12673871Y-12482671D01*
M02*
