M48
; DRILL file {KiCad 5.99.0+really5.1.10+dfsg1-1} date Mon Nov  8 11:55:25 2021
; FORMAT={-:-/ absolute / metric / decimal}
; #@! TF.CreationDate,2021-11-08T11:55:25-06:00
; #@! TF.GenerationSoftware,Kicad,Pcbnew,5.99.0+really5.1.10+dfsg1-1
; #@! TF.FileFunction,Plated,1,2,PTH
FMAT,2
METRIC
T1C0.800
T2C0.900
T3C1.000
T4C1.016
T5C1.020
T6C3.048
%
G90
G05
T1
X118.11Y-78.74
X118.11Y-83.82
X120.65Y-91.44
X120.65Y-93.44
X120.65Y-95.44
X120.65Y-107.95
X120.65Y-109.95
X120.65Y-111.95
X122.65Y-91.44
X122.65Y-93.44
X122.65Y-95.44
X122.65Y-107.95
X122.65Y-109.95
X122.65Y-111.95
X123.19Y-81.28
X123.19Y-86.36
X132.08Y-78.74
X132.08Y-83.82
X133.35Y-91.44
X133.35Y-93.44
X133.35Y-95.44
X133.35Y-107.76
X133.35Y-109.76
X133.35Y-111.76
X135.35Y-91.44
X135.35Y-93.44
X135.35Y-95.44
X135.35Y-107.76
X135.35Y-109.76
X135.35Y-111.76
X137.16Y-81.28
X137.16Y-86.36
X144.78Y-78.74
X144.78Y-83.82
X146.05Y-91.44
X146.05Y-93.44
X146.05Y-95.44
X146.05Y-107.95
X146.05Y-109.95
X146.05Y-111.95
X148.05Y-91.44
X148.05Y-93.44
X148.05Y-95.44
X148.05Y-107.95
X148.05Y-109.95
X148.05Y-111.95
X149.86Y-81.28
X149.86Y-86.36
X157.48Y-78.74
X157.48Y-83.82
X158.75Y-91.44
X158.75Y-93.44
X158.75Y-95.44
X158.75Y-107.95
X158.75Y-109.95
X158.75Y-111.95
X160.75Y-91.44
X160.75Y-93.44
X160.75Y-95.44
X160.75Y-107.95
X160.75Y-109.95
X160.75Y-111.95
X162.56Y-81.28
X162.56Y-86.36
X170.18Y-78.74
X170.18Y-83.82
X171.45Y-91.44
X171.45Y-93.44
X171.45Y-95.44
X171.45Y-107.95
X171.45Y-109.95
X171.45Y-111.95
X173.45Y-91.44
X173.45Y-93.44
X173.45Y-95.44
X173.45Y-107.95
X173.45Y-109.95
X173.45Y-111.95
X175.26Y-81.28
X175.26Y-86.36
X182.88Y-78.74
X182.88Y-83.82
X184.15Y-91.44
X184.15Y-93.44
X184.15Y-95.44
X184.15Y-107.95
X184.15Y-109.95
X184.15Y-111.95
X186.15Y-91.44
X186.15Y-93.44
X186.15Y-95.44
X186.15Y-107.95
X186.15Y-109.95
X186.15Y-111.95
X187.96Y-81.28
X187.96Y-86.36
T2
X115.57Y-99.06
X115.57Y-106.68
T3
X115.57Y-91.44
X128.27Y-90.17
X128.27Y-92.71
X128.27Y-95.25
X128.27Y-97.79
X128.27Y-105.41
X128.27Y-107.95
X128.27Y-110.49
X128.27Y-113.03
X140.97Y-90.17
X140.97Y-92.71
X140.97Y-95.25
X140.97Y-97.79
X140.97Y-105.41
X140.97Y-107.95
X140.97Y-110.49
X140.97Y-113.03
X153.67Y-90.17
X153.67Y-92.71
X153.67Y-95.25
X153.67Y-97.79
X153.67Y-105.41
X153.67Y-107.95
X153.67Y-110.49
X153.67Y-113.03
X166.37Y-90.17
X166.37Y-92.71
X166.37Y-95.25
X166.37Y-97.79
X166.37Y-105.41
X166.37Y-107.95
X166.37Y-110.49
X166.37Y-113.03
X179.07Y-90.17
X179.07Y-92.71
X179.07Y-95.25
X179.07Y-97.79
X179.07Y-105.41
X179.07Y-107.95
X179.07Y-110.49
X179.07Y-113.03
X191.77Y-90.17
X191.77Y-92.71
X191.77Y-95.25
X191.77Y-97.79
X191.77Y-105.41
X191.77Y-107.95
X191.77Y-110.49
X191.77Y-113.03
T4
X122.174Y-70.866
X124.714Y-70.866
X127.254Y-70.866
X129.794Y-70.866
X131.318Y-119.126
X132.334Y-70.866
X133.858Y-119.126
X134.874Y-70.866
X136.398Y-119.126
X137.414Y-70.866
X138.938Y-119.126
X139.954Y-70.866
X141.478Y-119.126
X142.494Y-70.866
X144.018Y-119.126
X145.034Y-70.866
X146.558Y-119.126
X149.098Y-70.866
X149.098Y-119.126
X151.638Y-70.866
X154.178Y-70.866
X154.178Y-119.126
X156.718Y-70.866
X156.718Y-119.126
X159.258Y-70.866
X159.258Y-119.126
X161.798Y-70.866
X161.798Y-119.126
X164.338Y-70.866
X164.338Y-119.126
X166.878Y-70.866
X166.878Y-119.126
X169.418Y-119.126
X171.958Y-70.866
X171.958Y-119.126
X174.498Y-70.866
X177.038Y-70.866
X177.038Y-119.126
X179.578Y-70.866
X179.578Y-119.126
X182.118Y-70.866
X182.118Y-119.126
X184.658Y-70.866
X184.658Y-119.126
X187.198Y-70.866
X187.198Y-119.126
X189.738Y-70.866
X189.738Y-119.126
X192.278Y-119.126
X194.818Y-119.126
X197.358Y-70.866
X197.358Y-73.406
X197.358Y-75.946
X197.358Y-78.486
X197.358Y-81.026
X197.358Y-83.566
X197.358Y-86.106
X197.358Y-88.646
X197.358Y-91.186
X197.358Y-93.726
X197.358Y-96.266
X197.358Y-98.806
X197.358Y-101.346
X197.358Y-103.886
X197.358Y-106.426
X197.358Y-108.966
X197.358Y-111.506
X197.358Y-114.046
X199.898Y-70.866
X199.898Y-73.406
X199.898Y-75.946
X199.898Y-78.486
X199.898Y-81.026
X199.898Y-83.566
X199.898Y-86.106
X199.898Y-88.646
X199.898Y-91.186
X199.898Y-93.726
X199.898Y-96.266
X199.898Y-98.806
X199.898Y-101.346
X199.898Y-103.886
X199.898Y-106.426
X199.898Y-108.966
X199.898Y-111.506
X199.898Y-114.046
T5
X109.22Y-92.71
X109.22Y-95.25
X109.22Y-97.79
X109.22Y-100.33
X109.22Y-102.87
X109.22Y-105.41
X111.76Y-92.71
X111.76Y-95.25
X111.76Y-97.79
X111.76Y-100.33
X111.76Y-102.87
X111.76Y-105.41
T6
X117.348Y-119.126
X118.618Y-70.866
X193.548Y-70.866
X199.898Y-119.126
T0
M30
