G04 #@! TF.GenerationSoftware,KiCad,Pcbnew,5.99.0+really5.1.10+dfsg1-1*
G04 #@! TF.CreationDate,2021-11-08T11:55:23-06:00*
G04 #@! TF.ProjectId,dell-fan,64656c6c-2d66-4616-9e2e-6b696361645f,rev?*
G04 #@! TF.SameCoordinates,Original*
G04 #@! TF.FileFunction,Copper,L2,Bot*
G04 #@! TF.FilePolarity,Positive*
%FSLAX46Y46*%
G04 Gerber Fmt 4.6, Leading zero omitted, Abs format (unit mm)*
G04 Created by KiCad (PCBNEW 5.99.0+really5.1.10+dfsg1-1) date 2021-11-08 11:55:23*
%MOMM*%
%LPD*%
G01*
G04 APERTURE LIST*
G04 #@! TA.AperFunction,ComponentPad*
%ADD10C,2.000000*%
G04 #@! TD*
G04 #@! TA.AperFunction,ComponentPad*
%ADD11C,1.600000*%
G04 #@! TD*
G04 #@! TA.AperFunction,ComponentPad*
%ADD12R,1.700000X1.700000*%
G04 #@! TD*
G04 #@! TA.AperFunction,ComponentPad*
%ADD13O,1.700000X1.700000*%
G04 #@! TD*
G04 #@! TA.AperFunction,ComponentPad*
%ADD14O,1.350000X1.350000*%
G04 #@! TD*
G04 #@! TA.AperFunction,ComponentPad*
%ADD15R,1.350000X1.350000*%
G04 #@! TD*
G04 #@! TA.AperFunction,ComponentPad*
%ADD16R,1.800000X1.800000*%
G04 #@! TD*
G04 #@! TA.AperFunction,ComponentPad*
%ADD17O,1.800000X1.800000*%
G04 #@! TD*
G04 #@! TA.AperFunction,ComponentPad*
%ADD18C,1.727200*%
G04 #@! TD*
G04 #@! TA.AperFunction,ComponentPad*
%ADD19O,1.727200X1.727200*%
G04 #@! TD*
G04 #@! TA.AperFunction,ComponentPad*
%ADD20O,1.727200X2.032000*%
G04 #@! TD*
G04 #@! TA.AperFunction,ComponentPad*
%ADD21C,4.064000*%
G04 #@! TD*
G04 #@! TA.AperFunction,Conductor*
%ADD22C,1.780000*%
G04 #@! TD*
G04 #@! TA.AperFunction,Conductor*
%ADD23C,0.250000*%
G04 #@! TD*
G04 APERTURE END LIST*
D10*
X111760000Y-92710000D03*
X111760000Y-95250000D03*
X111760000Y-97790000D03*
X111760000Y-100330000D03*
X111760000Y-102870000D03*
X111760000Y-105410000D03*
X109220000Y-105410000D03*
X109220000Y-102870000D03*
X109220000Y-100330000D03*
X109220000Y-97790000D03*
X109220000Y-95250000D03*
X109220000Y-92710000D03*
D11*
X175260000Y-81280000D03*
X175260000Y-86360000D03*
D12*
X115570000Y-91440000D03*
D13*
X191770000Y-97790000D03*
X191770000Y-95250000D03*
X191770000Y-92710000D03*
D12*
X191770000Y-90170000D03*
D13*
X179070000Y-97790000D03*
X179070000Y-95250000D03*
X179070000Y-92710000D03*
D12*
X179070000Y-90170000D03*
D13*
X166370000Y-97790000D03*
X166370000Y-95250000D03*
X166370000Y-92710000D03*
D12*
X166370000Y-90170000D03*
D13*
X153670000Y-97790000D03*
X153670000Y-95250000D03*
X153670000Y-92710000D03*
D12*
X153670000Y-90170000D03*
D13*
X140970000Y-97790000D03*
X140970000Y-95250000D03*
X140970000Y-92710000D03*
D12*
X140970000Y-90170000D03*
D13*
X128270000Y-97790000D03*
X128270000Y-95250000D03*
X128270000Y-92710000D03*
D12*
X128270000Y-90170000D03*
D14*
X186150000Y-111950000D03*
X184150000Y-111950000D03*
X186150000Y-109950000D03*
X184150000Y-109950000D03*
X186150000Y-107950000D03*
D15*
X184150000Y-107950000D03*
D14*
X173450000Y-111950000D03*
X171450000Y-111950000D03*
X173450000Y-109950000D03*
X171450000Y-109950000D03*
X173450000Y-107950000D03*
D15*
X171450000Y-107950000D03*
D14*
X160750000Y-111950000D03*
X158750000Y-111950000D03*
X160750000Y-109950000D03*
X158750000Y-109950000D03*
X160750000Y-107950000D03*
D15*
X158750000Y-107950000D03*
D14*
X148050000Y-111950000D03*
X146050000Y-111950000D03*
X148050000Y-109950000D03*
X146050000Y-109950000D03*
X148050000Y-107950000D03*
D15*
X146050000Y-107950000D03*
D13*
X191770000Y-113030000D03*
X191770000Y-110490000D03*
X191770000Y-107950000D03*
D12*
X191770000Y-105410000D03*
D13*
X179070000Y-113030000D03*
X179070000Y-110490000D03*
X179070000Y-107950000D03*
D12*
X179070000Y-105410000D03*
D13*
X166370000Y-113030000D03*
X166370000Y-110490000D03*
X166370000Y-107950000D03*
D12*
X166370000Y-105410000D03*
D13*
X153670000Y-113030000D03*
X153670000Y-110490000D03*
X153670000Y-107950000D03*
D12*
X153670000Y-105410000D03*
D13*
X140970000Y-113030000D03*
X140970000Y-110490000D03*
X140970000Y-107950000D03*
D12*
X140970000Y-105410000D03*
D11*
X182880000Y-83820000D03*
X182880000Y-78740000D03*
X187960000Y-81280000D03*
X187960000Y-86360000D03*
X170180000Y-83820000D03*
X170180000Y-78740000D03*
X162560000Y-81280000D03*
X162560000Y-86360000D03*
X157480000Y-83820000D03*
X157480000Y-78740000D03*
X149860000Y-81280000D03*
X149860000Y-86360000D03*
X144780000Y-83820000D03*
X144780000Y-78740000D03*
X137160000Y-81280000D03*
X137160000Y-86360000D03*
X132080000Y-83820000D03*
X132080000Y-78740000D03*
D14*
X135350000Y-111760000D03*
X133350000Y-111760000D03*
X135350000Y-109760000D03*
X133350000Y-109760000D03*
X135350000Y-107760000D03*
D15*
X133350000Y-107760000D03*
D13*
X128270000Y-113030000D03*
X128270000Y-110490000D03*
X128270000Y-107950000D03*
D12*
X128270000Y-105410000D03*
D14*
X186150000Y-95440000D03*
X184150000Y-95440000D03*
X186150000Y-93440000D03*
X184150000Y-93440000D03*
X186150000Y-91440000D03*
D15*
X184150000Y-91440000D03*
D14*
X173450000Y-95440000D03*
X171450000Y-95440000D03*
X173450000Y-93440000D03*
X171450000Y-93440000D03*
X173450000Y-91440000D03*
D15*
X171450000Y-91440000D03*
D14*
X160750000Y-95440000D03*
X158750000Y-95440000D03*
X160750000Y-93440000D03*
X158750000Y-93440000D03*
X160750000Y-91440000D03*
D15*
X158750000Y-91440000D03*
D14*
X148050000Y-95440000D03*
X146050000Y-95440000D03*
X148050000Y-93440000D03*
X146050000Y-93440000D03*
X148050000Y-91440000D03*
D15*
X146050000Y-91440000D03*
D14*
X135350000Y-95440000D03*
X133350000Y-95440000D03*
X135350000Y-93440000D03*
X133350000Y-93440000D03*
X135350000Y-91440000D03*
D15*
X133350000Y-91440000D03*
D16*
X115570000Y-106680000D03*
D17*
X115570000Y-99060000D03*
D11*
X123190000Y-81280000D03*
X123190000Y-86360000D03*
D14*
X122650000Y-111950000D03*
X120650000Y-111950000D03*
X122650000Y-109950000D03*
X120650000Y-109950000D03*
X122650000Y-107950000D03*
D15*
X120650000Y-107950000D03*
D14*
X122650000Y-95440000D03*
X120650000Y-95440000D03*
X122650000Y-93440000D03*
X120650000Y-93440000D03*
X122650000Y-91440000D03*
D15*
X120650000Y-91440000D03*
D11*
X118110000Y-83820000D03*
X118110000Y-78740000D03*
D18*
X197358000Y-114046000D03*
D19*
X199898000Y-114046000D03*
X197358000Y-111506000D03*
X199898000Y-111506000D03*
X197358000Y-108966000D03*
X199898000Y-108966000D03*
X197358000Y-106426000D03*
X199898000Y-106426000D03*
X197358000Y-103886000D03*
X199898000Y-103886000D03*
X197358000Y-101346000D03*
X199898000Y-101346000D03*
X197358000Y-98806000D03*
X199898000Y-98806000D03*
X197358000Y-96266000D03*
X199898000Y-96266000D03*
X197358000Y-93726000D03*
X199898000Y-93726000D03*
X197358000Y-91186000D03*
X199898000Y-91186000D03*
X197358000Y-88646000D03*
X199898000Y-88646000D03*
X197358000Y-86106000D03*
X199898000Y-86106000D03*
X197358000Y-83566000D03*
X199898000Y-83566000D03*
X197358000Y-81026000D03*
X199898000Y-81026000D03*
X197358000Y-78486000D03*
X199898000Y-78486000D03*
X197358000Y-75946000D03*
X199898000Y-75946000D03*
X197358000Y-73406000D03*
X199898000Y-73406000D03*
X197358000Y-70866000D03*
X199898000Y-70866000D03*
D20*
X131318000Y-119126000D03*
X133858000Y-119126000D03*
X136398000Y-119126000D03*
X138938000Y-119126000D03*
X141478000Y-119126000D03*
X144018000Y-119126000D03*
X146558000Y-119126000D03*
X149098000Y-119126000D03*
X154178000Y-119126000D03*
X156718000Y-119126000D03*
X159258000Y-119126000D03*
X161798000Y-119126000D03*
X164338000Y-119126000D03*
X166878000Y-119126000D03*
X169418000Y-119126000D03*
X171958000Y-119126000D03*
X177038000Y-119126000D03*
X179578000Y-119126000D03*
X182118000Y-119126000D03*
X184658000Y-119126000D03*
X187198000Y-119126000D03*
X189738000Y-119126000D03*
X192278000Y-119126000D03*
X194818000Y-119126000D03*
X122174000Y-70866000D03*
X124714000Y-70866000D03*
X127254000Y-70866000D03*
X129794000Y-70866000D03*
X132334000Y-70866000D03*
X134874000Y-70866000D03*
X137414000Y-70866000D03*
X139954000Y-70866000D03*
X142494000Y-70866000D03*
X145034000Y-70866000D03*
X149098000Y-70866000D03*
X151638000Y-70866000D03*
X154178000Y-70866000D03*
X156718000Y-70866000D03*
X159258000Y-70866000D03*
X161798000Y-70866000D03*
X164338000Y-70866000D03*
X166878000Y-70866000D03*
X171958000Y-70866000D03*
X174498000Y-70866000D03*
X177038000Y-70866000D03*
X179578000Y-70866000D03*
X182118000Y-70866000D03*
X184658000Y-70866000D03*
X187198000Y-70866000D03*
X189738000Y-70866000D03*
D21*
X117348000Y-119126000D03*
X199898000Y-119126000D03*
X118618000Y-70866000D03*
X193548000Y-70866000D03*
D22*
X127604594Y-107950000D02*
X128270000Y-107950000D01*
X123604594Y-111950000D02*
X127604594Y-107950000D01*
X122650000Y-111950000D02*
X123604594Y-111950000D01*
X126334594Y-92710000D02*
X128229991Y-92710000D01*
X123604594Y-95440000D02*
X126334594Y-92710000D01*
X122650000Y-95440000D02*
X123604594Y-95440000D01*
X126738800Y-107950000D02*
X128270000Y-107950000D01*
X122650000Y-103861200D02*
X126738800Y-107950000D01*
X122650000Y-95440000D02*
X122650000Y-103861200D01*
D23*
X121649999Y-112950001D02*
X122650000Y-111950000D01*
X115490001Y-112950001D02*
X121649999Y-112950001D01*
X109220000Y-106680000D02*
X115490001Y-112950001D01*
X109220000Y-105410000D02*
X109220000Y-106680000D01*
X140970000Y-74930000D02*
X145034000Y-70866000D01*
X134224998Y-74930000D02*
X140970000Y-74930000D01*
X129895010Y-79259988D02*
X134224998Y-74930000D01*
X129895010Y-96164990D02*
X129895010Y-79259988D01*
X128270000Y-97790000D02*
X129895010Y-96164990D01*
X111760000Y-105410000D02*
X111760000Y-92710000D01*
X114300000Y-97790000D02*
X115570000Y-99060000D01*
X111760000Y-97790000D02*
X114300000Y-97790000D01*
D22*
X140638798Y-107950000D02*
X140970000Y-107950000D01*
X136828798Y-111760000D02*
X140638798Y-107950000D01*
X135350000Y-111760000D02*
X136828798Y-111760000D01*
X139034594Y-92710000D02*
X140970000Y-92710000D01*
X136304594Y-95440000D02*
X139034594Y-92710000D01*
X135350000Y-95440000D02*
X136304594Y-95440000D01*
X139847998Y-107950000D02*
X140970000Y-107950000D01*
X135350000Y-103452002D02*
X139847998Y-107950000D01*
X135350000Y-95440000D02*
X135350000Y-103452002D01*
D23*
X132810000Y-114300000D02*
X135350000Y-111760000D01*
X107894999Y-106046001D02*
X116148998Y-114300000D01*
X116148998Y-114300000D02*
X132810000Y-114300000D01*
X107894999Y-104195001D02*
X107894999Y-106046001D01*
X109220000Y-102870000D02*
X107894999Y-104195001D01*
X142240000Y-96520000D02*
X140970000Y-97790000D01*
X142240000Y-77724000D02*
X142240000Y-96520000D01*
X149098000Y-70866000D02*
X142240000Y-77724000D01*
D22*
X153004594Y-107950000D02*
X153670000Y-107950000D01*
X149004594Y-111950000D02*
X153004594Y-107950000D01*
X148050000Y-111950000D02*
X149004594Y-111950000D01*
X151734594Y-92710000D02*
X153670000Y-92710000D01*
X149004594Y-95440000D02*
X151734594Y-92710000D01*
X148050000Y-95440000D02*
X149004594Y-95440000D01*
X152547998Y-107950000D02*
X153670000Y-107950000D01*
X148050000Y-103452002D02*
X152547998Y-107950000D01*
X148050000Y-95440000D02*
X148050000Y-103452002D01*
D23*
X115962598Y-114750011D02*
X145249989Y-114750011D01*
X147375001Y-112624999D02*
X148050000Y-111950000D01*
X145249989Y-114750011D02*
X147375001Y-112624999D01*
X107444988Y-106232401D02*
X115962598Y-114750011D01*
X109220000Y-100330000D02*
X107444988Y-102105012D01*
X107444988Y-102105012D02*
X107444988Y-106232401D01*
X153670000Y-96989002D02*
X153670000Y-97790000D01*
X154940000Y-95719002D02*
X153670000Y-96989002D01*
X154940000Y-74168000D02*
X154940000Y-95719002D01*
X151638000Y-70866000D02*
X154940000Y-74168000D01*
D22*
X166038798Y-107950000D02*
X166370000Y-107950000D01*
X162038798Y-111950000D02*
X166038798Y-107950000D01*
X160750000Y-111950000D02*
X162038798Y-111950000D01*
X162437919Y-95440000D02*
X160750000Y-95440000D01*
X165167919Y-92710000D02*
X162437919Y-95440000D01*
X166370000Y-92710000D02*
X165167919Y-92710000D01*
X160750000Y-103532081D02*
X160750000Y-95440000D01*
X165167919Y-107950000D02*
X160750000Y-103532081D01*
X166370000Y-107950000D02*
X165167919Y-107950000D01*
D23*
X109220000Y-97790000D02*
X106994977Y-100015023D01*
X115776198Y-115200022D02*
X157499978Y-115200022D01*
X106994977Y-106418801D02*
X115776198Y-115200022D01*
X106994977Y-100015023D02*
X106994977Y-106418801D01*
X160075001Y-112624999D02*
X160750000Y-111950000D01*
X157499978Y-115200022D02*
X160075001Y-112624999D01*
D22*
X178404594Y-107950000D02*
X179070000Y-107950000D01*
X174404594Y-111950000D02*
X178404594Y-107950000D01*
X173450000Y-111950000D02*
X174404594Y-111950000D01*
X175137919Y-95440000D02*
X173450000Y-95440000D01*
X177867919Y-92710000D02*
X175137919Y-95440000D01*
X179070000Y-92710000D02*
X177867919Y-92710000D01*
X177867919Y-107950000D02*
X173450000Y-103532081D01*
X173450000Y-103532081D02*
X173450000Y-95440000D01*
X179070000Y-107950000D02*
X177867919Y-107950000D01*
D23*
X106544966Y-106605201D02*
X115589798Y-115650033D01*
X169749967Y-115650033D02*
X172775001Y-112624999D01*
X172775001Y-112624999D02*
X173450000Y-111950000D01*
X109220000Y-95250000D02*
X106544966Y-97925034D01*
X106544966Y-97925034D02*
X106544966Y-106605201D01*
X115589798Y-115650033D02*
X169749967Y-115650033D01*
D22*
X191438798Y-107950000D02*
X191770000Y-107950000D01*
X187438798Y-111950000D02*
X191438798Y-107950000D01*
X186150000Y-111950000D02*
X187438798Y-111950000D01*
X190647998Y-107950000D02*
X191770000Y-107950000D01*
X186150000Y-103452002D02*
X190647998Y-107950000D01*
X186150000Y-95440000D02*
X186150000Y-103452002D01*
X190500000Y-92710000D02*
X191770000Y-92710000D01*
X187770000Y-95440000D02*
X190500000Y-92710000D01*
X186150000Y-95440000D02*
X187770000Y-95440000D01*
D23*
X109220000Y-92710000D02*
X106094955Y-95835045D01*
X106094955Y-95835045D02*
X106094955Y-106791601D01*
X106094955Y-106791601D02*
X115403398Y-116100044D01*
X115403398Y-116100044D02*
X181999956Y-116100044D01*
X181999956Y-116100044D02*
X185475001Y-112624999D01*
X185475001Y-112624999D02*
X186150000Y-111950000D01*
X129445001Y-94074999D02*
X128270000Y-95250000D01*
X129445001Y-91599999D02*
X129445001Y-94074999D01*
X129285002Y-91440000D02*
X129445001Y-91599999D01*
X122650000Y-91440000D02*
X129285002Y-91440000D01*
X123190000Y-90900000D02*
X122650000Y-91440000D01*
X123190000Y-83820000D02*
X118110000Y-78740000D01*
X123190000Y-86360000D02*
X123190000Y-83820000D01*
X137160000Y-83820000D02*
X132080000Y-78740000D01*
X137160000Y-86360000D02*
X137160000Y-83820000D01*
X137160000Y-89630000D02*
X135350000Y-91440000D01*
X137160000Y-86360000D02*
X137160000Y-89630000D01*
X148050000Y-91440000D02*
X148050000Y-90710000D01*
X144780000Y-78740000D02*
X149860000Y-83820000D01*
X149860000Y-83820000D02*
X149860000Y-86360000D01*
X149860000Y-89630000D02*
X148050000Y-91440000D01*
X149860000Y-86360000D02*
X149860000Y-89630000D01*
X157480000Y-78740000D02*
X162560000Y-83820000D01*
X162560000Y-83820000D02*
X162560000Y-86360000D01*
X162560000Y-89630000D02*
X160750000Y-91440000D01*
X162560000Y-86360000D02*
X162560000Y-89630000D01*
X170180000Y-78740000D02*
X175260000Y-83820000D01*
X175260000Y-83820000D02*
X175260000Y-86360000D01*
X175260000Y-86360000D02*
X175260000Y-90170000D01*
X173990000Y-91440000D02*
X173450000Y-91440000D01*
X175260000Y-90170000D02*
X173990000Y-91440000D01*
X182880000Y-78740000D02*
X187960000Y-83820000D01*
X187960000Y-83820000D02*
X187960000Y-86360000D01*
X187960000Y-89630000D02*
X186150000Y-91440000D01*
X187960000Y-86360000D02*
X187960000Y-89630000D01*
M02*
