%FSLAX45Y45*%
G04 Gerber Fmt 4.5, Leading zero omitted, Abs format (unit mm)*
G04 Created by KiCad (PCBNEW 5.99.0+really5.1.10+dfsg1-1) date 2021-11-08 11:55:26*
%MOMM*%
%LPD*%
G01*
G04 APERTURE LIST*
%TA.AperFunction,Profile*%
%ADD10C,0.150000*%
%TD*%
%ADD11C,0.200000*%
%ADD12C,0.300000*%
G04 APERTURE END LIST*
D10*
X20243800Y-12166600D02*
X10337800Y-12166600D01*
X20243800Y-12039600D02*
X20243800Y-12166600D01*
X20497800Y-11785600D02*
X20243800Y-12039600D01*
X20497800Y-8356600D02*
X20497800Y-11785600D01*
X20243800Y-8102600D02*
X20497800Y-8356600D01*
X20243800Y-7086600D02*
X20243800Y-8102600D01*
X19989800Y-6832600D02*
X20243800Y-7086600D01*
X10337800Y-6832600D02*
X19989800Y-6832600D01*
X10337800Y-12166600D02*
X10337800Y-6832600D01*
D11*
X11771000Y-7834000D02*
X11851000Y-7914000D01*
X11851000Y-7834000D02*
X11771000Y-7914000D01*
X11771000Y-8342000D02*
X11851000Y-8422000D01*
X11851000Y-8342000D02*
X11771000Y-8422000D01*
X12025000Y-9104000D02*
X12105000Y-9184000D01*
X12105000Y-9104000D02*
X12025000Y-9184000D01*
X12025000Y-9304000D02*
X12105000Y-9384000D01*
X12105000Y-9304000D02*
X12025000Y-9384000D01*
X12025000Y-9504000D02*
X12105000Y-9584000D01*
X12105000Y-9504000D02*
X12025000Y-9584000D01*
X12025000Y-10755000D02*
X12105000Y-10835000D01*
X12105000Y-10755000D02*
X12025000Y-10835000D01*
X12025000Y-10955000D02*
X12105000Y-11035000D01*
X12105000Y-10955000D02*
X12025000Y-11035000D01*
X12025000Y-11155000D02*
X12105000Y-11235000D01*
X12105000Y-11155000D02*
X12025000Y-11235000D01*
X12225000Y-9104000D02*
X12305000Y-9184000D01*
X12305000Y-9104000D02*
X12225000Y-9184000D01*
X12225000Y-9304000D02*
X12305000Y-9384000D01*
X12305000Y-9304000D02*
X12225000Y-9384000D01*
X12225000Y-9504000D02*
X12305000Y-9584000D01*
X12305000Y-9504000D02*
X12225000Y-9584000D01*
X12225000Y-10755000D02*
X12305000Y-10835000D01*
X12305000Y-10755000D02*
X12225000Y-10835000D01*
X12225000Y-10955000D02*
X12305000Y-11035000D01*
X12305000Y-10955000D02*
X12225000Y-11035000D01*
X12225000Y-11155000D02*
X12305000Y-11235000D01*
X12305000Y-11155000D02*
X12225000Y-11235000D01*
X12279000Y-8088000D02*
X12359000Y-8168000D01*
X12359000Y-8088000D02*
X12279000Y-8168000D01*
X12279000Y-8596000D02*
X12359000Y-8676000D01*
X12359000Y-8596000D02*
X12279000Y-8676000D01*
X13168000Y-7834000D02*
X13248000Y-7914000D01*
X13248000Y-7834000D02*
X13168000Y-7914000D01*
X13168000Y-8342000D02*
X13248000Y-8422000D01*
X13248000Y-8342000D02*
X13168000Y-8422000D01*
X13295000Y-9104000D02*
X13375000Y-9184000D01*
X13375000Y-9104000D02*
X13295000Y-9184000D01*
X13295000Y-9304000D02*
X13375000Y-9384000D01*
X13375000Y-9304000D02*
X13295000Y-9384000D01*
X13295000Y-9504000D02*
X13375000Y-9584000D01*
X13375000Y-9504000D02*
X13295000Y-9584000D01*
X13295000Y-10736000D02*
X13375000Y-10816000D01*
X13375000Y-10736000D02*
X13295000Y-10816000D01*
X13295000Y-10936000D02*
X13375000Y-11016000D01*
X13375000Y-10936000D02*
X13295000Y-11016000D01*
X13295000Y-11136000D02*
X13375000Y-11216000D01*
X13375000Y-11136000D02*
X13295000Y-11216000D01*
X13495000Y-9104000D02*
X13575000Y-9184000D01*
X13575000Y-9104000D02*
X13495000Y-9184000D01*
X13495000Y-9304000D02*
X13575000Y-9384000D01*
X13575000Y-9304000D02*
X13495000Y-9384000D01*
X13495000Y-9504000D02*
X13575000Y-9584000D01*
X13575000Y-9504000D02*
X13495000Y-9584000D01*
X13495000Y-10736000D02*
X13575000Y-10816000D01*
X13575000Y-10736000D02*
X13495000Y-10816000D01*
X13495000Y-10936000D02*
X13575000Y-11016000D01*
X13575000Y-10936000D02*
X13495000Y-11016000D01*
X13495000Y-11136000D02*
X13575000Y-11216000D01*
X13575000Y-11136000D02*
X13495000Y-11216000D01*
X13676000Y-8088000D02*
X13756000Y-8168000D01*
X13756000Y-8088000D02*
X13676000Y-8168000D01*
X13676000Y-8596000D02*
X13756000Y-8676000D01*
X13756000Y-8596000D02*
X13676000Y-8676000D01*
X14438000Y-7834000D02*
X14518000Y-7914000D01*
X14518000Y-7834000D02*
X14438000Y-7914000D01*
X14438000Y-8342000D02*
X14518000Y-8422000D01*
X14518000Y-8342000D02*
X14438000Y-8422000D01*
X14565000Y-9104000D02*
X14645000Y-9184000D01*
X14645000Y-9104000D02*
X14565000Y-9184000D01*
X14565000Y-9304000D02*
X14645000Y-9384000D01*
X14645000Y-9304000D02*
X14565000Y-9384000D01*
X14565000Y-9504000D02*
X14645000Y-9584000D01*
X14645000Y-9504000D02*
X14565000Y-9584000D01*
X14565000Y-10755000D02*
X14645000Y-10835000D01*
X14645000Y-10755000D02*
X14565000Y-10835000D01*
X14565000Y-10955000D02*
X14645000Y-11035000D01*
X14645000Y-10955000D02*
X14565000Y-11035000D01*
X14565000Y-11155000D02*
X14645000Y-11235000D01*
X14645000Y-11155000D02*
X14565000Y-11235000D01*
X14765000Y-9104000D02*
X14845000Y-9184000D01*
X14845000Y-9104000D02*
X14765000Y-9184000D01*
X14765000Y-9304000D02*
X14845000Y-9384000D01*
X14845000Y-9304000D02*
X14765000Y-9384000D01*
X14765000Y-9504000D02*
X14845000Y-9584000D01*
X14845000Y-9504000D02*
X14765000Y-9584000D01*
X14765000Y-10755000D02*
X14845000Y-10835000D01*
X14845000Y-10755000D02*
X14765000Y-10835000D01*
X14765000Y-10955000D02*
X14845000Y-11035000D01*
X14845000Y-10955000D02*
X14765000Y-11035000D01*
X14765000Y-11155000D02*
X14845000Y-11235000D01*
X14845000Y-11155000D02*
X14765000Y-11235000D01*
X14946000Y-8088000D02*
X15026000Y-8168000D01*
X15026000Y-8088000D02*
X14946000Y-8168000D01*
X14946000Y-8596000D02*
X15026000Y-8676000D01*
X15026000Y-8596000D02*
X14946000Y-8676000D01*
X15708000Y-7834000D02*
X15788000Y-7914000D01*
X15788000Y-7834000D02*
X15708000Y-7914000D01*
X15708000Y-8342000D02*
X15788000Y-8422000D01*
X15788000Y-8342000D02*
X15708000Y-8422000D01*
X15835000Y-9104000D02*
X15915000Y-9184000D01*
X15915000Y-9104000D02*
X15835000Y-9184000D01*
X15835000Y-9304000D02*
X15915000Y-9384000D01*
X15915000Y-9304000D02*
X15835000Y-9384000D01*
X15835000Y-9504000D02*
X15915000Y-9584000D01*
X15915000Y-9504000D02*
X15835000Y-9584000D01*
X15835000Y-10755000D02*
X15915000Y-10835000D01*
X15915000Y-10755000D02*
X15835000Y-10835000D01*
X15835000Y-10955000D02*
X15915000Y-11035000D01*
X15915000Y-10955000D02*
X15835000Y-11035000D01*
X15835000Y-11155000D02*
X15915000Y-11235000D01*
X15915000Y-11155000D02*
X15835000Y-11235000D01*
X16035000Y-9104000D02*
X16115000Y-9184000D01*
X16115000Y-9104000D02*
X16035000Y-9184000D01*
X16035000Y-9304000D02*
X16115000Y-9384000D01*
X16115000Y-9304000D02*
X16035000Y-9384000D01*
X16035000Y-9504000D02*
X16115000Y-9584000D01*
X16115000Y-9504000D02*
X16035000Y-9584000D01*
X16035000Y-10755000D02*
X16115000Y-10835000D01*
X16115000Y-10755000D02*
X16035000Y-10835000D01*
X16035000Y-10955000D02*
X16115000Y-11035000D01*
X16115000Y-10955000D02*
X16035000Y-11035000D01*
X16035000Y-11155000D02*
X16115000Y-11235000D01*
X16115000Y-11155000D02*
X16035000Y-11235000D01*
X16216000Y-8088000D02*
X16296000Y-8168000D01*
X16296000Y-8088000D02*
X16216000Y-8168000D01*
X16216000Y-8596000D02*
X16296000Y-8676000D01*
X16296000Y-8596000D02*
X16216000Y-8676000D01*
X16978000Y-7834000D02*
X17058000Y-7914000D01*
X17058000Y-7834000D02*
X16978000Y-7914000D01*
X16978000Y-8342000D02*
X17058000Y-8422000D01*
X17058000Y-8342000D02*
X16978000Y-8422000D01*
X17105000Y-9104000D02*
X17185000Y-9184000D01*
X17185000Y-9104000D02*
X17105000Y-9184000D01*
X17105000Y-9304000D02*
X17185000Y-9384000D01*
X17185000Y-9304000D02*
X17105000Y-9384000D01*
X17105000Y-9504000D02*
X17185000Y-9584000D01*
X17185000Y-9504000D02*
X17105000Y-9584000D01*
X17105000Y-10755000D02*
X17185000Y-10835000D01*
X17185000Y-10755000D02*
X17105000Y-10835000D01*
X17105000Y-10955000D02*
X17185000Y-11035000D01*
X17185000Y-10955000D02*
X17105000Y-11035000D01*
X17105000Y-11155000D02*
X17185000Y-11235000D01*
X17185000Y-11155000D02*
X17105000Y-11235000D01*
X17305000Y-9104000D02*
X17385000Y-9184000D01*
X17385000Y-9104000D02*
X17305000Y-9184000D01*
X17305000Y-9304000D02*
X17385000Y-9384000D01*
X17385000Y-9304000D02*
X17305000Y-9384000D01*
X17305000Y-9504000D02*
X17385000Y-9584000D01*
X17385000Y-9504000D02*
X17305000Y-9584000D01*
X17305000Y-10755000D02*
X17385000Y-10835000D01*
X17385000Y-10755000D02*
X17305000Y-10835000D01*
X17305000Y-10955000D02*
X17385000Y-11035000D01*
X17385000Y-10955000D02*
X17305000Y-11035000D01*
X17305000Y-11155000D02*
X17385000Y-11235000D01*
X17385000Y-11155000D02*
X17305000Y-11235000D01*
X17486000Y-8088000D02*
X17566000Y-8168000D01*
X17566000Y-8088000D02*
X17486000Y-8168000D01*
X17486000Y-8596000D02*
X17566000Y-8676000D01*
X17566000Y-8596000D02*
X17486000Y-8676000D01*
X18248000Y-7834000D02*
X18328000Y-7914000D01*
X18328000Y-7834000D02*
X18248000Y-7914000D01*
X18248000Y-8342000D02*
X18328000Y-8422000D01*
X18328000Y-8342000D02*
X18248000Y-8422000D01*
X18375000Y-9104000D02*
X18455000Y-9184000D01*
X18455000Y-9104000D02*
X18375000Y-9184000D01*
X18375000Y-9304000D02*
X18455000Y-9384000D01*
X18455000Y-9304000D02*
X18375000Y-9384000D01*
X18375000Y-9504000D02*
X18455000Y-9584000D01*
X18455000Y-9504000D02*
X18375000Y-9584000D01*
X18375000Y-10755000D02*
X18455000Y-10835000D01*
X18455000Y-10755000D02*
X18375000Y-10835000D01*
X18375000Y-10955000D02*
X18455000Y-11035000D01*
X18455000Y-10955000D02*
X18375000Y-11035000D01*
X18375000Y-11155000D02*
X18455000Y-11235000D01*
X18455000Y-11155000D02*
X18375000Y-11235000D01*
X18575000Y-9104000D02*
X18655000Y-9184000D01*
X18655000Y-9104000D02*
X18575000Y-9184000D01*
X18575000Y-9304000D02*
X18655000Y-9384000D01*
X18655000Y-9304000D02*
X18575000Y-9384000D01*
X18575000Y-9504000D02*
X18655000Y-9584000D01*
X18655000Y-9504000D02*
X18575000Y-9584000D01*
X18575000Y-10755000D02*
X18655000Y-10835000D01*
X18655000Y-10755000D02*
X18575000Y-10835000D01*
X18575000Y-10955000D02*
X18655000Y-11035000D01*
X18655000Y-10955000D02*
X18575000Y-11035000D01*
X18575000Y-11155000D02*
X18655000Y-11235000D01*
X18655000Y-11155000D02*
X18575000Y-11235000D01*
X18756000Y-8088000D02*
X18836000Y-8168000D01*
X18836000Y-8088000D02*
X18756000Y-8168000D01*
X18756000Y-8596000D02*
X18836000Y-8676000D01*
X18836000Y-8596000D02*
X18756000Y-8676000D01*
X11602000Y-9906000D02*
G75*
G03*
X11602000Y-9906000I-45000J0D01*
G01*
X11602000Y-10668000D02*
G75*
G03*
X11602000Y-10668000I-45000J0D01*
G01*
X11557000Y-9094000D02*
X11557000Y-9194000D01*
X11507000Y-9144000D02*
X11607000Y-9144000D01*
X12827000Y-8967000D02*
X12827000Y-9067000D01*
X12777000Y-9017000D02*
X12877000Y-9017000D01*
X12827000Y-9221000D02*
X12827000Y-9321000D01*
X12777000Y-9271000D02*
X12877000Y-9271000D01*
X12827000Y-9475000D02*
X12827000Y-9575000D01*
X12777000Y-9525000D02*
X12877000Y-9525000D01*
X12827000Y-9729000D02*
X12827000Y-9829000D01*
X12777000Y-9779000D02*
X12877000Y-9779000D01*
X12827000Y-10491000D02*
X12827000Y-10591000D01*
X12777000Y-10541000D02*
X12877000Y-10541000D01*
X12827000Y-10745000D02*
X12827000Y-10845000D01*
X12777000Y-10795000D02*
X12877000Y-10795000D01*
X12827000Y-10999000D02*
X12827000Y-11099000D01*
X12777000Y-11049000D02*
X12877000Y-11049000D01*
X12827000Y-11253000D02*
X12827000Y-11353000D01*
X12777000Y-11303000D02*
X12877000Y-11303000D01*
X14097000Y-8967000D02*
X14097000Y-9067000D01*
X14047000Y-9017000D02*
X14147000Y-9017000D01*
X14097000Y-9221000D02*
X14097000Y-9321000D01*
X14047000Y-9271000D02*
X14147000Y-9271000D01*
X14097000Y-9475000D02*
X14097000Y-9575000D01*
X14047000Y-9525000D02*
X14147000Y-9525000D01*
X14097000Y-9729000D02*
X14097000Y-9829000D01*
X14047000Y-9779000D02*
X14147000Y-9779000D01*
X14097000Y-10491000D02*
X14097000Y-10591000D01*
X14047000Y-10541000D02*
X14147000Y-10541000D01*
X14097000Y-10745000D02*
X14097000Y-10845000D01*
X14047000Y-10795000D02*
X14147000Y-10795000D01*
X14097000Y-10999000D02*
X14097000Y-11099000D01*
X14047000Y-11049000D02*
X14147000Y-11049000D01*
X14097000Y-11253000D02*
X14097000Y-11353000D01*
X14047000Y-11303000D02*
X14147000Y-11303000D01*
X15367000Y-8967000D02*
X15367000Y-9067000D01*
X15317000Y-9017000D02*
X15417000Y-9017000D01*
X15367000Y-9221000D02*
X15367000Y-9321000D01*
X15317000Y-9271000D02*
X15417000Y-9271000D01*
X15367000Y-9475000D02*
X15367000Y-9575000D01*
X15317000Y-9525000D02*
X15417000Y-9525000D01*
X15367000Y-9729000D02*
X15367000Y-9829000D01*
X15317000Y-9779000D02*
X15417000Y-9779000D01*
X15367000Y-10491000D02*
X15367000Y-10591000D01*
X15317000Y-10541000D02*
X15417000Y-10541000D01*
X15367000Y-10745000D02*
X15367000Y-10845000D01*
X15317000Y-10795000D02*
X15417000Y-10795000D01*
X15367000Y-10999000D02*
X15367000Y-11099000D01*
X15317000Y-11049000D02*
X15417000Y-11049000D01*
X15367000Y-11253000D02*
X15367000Y-11353000D01*
X15317000Y-11303000D02*
X15417000Y-11303000D01*
X16637000Y-8967000D02*
X16637000Y-9067000D01*
X16587000Y-9017000D02*
X16687000Y-9017000D01*
X16637000Y-9221000D02*
X16637000Y-9321000D01*
X16587000Y-9271000D02*
X16687000Y-9271000D01*
X16637000Y-9475000D02*
X16637000Y-9575000D01*
X16587000Y-9525000D02*
X16687000Y-9525000D01*
X16637000Y-9729000D02*
X16637000Y-9829000D01*
X16587000Y-9779000D02*
X16687000Y-9779000D01*
X16637000Y-10491000D02*
X16637000Y-10591000D01*
X16587000Y-10541000D02*
X16687000Y-10541000D01*
X16637000Y-10745000D02*
X16637000Y-10845000D01*
X16587000Y-10795000D02*
X16687000Y-10795000D01*
X16637000Y-10999000D02*
X16637000Y-11099000D01*
X16587000Y-11049000D02*
X16687000Y-11049000D01*
X16637000Y-11253000D02*
X16637000Y-11353000D01*
X16587000Y-11303000D02*
X16687000Y-11303000D01*
X17907000Y-8967000D02*
X17907000Y-9067000D01*
X17857000Y-9017000D02*
X17957000Y-9017000D01*
X17907000Y-9221000D02*
X17907000Y-9321000D01*
X17857000Y-9271000D02*
X17957000Y-9271000D01*
X17907000Y-9475000D02*
X17907000Y-9575000D01*
X17857000Y-9525000D02*
X17957000Y-9525000D01*
X17907000Y-9729000D02*
X17907000Y-9829000D01*
X17857000Y-9779000D02*
X17957000Y-9779000D01*
X17907000Y-10491000D02*
X17907000Y-10591000D01*
X17857000Y-10541000D02*
X17957000Y-10541000D01*
X17907000Y-10745000D02*
X17907000Y-10845000D01*
X17857000Y-10795000D02*
X17957000Y-10795000D01*
X17907000Y-10999000D02*
X17907000Y-11099000D01*
X17857000Y-11049000D02*
X17957000Y-11049000D01*
X17907000Y-11253000D02*
X17907000Y-11353000D01*
X17857000Y-11303000D02*
X17957000Y-11303000D01*
X19177000Y-8967000D02*
X19177000Y-9067000D01*
X19127000Y-9017000D02*
X19227000Y-9017000D01*
X19177000Y-9221000D02*
X19177000Y-9321000D01*
X19127000Y-9271000D02*
X19227000Y-9271000D01*
X19177000Y-9475000D02*
X19177000Y-9575000D01*
X19127000Y-9525000D02*
X19227000Y-9525000D01*
X19177000Y-9729000D02*
X19177000Y-9829000D01*
X19127000Y-9779000D02*
X19227000Y-9779000D01*
X19177000Y-10491000D02*
X19177000Y-10591000D01*
X19127000Y-10541000D02*
X19227000Y-10541000D01*
X19177000Y-10745000D02*
X19177000Y-10845000D01*
X19127000Y-10795000D02*
X19227000Y-10795000D01*
X19177000Y-10999000D02*
X19177000Y-11099000D01*
X19127000Y-11049000D02*
X19227000Y-11049000D01*
X19177000Y-11253000D02*
X19177000Y-11353000D01*
X19127000Y-11303000D02*
X19227000Y-11303000D01*
X12253321Y-7122521D02*
X12253321Y-7050679D01*
X12181479Y-7050679D01*
X12181479Y-7122521D01*
X12253321Y-7122521D01*
X12507321Y-7122521D02*
X12507321Y-7050679D01*
X12435479Y-7050679D01*
X12435479Y-7122521D01*
X12507321Y-7122521D01*
X12761321Y-7122521D02*
X12761321Y-7050679D01*
X12689479Y-7050679D01*
X12689479Y-7122521D01*
X12761321Y-7122521D01*
X13015321Y-7122521D02*
X13015321Y-7050679D01*
X12943479Y-7050679D01*
X12943479Y-7122521D01*
X13015321Y-7122521D01*
X13167721Y-11948521D02*
X13167721Y-11876679D01*
X13095879Y-11876679D01*
X13095879Y-11948521D01*
X13167721Y-11948521D01*
X13269321Y-7122521D02*
X13269321Y-7050679D01*
X13197479Y-7050679D01*
X13197479Y-7122521D01*
X13269321Y-7122521D01*
X13421721Y-11948521D02*
X13421721Y-11876679D01*
X13349879Y-11876679D01*
X13349879Y-11948521D01*
X13421721Y-11948521D01*
X13523321Y-7122521D02*
X13523321Y-7050679D01*
X13451479Y-7050679D01*
X13451479Y-7122521D01*
X13523321Y-7122521D01*
X13675721Y-11948521D02*
X13675721Y-11876679D01*
X13603879Y-11876679D01*
X13603879Y-11948521D01*
X13675721Y-11948521D01*
X13777321Y-7122521D02*
X13777321Y-7050679D01*
X13705479Y-7050679D01*
X13705479Y-7122521D01*
X13777321Y-7122521D01*
X13929721Y-11948521D02*
X13929721Y-11876679D01*
X13857879Y-11876679D01*
X13857879Y-11948521D01*
X13929721Y-11948521D01*
X14031321Y-7122521D02*
X14031321Y-7050679D01*
X13959479Y-7050679D01*
X13959479Y-7122521D01*
X14031321Y-7122521D01*
X14183721Y-11948521D02*
X14183721Y-11876679D01*
X14111879Y-11876679D01*
X14111879Y-11948521D01*
X14183721Y-11948521D01*
X14285321Y-7122521D02*
X14285321Y-7050679D01*
X14213479Y-7050679D01*
X14213479Y-7122521D01*
X14285321Y-7122521D01*
X14437721Y-11948521D02*
X14437721Y-11876679D01*
X14365879Y-11876679D01*
X14365879Y-11948521D01*
X14437721Y-11948521D01*
X14539321Y-7122521D02*
X14539321Y-7050679D01*
X14467479Y-7050679D01*
X14467479Y-7122521D01*
X14539321Y-7122521D01*
X14691721Y-11948521D02*
X14691721Y-11876679D01*
X14619879Y-11876679D01*
X14619879Y-11948521D01*
X14691721Y-11948521D01*
X14945721Y-7122521D02*
X14945721Y-7050679D01*
X14873879Y-7050679D01*
X14873879Y-7122521D01*
X14945721Y-7122521D01*
X14945721Y-11948521D02*
X14945721Y-11876679D01*
X14873879Y-11876679D01*
X14873879Y-11948521D01*
X14945721Y-11948521D01*
X15199721Y-7122521D02*
X15199721Y-7050679D01*
X15127879Y-7050679D01*
X15127879Y-7122521D01*
X15199721Y-7122521D01*
X15453721Y-7122521D02*
X15453721Y-7050679D01*
X15381879Y-7050679D01*
X15381879Y-7122521D01*
X15453721Y-7122521D01*
X15453721Y-11948521D02*
X15453721Y-11876679D01*
X15381879Y-11876679D01*
X15381879Y-11948521D01*
X15453721Y-11948521D01*
X15707721Y-7122521D02*
X15707721Y-7050679D01*
X15635879Y-7050679D01*
X15635879Y-7122521D01*
X15707721Y-7122521D01*
X15707721Y-11948521D02*
X15707721Y-11876679D01*
X15635879Y-11876679D01*
X15635879Y-11948521D01*
X15707721Y-11948521D01*
X15961721Y-7122521D02*
X15961721Y-7050679D01*
X15889879Y-7050679D01*
X15889879Y-7122521D01*
X15961721Y-7122521D01*
X15961721Y-11948521D02*
X15961721Y-11876679D01*
X15889879Y-11876679D01*
X15889879Y-11948521D01*
X15961721Y-11948521D01*
X16215721Y-7122521D02*
X16215721Y-7050679D01*
X16143879Y-7050679D01*
X16143879Y-7122521D01*
X16215721Y-7122521D01*
X16215721Y-11948521D02*
X16215721Y-11876679D01*
X16143879Y-11876679D01*
X16143879Y-11948521D01*
X16215721Y-11948521D01*
X16469721Y-7122521D02*
X16469721Y-7050679D01*
X16397879Y-7050679D01*
X16397879Y-7122521D01*
X16469721Y-7122521D01*
X16469721Y-11948521D02*
X16469721Y-11876679D01*
X16397879Y-11876679D01*
X16397879Y-11948521D01*
X16469721Y-11948521D01*
X16723721Y-7122521D02*
X16723721Y-7050679D01*
X16651879Y-7050679D01*
X16651879Y-7122521D01*
X16723721Y-7122521D01*
X16723721Y-11948521D02*
X16723721Y-11876679D01*
X16651879Y-11876679D01*
X16651879Y-11948521D01*
X16723721Y-11948521D01*
X16977721Y-11948521D02*
X16977721Y-11876679D01*
X16905879Y-11876679D01*
X16905879Y-11948521D01*
X16977721Y-11948521D01*
X17231721Y-7122521D02*
X17231721Y-7050679D01*
X17159879Y-7050679D01*
X17159879Y-7122521D01*
X17231721Y-7122521D01*
X17231721Y-11948521D02*
X17231721Y-11876679D01*
X17159879Y-11876679D01*
X17159879Y-11948521D01*
X17231721Y-11948521D01*
X17485721Y-7122521D02*
X17485721Y-7050679D01*
X17413879Y-7050679D01*
X17413879Y-7122521D01*
X17485721Y-7122521D01*
X17739721Y-7122521D02*
X17739721Y-7050679D01*
X17667879Y-7050679D01*
X17667879Y-7122521D01*
X17739721Y-7122521D01*
X17739721Y-11948521D02*
X17739721Y-11876679D01*
X17667879Y-11876679D01*
X17667879Y-11948521D01*
X17739721Y-11948521D01*
X17993721Y-7122521D02*
X17993721Y-7050679D01*
X17921879Y-7050679D01*
X17921879Y-7122521D01*
X17993721Y-7122521D01*
X17993721Y-11948521D02*
X17993721Y-11876679D01*
X17921879Y-11876679D01*
X17921879Y-11948521D01*
X17993721Y-11948521D01*
X18247721Y-7122521D02*
X18247721Y-7050679D01*
X18175879Y-7050679D01*
X18175879Y-7122521D01*
X18247721Y-7122521D01*
X18247721Y-11948521D02*
X18247721Y-11876679D01*
X18175879Y-11876679D01*
X18175879Y-11948521D01*
X18247721Y-11948521D01*
X18501721Y-7122521D02*
X18501721Y-7050679D01*
X18429879Y-7050679D01*
X18429879Y-7122521D01*
X18501721Y-7122521D01*
X18501721Y-11948521D02*
X18501721Y-11876679D01*
X18429879Y-11876679D01*
X18429879Y-11948521D01*
X18501721Y-11948521D01*
X18755721Y-7122521D02*
X18755721Y-7050679D01*
X18683879Y-7050679D01*
X18683879Y-7122521D01*
X18755721Y-7122521D01*
X18755721Y-11948521D02*
X18755721Y-11876679D01*
X18683879Y-11876679D01*
X18683879Y-11948521D01*
X18755721Y-11948521D01*
X19009721Y-7122521D02*
X19009721Y-7050679D01*
X18937879Y-7050679D01*
X18937879Y-7122521D01*
X19009721Y-7122521D01*
X19009721Y-11948521D02*
X19009721Y-11876679D01*
X18937879Y-11876679D01*
X18937879Y-11948521D01*
X19009721Y-11948521D01*
X19263721Y-11948521D02*
X19263721Y-11876679D01*
X19191879Y-11876679D01*
X19191879Y-11948521D01*
X19263721Y-11948521D01*
X19517721Y-11948521D02*
X19517721Y-11876679D01*
X19445879Y-11876679D01*
X19445879Y-11948521D01*
X19517721Y-11948521D01*
X19771721Y-7122521D02*
X19771721Y-7050679D01*
X19699879Y-7050679D01*
X19699879Y-7122521D01*
X19771721Y-7122521D01*
X19771721Y-7376521D02*
X19771721Y-7304679D01*
X19699879Y-7304679D01*
X19699879Y-7376521D01*
X19771721Y-7376521D01*
X19771721Y-7630521D02*
X19771721Y-7558679D01*
X19699879Y-7558679D01*
X19699879Y-7630521D01*
X19771721Y-7630521D01*
X19771721Y-7884521D02*
X19771721Y-7812679D01*
X19699879Y-7812679D01*
X19699879Y-7884521D01*
X19771721Y-7884521D01*
X19771721Y-8138521D02*
X19771721Y-8066679D01*
X19699879Y-8066679D01*
X19699879Y-8138521D01*
X19771721Y-8138521D01*
X19771721Y-8392521D02*
X19771721Y-8320679D01*
X19699879Y-8320679D01*
X19699879Y-8392521D01*
X19771721Y-8392521D01*
X19771721Y-8646521D02*
X19771721Y-8574679D01*
X19699879Y-8574679D01*
X19699879Y-8646521D01*
X19771721Y-8646521D01*
X19771721Y-8900521D02*
X19771721Y-8828679D01*
X19699879Y-8828679D01*
X19699879Y-8900521D01*
X19771721Y-8900521D01*
X19771721Y-9154521D02*
X19771721Y-9082679D01*
X19699879Y-9082679D01*
X19699879Y-9154521D01*
X19771721Y-9154521D01*
X19771721Y-9408521D02*
X19771721Y-9336679D01*
X19699879Y-9336679D01*
X19699879Y-9408521D01*
X19771721Y-9408521D01*
X19771721Y-9662521D02*
X19771721Y-9590679D01*
X19699879Y-9590679D01*
X19699879Y-9662521D01*
X19771721Y-9662521D01*
X19771721Y-9916521D02*
X19771721Y-9844679D01*
X19699879Y-9844679D01*
X19699879Y-9916521D01*
X19771721Y-9916521D01*
X19771721Y-10170521D02*
X19771721Y-10098679D01*
X19699879Y-10098679D01*
X19699879Y-10170521D01*
X19771721Y-10170521D01*
X19771721Y-10424521D02*
X19771721Y-10352679D01*
X19699879Y-10352679D01*
X19699879Y-10424521D01*
X19771721Y-10424521D01*
X19771721Y-10678521D02*
X19771721Y-10606679D01*
X19699879Y-10606679D01*
X19699879Y-10678521D01*
X19771721Y-10678521D01*
X19771721Y-10932521D02*
X19771721Y-10860679D01*
X19699879Y-10860679D01*
X19699879Y-10932521D01*
X19771721Y-10932521D01*
X19771721Y-11186521D02*
X19771721Y-11114679D01*
X19699879Y-11114679D01*
X19699879Y-11186521D01*
X19771721Y-11186521D01*
X19771721Y-11440521D02*
X19771721Y-11368679D01*
X19699879Y-11368679D01*
X19699879Y-11440521D01*
X19771721Y-11440521D01*
X20025721Y-7122521D02*
X20025721Y-7050679D01*
X19953879Y-7050679D01*
X19953879Y-7122521D01*
X20025721Y-7122521D01*
X20025721Y-7376521D02*
X20025721Y-7304679D01*
X19953879Y-7304679D01*
X19953879Y-7376521D01*
X20025721Y-7376521D01*
X20025721Y-7630521D02*
X20025721Y-7558679D01*
X19953879Y-7558679D01*
X19953879Y-7630521D01*
X20025721Y-7630521D01*
X20025721Y-7884521D02*
X20025721Y-7812679D01*
X19953879Y-7812679D01*
X19953879Y-7884521D01*
X20025721Y-7884521D01*
X20025721Y-8138521D02*
X20025721Y-8066679D01*
X19953879Y-8066679D01*
X19953879Y-8138521D01*
X20025721Y-8138521D01*
X20025721Y-8392521D02*
X20025721Y-8320679D01*
X19953879Y-8320679D01*
X19953879Y-8392521D01*
X20025721Y-8392521D01*
X20025721Y-8646521D02*
X20025721Y-8574679D01*
X19953879Y-8574679D01*
X19953879Y-8646521D01*
X20025721Y-8646521D01*
X20025721Y-8900521D02*
X20025721Y-8828679D01*
X19953879Y-8828679D01*
X19953879Y-8900521D01*
X20025721Y-8900521D01*
X20025721Y-9154521D02*
X20025721Y-9082679D01*
X19953879Y-9082679D01*
X19953879Y-9154521D01*
X20025721Y-9154521D01*
X20025721Y-9408521D02*
X20025721Y-9336679D01*
X19953879Y-9336679D01*
X19953879Y-9408521D01*
X20025721Y-9408521D01*
X20025721Y-9662521D02*
X20025721Y-9590679D01*
X19953879Y-9590679D01*
X19953879Y-9662521D01*
X20025721Y-9662521D01*
X20025721Y-9916521D02*
X20025721Y-9844679D01*
X19953879Y-9844679D01*
X19953879Y-9916521D01*
X20025721Y-9916521D01*
X20025721Y-10170521D02*
X20025721Y-10098679D01*
X19953879Y-10098679D01*
X19953879Y-10170521D01*
X20025721Y-10170521D01*
X20025721Y-10424521D02*
X20025721Y-10352679D01*
X19953879Y-10352679D01*
X19953879Y-10424521D01*
X20025721Y-10424521D01*
X20025721Y-10678521D02*
X20025721Y-10606679D01*
X19953879Y-10606679D01*
X19953879Y-10678521D01*
X20025721Y-10678521D01*
X20025721Y-10932521D02*
X20025721Y-10860679D01*
X19953879Y-10860679D01*
X19953879Y-10932521D01*
X20025721Y-10932521D01*
X20025721Y-11186521D02*
X20025721Y-11114679D01*
X19953879Y-11114679D01*
X19953879Y-11186521D01*
X20025721Y-11186521D01*
X20025721Y-11440521D02*
X20025721Y-11368679D01*
X19953879Y-11368679D01*
X19953879Y-11440521D01*
X20025721Y-11440521D01*
X10922000Y-9322000D02*
X10973000Y-9271000D01*
X10922000Y-9220000D01*
X10871000Y-9271000D01*
X10922000Y-9322000D01*
X10922000Y-9576000D02*
X10973000Y-9525000D01*
X10922000Y-9474000D01*
X10871000Y-9525000D01*
X10922000Y-9576000D01*
X10922000Y-9830000D02*
X10973000Y-9779000D01*
X10922000Y-9728000D01*
X10871000Y-9779000D01*
X10922000Y-9830000D01*
X10922000Y-10084000D02*
X10973000Y-10033000D01*
X10922000Y-9982000D01*
X10871000Y-10033000D01*
X10922000Y-10084000D01*
X10922000Y-10338000D02*
X10973000Y-10287000D01*
X10922000Y-10236000D01*
X10871000Y-10287000D01*
X10922000Y-10338000D01*
X10922000Y-10592000D02*
X10973000Y-10541000D01*
X10922000Y-10490000D01*
X10871000Y-10541000D01*
X10922000Y-10592000D01*
X11176000Y-9322000D02*
X11227000Y-9271000D01*
X11176000Y-9220000D01*
X11125000Y-9271000D01*
X11176000Y-9322000D01*
X11176000Y-9576000D02*
X11227000Y-9525000D01*
X11176000Y-9474000D01*
X11125000Y-9525000D01*
X11176000Y-9576000D01*
X11176000Y-9830000D02*
X11227000Y-9779000D01*
X11176000Y-9728000D01*
X11125000Y-9779000D01*
X11176000Y-9830000D01*
X11176000Y-10084000D02*
X11227000Y-10033000D01*
X11176000Y-9982000D01*
X11125000Y-10033000D01*
X11176000Y-10084000D01*
X11176000Y-10338000D02*
X11227000Y-10287000D01*
X11176000Y-10236000D01*
X11125000Y-10287000D01*
X11176000Y-10338000D01*
X11176000Y-10592000D02*
X11227000Y-10541000D01*
X11176000Y-10490000D01*
X11125000Y-10541000D01*
X11176000Y-10592000D01*
X11582400Y-11760200D02*
X11887200Y-12065000D01*
X11887200Y-11760200D02*
X11582400Y-12065000D01*
X11887200Y-11912600D02*
G75*
G03*
X11887200Y-11912600I-152400J0D01*
G01*
X11709400Y-6934200D02*
X12014200Y-7239000D01*
X12014200Y-6934200D02*
X11709400Y-7239000D01*
X12014200Y-7086600D02*
G75*
G03*
X12014200Y-7086600I-152400J0D01*
G01*
X19202400Y-6934200D02*
X19507200Y-7239000D01*
X19507200Y-6934200D02*
X19202400Y-7239000D01*
X19507200Y-7086600D02*
G75*
G03*
X19507200Y-7086600I-152400J0D01*
G01*
X19837400Y-11760200D02*
X20142200Y-12065000D01*
X20142200Y-11760200D02*
X19837400Y-12065000D01*
X20142200Y-11912600D02*
G75*
G03*
X20142200Y-11912600I-152400J0D01*
G01*
D12*
X10616728Y-12639814D02*
X10616728Y-12339814D01*
X10688157Y-12339814D01*
X10731014Y-12354100D01*
X10759586Y-12382671D01*
X10773871Y-12411243D01*
X10788157Y-12468386D01*
X10788157Y-12511243D01*
X10773871Y-12568386D01*
X10759586Y-12596957D01*
X10731014Y-12625529D01*
X10688157Y-12639814D01*
X10616728Y-12639814D01*
X10916728Y-12639814D02*
X10916728Y-12439814D01*
X10916728Y-12496957D02*
X10931014Y-12468386D01*
X10945300Y-12454100D01*
X10973871Y-12439814D01*
X11002443Y-12439814D01*
X11102443Y-12639814D02*
X11102443Y-12439814D01*
X11102443Y-12339814D02*
X11088157Y-12354100D01*
X11102443Y-12368386D01*
X11116728Y-12354100D01*
X11102443Y-12339814D01*
X11102443Y-12368386D01*
X11288157Y-12639814D02*
X11259586Y-12625529D01*
X11245300Y-12596957D01*
X11245300Y-12339814D01*
X11445300Y-12639814D02*
X11416728Y-12625529D01*
X11402443Y-12596957D01*
X11402443Y-12339814D01*
X11788157Y-12639814D02*
X11788157Y-12339814D01*
X11888157Y-12554100D01*
X11988157Y-12339814D01*
X11988157Y-12639814D01*
X12259586Y-12639814D02*
X12259586Y-12482671D01*
X12245300Y-12454100D01*
X12216728Y-12439814D01*
X12159586Y-12439814D01*
X12131014Y-12454100D01*
X12259586Y-12625529D02*
X12231014Y-12639814D01*
X12159586Y-12639814D01*
X12131014Y-12625529D01*
X12116728Y-12596957D01*
X12116728Y-12568386D01*
X12131014Y-12539814D01*
X12159586Y-12525529D01*
X12231014Y-12525529D01*
X12259586Y-12511243D01*
X12402443Y-12439814D02*
X12402443Y-12739814D01*
X12402443Y-12454100D02*
X12431014Y-12439814D01*
X12488157Y-12439814D01*
X12516728Y-12454100D01*
X12531014Y-12468386D01*
X12545300Y-12496957D01*
X12545300Y-12582671D01*
X12531014Y-12611243D01*
X12516728Y-12625529D01*
X12488157Y-12639814D01*
X12431014Y-12639814D01*
X12402443Y-12625529D01*
X12673871Y-12611243D02*
X12688157Y-12625529D01*
X12673871Y-12639814D01*
X12659586Y-12625529D01*
X12673871Y-12611243D01*
X12673871Y-12639814D01*
X12673871Y-12454100D02*
X12688157Y-12468386D01*
X12673871Y-12482671D01*
X12659586Y-12468386D01*
X12673871Y-12454100D01*
X12673871Y-12482671D01*
X10250300Y-13094100D02*
X10330300Y-13174100D01*
X10330300Y-13094100D02*
X10250300Y-13174100D01*
X10673871Y-12969814D02*
X10702443Y-12969814D01*
X10731014Y-12984100D01*
X10745300Y-12998386D01*
X10759586Y-13026957D01*
X10773871Y-13084100D01*
X10773871Y-13155529D01*
X10759586Y-13212671D01*
X10745300Y-13241243D01*
X10731014Y-13255529D01*
X10702443Y-13269814D01*
X10673871Y-13269814D01*
X10645300Y-13255529D01*
X10631014Y-13241243D01*
X10616728Y-13212671D01*
X10602443Y-13155529D01*
X10602443Y-13084100D01*
X10616728Y-13026957D01*
X10631014Y-12998386D01*
X10645300Y-12984100D01*
X10673871Y-12969814D01*
X10902443Y-13241243D02*
X10916728Y-13255529D01*
X10902443Y-13269814D01*
X10888157Y-13255529D01*
X10902443Y-13241243D01*
X10902443Y-13269814D01*
X11088157Y-13098386D02*
X11059586Y-13084100D01*
X11045300Y-13069814D01*
X11031014Y-13041243D01*
X11031014Y-13026957D01*
X11045300Y-12998386D01*
X11059586Y-12984100D01*
X11088157Y-12969814D01*
X11145300Y-12969814D01*
X11173871Y-12984100D01*
X11188157Y-12998386D01*
X11202443Y-13026957D01*
X11202443Y-13041243D01*
X11188157Y-13069814D01*
X11173871Y-13084100D01*
X11145300Y-13098386D01*
X11088157Y-13098386D01*
X11059586Y-13112671D01*
X11045300Y-13126957D01*
X11031014Y-13155529D01*
X11031014Y-13212671D01*
X11045300Y-13241243D01*
X11059586Y-13255529D01*
X11088157Y-13269814D01*
X11145300Y-13269814D01*
X11173871Y-13255529D01*
X11188157Y-13241243D01*
X11202443Y-13212671D01*
X11202443Y-13155529D01*
X11188157Y-13126957D01*
X11173871Y-13112671D01*
X11145300Y-13098386D01*
X11388157Y-12969814D02*
X11416728Y-12969814D01*
X11445300Y-12984100D01*
X11459586Y-12998386D01*
X11473871Y-13026957D01*
X11488157Y-13084100D01*
X11488157Y-13155529D01*
X11473871Y-13212671D01*
X11459586Y-13241243D01*
X11445300Y-13255529D01*
X11416728Y-13269814D01*
X11388157Y-13269814D01*
X11359586Y-13255529D01*
X11345300Y-13241243D01*
X11331014Y-13212671D01*
X11316728Y-13155529D01*
X11316728Y-13084100D01*
X11331014Y-13026957D01*
X11345300Y-12998386D01*
X11359586Y-12984100D01*
X11388157Y-12969814D01*
X11673871Y-12969814D02*
X11702443Y-12969814D01*
X11731014Y-12984100D01*
X11745300Y-12998386D01*
X11759586Y-13026957D01*
X11773871Y-13084100D01*
X11773871Y-13155529D01*
X11759586Y-13212671D01*
X11745300Y-13241243D01*
X11731014Y-13255529D01*
X11702443Y-13269814D01*
X11673871Y-13269814D01*
X11645300Y-13255529D01*
X11631014Y-13241243D01*
X11616728Y-13212671D01*
X11602443Y-13155529D01*
X11602443Y-13084100D01*
X11616728Y-13026957D01*
X11631014Y-12998386D01*
X11645300Y-12984100D01*
X11673871Y-12969814D01*
X11902443Y-13269814D02*
X11902443Y-13069814D01*
X11902443Y-13098386D02*
X11916728Y-13084100D01*
X11945300Y-13069814D01*
X11988157Y-13069814D01*
X12016728Y-13084100D01*
X12031014Y-13112671D01*
X12031014Y-13269814D01*
X12031014Y-13112671D02*
X12045300Y-13084100D01*
X12073871Y-13069814D01*
X12116728Y-13069814D01*
X12145300Y-13084100D01*
X12159586Y-13112671D01*
X12159586Y-13269814D01*
X12302443Y-13269814D02*
X12302443Y-13069814D01*
X12302443Y-13098386D02*
X12316728Y-13084100D01*
X12345300Y-13069814D01*
X12388157Y-13069814D01*
X12416728Y-13084100D01*
X12431014Y-13112671D01*
X12431014Y-13269814D01*
X12431014Y-13112671D02*
X12445300Y-13084100D01*
X12473871Y-13069814D01*
X12516728Y-13069814D01*
X12545300Y-13084100D01*
X12559586Y-13112671D01*
X12559586Y-13269814D01*
X13145300Y-12955529D02*
X12888157Y-13341243D01*
X13531014Y-12969814D02*
X13559586Y-12969814D01*
X13588157Y-12984100D01*
X13602443Y-12998386D01*
X13616728Y-13026957D01*
X13631014Y-13084100D01*
X13631014Y-13155529D01*
X13616728Y-13212671D01*
X13602443Y-13241243D01*
X13588157Y-13255529D01*
X13559586Y-13269814D01*
X13531014Y-13269814D01*
X13502443Y-13255529D01*
X13488157Y-13241243D01*
X13473871Y-13212671D01*
X13459586Y-13155529D01*
X13459586Y-13084100D01*
X13473871Y-13026957D01*
X13488157Y-12998386D01*
X13502443Y-12984100D01*
X13531014Y-12969814D01*
X13759586Y-13241243D02*
X13773871Y-13255529D01*
X13759586Y-13269814D01*
X13745300Y-13255529D01*
X13759586Y-13241243D01*
X13759586Y-13269814D01*
X13959586Y-12969814D02*
X13988157Y-12969814D01*
X14016728Y-12984100D01*
X14031014Y-12998386D01*
X14045300Y-13026957D01*
X14059586Y-13084100D01*
X14059586Y-13155529D01*
X14045300Y-13212671D01*
X14031014Y-13241243D01*
X14016728Y-13255529D01*
X13988157Y-13269814D01*
X13959586Y-13269814D01*
X13931014Y-13255529D01*
X13916728Y-13241243D01*
X13902443Y-13212671D01*
X13888157Y-13155529D01*
X13888157Y-13084100D01*
X13902443Y-13026957D01*
X13916728Y-12998386D01*
X13931014Y-12984100D01*
X13959586Y-12969814D01*
X14159586Y-12969814D02*
X14345300Y-12969814D01*
X14245300Y-13084100D01*
X14288157Y-13084100D01*
X14316728Y-13098386D01*
X14331014Y-13112671D01*
X14345300Y-13141243D01*
X14345300Y-13212671D01*
X14331014Y-13241243D01*
X14316728Y-13255529D01*
X14288157Y-13269814D01*
X14202443Y-13269814D01*
X14173871Y-13255529D01*
X14159586Y-13241243D01*
X14631014Y-13269814D02*
X14459586Y-13269814D01*
X14545300Y-13269814D02*
X14545300Y-12969814D01*
X14516728Y-13012671D01*
X14488157Y-13041243D01*
X14459586Y-13055529D01*
X14902443Y-12969814D02*
X14759586Y-12969814D01*
X14745300Y-13112671D01*
X14759586Y-13098386D01*
X14788157Y-13084100D01*
X14859586Y-13084100D01*
X14888157Y-13098386D01*
X14902443Y-13112671D01*
X14916728Y-13141243D01*
X14916728Y-13212671D01*
X14902443Y-13241243D01*
X14888157Y-13255529D01*
X14859586Y-13269814D01*
X14788157Y-13269814D01*
X14759586Y-13255529D01*
X14745300Y-13241243D01*
X15031014Y-12969814D02*
X15031014Y-13026957D01*
X15145300Y-12969814D02*
X15145300Y-13026957D01*
X15588157Y-13384100D02*
X15573871Y-13369814D01*
X15545300Y-13326957D01*
X15531014Y-13298386D01*
X15516728Y-13255529D01*
X15502443Y-13184100D01*
X15502443Y-13126957D01*
X15516728Y-13055529D01*
X15531014Y-13012671D01*
X15545300Y-12984100D01*
X15573871Y-12941243D01*
X15588157Y-12926957D01*
X15716728Y-13269814D02*
X15773871Y-13269814D01*
X15802443Y-13255529D01*
X15816728Y-13241243D01*
X15845300Y-13198386D01*
X15859586Y-13141243D01*
X15859586Y-13026957D01*
X15845300Y-12998386D01*
X15831014Y-12984100D01*
X15802443Y-12969814D01*
X15745300Y-12969814D01*
X15716728Y-12984100D01*
X15702443Y-12998386D01*
X15688157Y-13026957D01*
X15688157Y-13098386D01*
X15702443Y-13126957D01*
X15716728Y-13141243D01*
X15745300Y-13155529D01*
X15802443Y-13155529D01*
X15831014Y-13141243D01*
X15845300Y-13126957D01*
X15859586Y-13098386D01*
X16116728Y-12969814D02*
X16059586Y-12969814D01*
X16031014Y-12984100D01*
X16016728Y-12998386D01*
X15988157Y-13041243D01*
X15973871Y-13098386D01*
X15973871Y-13212671D01*
X15988157Y-13241243D01*
X16002443Y-13255529D01*
X16031014Y-13269814D01*
X16088157Y-13269814D01*
X16116728Y-13255529D01*
X16131014Y-13241243D01*
X16145300Y-13212671D01*
X16145300Y-13141243D01*
X16131014Y-13112671D01*
X16116728Y-13098386D01*
X16088157Y-13084100D01*
X16031014Y-13084100D01*
X16002443Y-13098386D01*
X15988157Y-13112671D01*
X15973871Y-13141243D01*
X16502443Y-13269814D02*
X16502443Y-12969814D01*
X16631014Y-13269814D02*
X16631014Y-13112671D01*
X16616728Y-13084100D01*
X16588157Y-13069814D01*
X16545300Y-13069814D01*
X16516728Y-13084100D01*
X16502443Y-13098386D01*
X16816728Y-13269814D02*
X16788157Y-13255529D01*
X16773871Y-13241243D01*
X16759586Y-13212671D01*
X16759586Y-13126957D01*
X16773871Y-13098386D01*
X16788157Y-13084100D01*
X16816728Y-13069814D01*
X16859586Y-13069814D01*
X16888157Y-13084100D01*
X16902443Y-13098386D01*
X16916728Y-13126957D01*
X16916728Y-13212671D01*
X16902443Y-13241243D01*
X16888157Y-13255529D01*
X16859586Y-13269814D01*
X16816728Y-13269814D01*
X17088157Y-13269814D02*
X17059586Y-13255529D01*
X17045300Y-13226957D01*
X17045300Y-12969814D01*
X17316728Y-13255529D02*
X17288157Y-13269814D01*
X17231014Y-13269814D01*
X17202443Y-13255529D01*
X17188157Y-13226957D01*
X17188157Y-13112671D01*
X17202443Y-13084100D01*
X17231014Y-13069814D01*
X17288157Y-13069814D01*
X17316728Y-13084100D01*
X17331014Y-13112671D01*
X17331014Y-13141243D01*
X17188157Y-13169814D01*
X17445300Y-13255529D02*
X17473871Y-13269814D01*
X17531014Y-13269814D01*
X17559586Y-13255529D01*
X17573871Y-13226957D01*
X17573871Y-13212671D01*
X17559586Y-13184100D01*
X17531014Y-13169814D01*
X17488157Y-13169814D01*
X17459586Y-13155529D01*
X17445300Y-13126957D01*
X17445300Y-13112671D01*
X17459586Y-13084100D01*
X17488157Y-13069814D01*
X17531014Y-13069814D01*
X17559586Y-13084100D01*
X17673871Y-13384100D02*
X17688157Y-13369814D01*
X17716728Y-13326957D01*
X17731014Y-13298386D01*
X17745300Y-13255529D01*
X17759586Y-13184100D01*
X17759586Y-13126957D01*
X17745300Y-13055529D01*
X17731014Y-13012671D01*
X17716728Y-12984100D01*
X17688157Y-12941243D01*
X17673871Y-12926957D01*
X10330300Y-13530100D02*
G75*
G03*
X10330300Y-13530100I-45000J0D01*
G01*
X10673871Y-13365814D02*
X10702443Y-13365814D01*
X10731014Y-13380100D01*
X10745300Y-13394386D01*
X10759586Y-13422957D01*
X10773871Y-13480100D01*
X10773871Y-13551529D01*
X10759586Y-13608671D01*
X10745300Y-13637243D01*
X10731014Y-13651529D01*
X10702443Y-13665814D01*
X10673871Y-13665814D01*
X10645300Y-13651529D01*
X10631014Y-13637243D01*
X10616728Y-13608671D01*
X10602443Y-13551529D01*
X10602443Y-13480100D01*
X10616728Y-13422957D01*
X10631014Y-13394386D01*
X10645300Y-13380100D01*
X10673871Y-13365814D01*
X10902443Y-13637243D02*
X10916728Y-13651529D01*
X10902443Y-13665814D01*
X10888157Y-13651529D01*
X10902443Y-13637243D01*
X10902443Y-13665814D01*
X11059586Y-13665814D02*
X11116728Y-13665814D01*
X11145300Y-13651529D01*
X11159586Y-13637243D01*
X11188157Y-13594386D01*
X11202443Y-13537243D01*
X11202443Y-13422957D01*
X11188157Y-13394386D01*
X11173871Y-13380100D01*
X11145300Y-13365814D01*
X11088157Y-13365814D01*
X11059586Y-13380100D01*
X11045300Y-13394386D01*
X11031014Y-13422957D01*
X11031014Y-13494386D01*
X11045300Y-13522957D01*
X11059586Y-13537243D01*
X11088157Y-13551529D01*
X11145300Y-13551529D01*
X11173871Y-13537243D01*
X11188157Y-13522957D01*
X11202443Y-13494386D01*
X11388157Y-13365814D02*
X11416728Y-13365814D01*
X11445300Y-13380100D01*
X11459586Y-13394386D01*
X11473871Y-13422957D01*
X11488157Y-13480100D01*
X11488157Y-13551529D01*
X11473871Y-13608671D01*
X11459586Y-13637243D01*
X11445300Y-13651529D01*
X11416728Y-13665814D01*
X11388157Y-13665814D01*
X11359586Y-13651529D01*
X11345300Y-13637243D01*
X11331014Y-13608671D01*
X11316728Y-13551529D01*
X11316728Y-13480100D01*
X11331014Y-13422957D01*
X11345300Y-13394386D01*
X11359586Y-13380100D01*
X11388157Y-13365814D01*
X11673871Y-13365814D02*
X11702443Y-13365814D01*
X11731014Y-13380100D01*
X11745300Y-13394386D01*
X11759586Y-13422957D01*
X11773871Y-13480100D01*
X11773871Y-13551529D01*
X11759586Y-13608671D01*
X11745300Y-13637243D01*
X11731014Y-13651529D01*
X11702443Y-13665814D01*
X11673871Y-13665814D01*
X11645300Y-13651529D01*
X11631014Y-13637243D01*
X11616728Y-13608671D01*
X11602443Y-13551529D01*
X11602443Y-13480100D01*
X11616728Y-13422957D01*
X11631014Y-13394386D01*
X11645300Y-13380100D01*
X11673871Y-13365814D01*
X11902443Y-13665814D02*
X11902443Y-13465814D01*
X11902443Y-13494386D02*
X11916728Y-13480100D01*
X11945300Y-13465814D01*
X11988157Y-13465814D01*
X12016728Y-13480100D01*
X12031014Y-13508671D01*
X12031014Y-13665814D01*
X12031014Y-13508671D02*
X12045300Y-13480100D01*
X12073871Y-13465814D01*
X12116728Y-13465814D01*
X12145300Y-13480100D01*
X12159586Y-13508671D01*
X12159586Y-13665814D01*
X12302443Y-13665814D02*
X12302443Y-13465814D01*
X12302443Y-13494386D02*
X12316728Y-13480100D01*
X12345300Y-13465814D01*
X12388157Y-13465814D01*
X12416728Y-13480100D01*
X12431014Y-13508671D01*
X12431014Y-13665814D01*
X12431014Y-13508671D02*
X12445300Y-13480100D01*
X12473871Y-13465814D01*
X12516728Y-13465814D01*
X12545300Y-13480100D01*
X12559586Y-13508671D01*
X12559586Y-13665814D01*
X13145300Y-13351529D02*
X12888157Y-13737243D01*
X13531014Y-13365814D02*
X13559586Y-13365814D01*
X13588157Y-13380100D01*
X13602443Y-13394386D01*
X13616728Y-13422957D01*
X13631014Y-13480100D01*
X13631014Y-13551529D01*
X13616728Y-13608671D01*
X13602443Y-13637243D01*
X13588157Y-13651529D01*
X13559586Y-13665814D01*
X13531014Y-13665814D01*
X13502443Y-13651529D01*
X13488157Y-13637243D01*
X13473871Y-13608671D01*
X13459586Y-13551529D01*
X13459586Y-13480100D01*
X13473871Y-13422957D01*
X13488157Y-13394386D01*
X13502443Y-13380100D01*
X13531014Y-13365814D01*
X13759586Y-13637243D02*
X13773871Y-13651529D01*
X13759586Y-13665814D01*
X13745300Y-13651529D01*
X13759586Y-13637243D01*
X13759586Y-13665814D01*
X13959586Y-13365814D02*
X13988157Y-13365814D01*
X14016728Y-13380100D01*
X14031014Y-13394386D01*
X14045300Y-13422957D01*
X14059586Y-13480100D01*
X14059586Y-13551529D01*
X14045300Y-13608671D01*
X14031014Y-13637243D01*
X14016728Y-13651529D01*
X13988157Y-13665814D01*
X13959586Y-13665814D01*
X13931014Y-13651529D01*
X13916728Y-13637243D01*
X13902443Y-13608671D01*
X13888157Y-13551529D01*
X13888157Y-13480100D01*
X13902443Y-13422957D01*
X13916728Y-13394386D01*
X13931014Y-13380100D01*
X13959586Y-13365814D01*
X14159586Y-13365814D02*
X14345300Y-13365814D01*
X14245300Y-13480100D01*
X14288157Y-13480100D01*
X14316728Y-13494386D01*
X14331014Y-13508671D01*
X14345300Y-13537243D01*
X14345300Y-13608671D01*
X14331014Y-13637243D01*
X14316728Y-13651529D01*
X14288157Y-13665814D01*
X14202443Y-13665814D01*
X14173871Y-13651529D01*
X14159586Y-13637243D01*
X14616728Y-13365814D02*
X14473871Y-13365814D01*
X14459586Y-13508671D01*
X14473871Y-13494386D01*
X14502443Y-13480100D01*
X14573871Y-13480100D01*
X14602443Y-13494386D01*
X14616728Y-13508671D01*
X14631014Y-13537243D01*
X14631014Y-13608671D01*
X14616728Y-13637243D01*
X14602443Y-13651529D01*
X14573871Y-13665814D01*
X14502443Y-13665814D01*
X14473871Y-13651529D01*
X14459586Y-13637243D01*
X14888157Y-13465814D02*
X14888157Y-13665814D01*
X14816728Y-13351529D02*
X14745300Y-13565814D01*
X14931014Y-13565814D01*
X15031014Y-13365814D02*
X15031014Y-13422957D01*
X15145300Y-13365814D02*
X15145300Y-13422957D01*
X15588157Y-13780100D02*
X15573871Y-13765814D01*
X15545300Y-13722957D01*
X15531014Y-13694386D01*
X15516728Y-13651529D01*
X15502443Y-13580100D01*
X15502443Y-13522957D01*
X15516728Y-13451529D01*
X15531014Y-13408671D01*
X15545300Y-13380100D01*
X15573871Y-13337243D01*
X15588157Y-13322957D01*
X15688157Y-13394386D02*
X15702443Y-13380100D01*
X15731014Y-13365814D01*
X15802443Y-13365814D01*
X15831014Y-13380100D01*
X15845300Y-13394386D01*
X15859586Y-13422957D01*
X15859586Y-13451529D01*
X15845300Y-13494386D01*
X15673871Y-13665814D01*
X15859586Y-13665814D01*
X16216728Y-13665814D02*
X16216728Y-13365814D01*
X16345300Y-13665814D02*
X16345300Y-13508671D01*
X16331014Y-13480100D01*
X16302443Y-13465814D01*
X16259586Y-13465814D01*
X16231014Y-13480100D01*
X16216728Y-13494386D01*
X16531014Y-13665814D02*
X16502443Y-13651529D01*
X16488157Y-13637243D01*
X16473871Y-13608671D01*
X16473871Y-13522957D01*
X16488157Y-13494386D01*
X16502443Y-13480100D01*
X16531014Y-13465814D01*
X16573871Y-13465814D01*
X16602443Y-13480100D01*
X16616728Y-13494386D01*
X16631014Y-13522957D01*
X16631014Y-13608671D01*
X16616728Y-13637243D01*
X16602443Y-13651529D01*
X16573871Y-13665814D01*
X16531014Y-13665814D01*
X16802443Y-13665814D02*
X16773871Y-13651529D01*
X16759586Y-13622957D01*
X16759586Y-13365814D01*
X17031014Y-13651529D02*
X17002443Y-13665814D01*
X16945300Y-13665814D01*
X16916728Y-13651529D01*
X16902443Y-13622957D01*
X16902443Y-13508671D01*
X16916728Y-13480100D01*
X16945300Y-13465814D01*
X17002443Y-13465814D01*
X17031014Y-13480100D01*
X17045300Y-13508671D01*
X17045300Y-13537243D01*
X16902443Y-13565814D01*
X17159586Y-13651529D02*
X17188157Y-13665814D01*
X17245300Y-13665814D01*
X17273871Y-13651529D01*
X17288157Y-13622957D01*
X17288157Y-13608671D01*
X17273871Y-13580100D01*
X17245300Y-13565814D01*
X17202443Y-13565814D01*
X17173871Y-13551529D01*
X17159586Y-13522957D01*
X17159586Y-13508671D01*
X17173871Y-13480100D01*
X17202443Y-13465814D01*
X17245300Y-13465814D01*
X17273871Y-13480100D01*
X17388157Y-13780100D02*
X17402443Y-13765814D01*
X17431014Y-13722957D01*
X17445300Y-13694386D01*
X17459586Y-13651529D01*
X17473871Y-13580100D01*
X17473871Y-13522957D01*
X17459586Y-13451529D01*
X17445300Y-13408671D01*
X17431014Y-13380100D01*
X17402443Y-13337243D01*
X17388157Y-13322957D01*
X10280300Y-13876100D02*
X10280300Y-13976100D01*
X10230300Y-13926100D02*
X10330300Y-13926100D01*
X10773871Y-14061814D02*
X10602443Y-14061814D01*
X10688157Y-14061814D02*
X10688157Y-13761814D01*
X10659586Y-13804671D01*
X10631014Y-13833243D01*
X10602443Y-13847529D01*
X10902443Y-14033243D02*
X10916728Y-14047529D01*
X10902443Y-14061814D01*
X10888157Y-14047529D01*
X10902443Y-14033243D01*
X10902443Y-14061814D01*
X11102443Y-13761814D02*
X11131014Y-13761814D01*
X11159586Y-13776100D01*
X11173871Y-13790386D01*
X11188157Y-13818957D01*
X11202443Y-13876100D01*
X11202443Y-13947529D01*
X11188157Y-14004671D01*
X11173871Y-14033243D01*
X11159586Y-14047529D01*
X11131014Y-14061814D01*
X11102443Y-14061814D01*
X11073871Y-14047529D01*
X11059586Y-14033243D01*
X11045300Y-14004671D01*
X11031014Y-13947529D01*
X11031014Y-13876100D01*
X11045300Y-13818957D01*
X11059586Y-13790386D01*
X11073871Y-13776100D01*
X11102443Y-13761814D01*
X11388157Y-13761814D02*
X11416728Y-13761814D01*
X11445300Y-13776100D01*
X11459586Y-13790386D01*
X11473871Y-13818957D01*
X11488157Y-13876100D01*
X11488157Y-13947529D01*
X11473871Y-14004671D01*
X11459586Y-14033243D01*
X11445300Y-14047529D01*
X11416728Y-14061814D01*
X11388157Y-14061814D01*
X11359586Y-14047529D01*
X11345300Y-14033243D01*
X11331014Y-14004671D01*
X11316728Y-13947529D01*
X11316728Y-13876100D01*
X11331014Y-13818957D01*
X11345300Y-13790386D01*
X11359586Y-13776100D01*
X11388157Y-13761814D01*
X11673871Y-13761814D02*
X11702443Y-13761814D01*
X11731014Y-13776100D01*
X11745300Y-13790386D01*
X11759586Y-13818957D01*
X11773871Y-13876100D01*
X11773871Y-13947529D01*
X11759586Y-14004671D01*
X11745300Y-14033243D01*
X11731014Y-14047529D01*
X11702443Y-14061814D01*
X11673871Y-14061814D01*
X11645300Y-14047529D01*
X11631014Y-14033243D01*
X11616728Y-14004671D01*
X11602443Y-13947529D01*
X11602443Y-13876100D01*
X11616728Y-13818957D01*
X11631014Y-13790386D01*
X11645300Y-13776100D01*
X11673871Y-13761814D01*
X11902443Y-14061814D02*
X11902443Y-13861814D01*
X11902443Y-13890386D02*
X11916728Y-13876100D01*
X11945300Y-13861814D01*
X11988157Y-13861814D01*
X12016728Y-13876100D01*
X12031014Y-13904671D01*
X12031014Y-14061814D01*
X12031014Y-13904671D02*
X12045300Y-13876100D01*
X12073871Y-13861814D01*
X12116728Y-13861814D01*
X12145300Y-13876100D01*
X12159586Y-13904671D01*
X12159586Y-14061814D01*
X12302443Y-14061814D02*
X12302443Y-13861814D01*
X12302443Y-13890386D02*
X12316728Y-13876100D01*
X12345300Y-13861814D01*
X12388157Y-13861814D01*
X12416728Y-13876100D01*
X12431014Y-13904671D01*
X12431014Y-14061814D01*
X12431014Y-13904671D02*
X12445300Y-13876100D01*
X12473871Y-13861814D01*
X12516728Y-13861814D01*
X12545300Y-13876100D01*
X12559586Y-13904671D01*
X12559586Y-14061814D01*
X13145300Y-13747529D02*
X12888157Y-14133243D01*
X13531014Y-13761814D02*
X13559586Y-13761814D01*
X13588157Y-13776100D01*
X13602443Y-13790386D01*
X13616728Y-13818957D01*
X13631014Y-13876100D01*
X13631014Y-13947529D01*
X13616728Y-14004671D01*
X13602443Y-14033243D01*
X13588157Y-14047529D01*
X13559586Y-14061814D01*
X13531014Y-14061814D01*
X13502443Y-14047529D01*
X13488157Y-14033243D01*
X13473871Y-14004671D01*
X13459586Y-13947529D01*
X13459586Y-13876100D01*
X13473871Y-13818957D01*
X13488157Y-13790386D01*
X13502443Y-13776100D01*
X13531014Y-13761814D01*
X13759586Y-14033243D02*
X13773871Y-14047529D01*
X13759586Y-14061814D01*
X13745300Y-14047529D01*
X13759586Y-14033243D01*
X13759586Y-14061814D01*
X13959586Y-13761814D02*
X13988157Y-13761814D01*
X14016728Y-13776100D01*
X14031014Y-13790386D01*
X14045300Y-13818957D01*
X14059586Y-13876100D01*
X14059586Y-13947529D01*
X14045300Y-14004671D01*
X14031014Y-14033243D01*
X14016728Y-14047529D01*
X13988157Y-14061814D01*
X13959586Y-14061814D01*
X13931014Y-14047529D01*
X13916728Y-14033243D01*
X13902443Y-14004671D01*
X13888157Y-13947529D01*
X13888157Y-13876100D01*
X13902443Y-13818957D01*
X13916728Y-13790386D01*
X13931014Y-13776100D01*
X13959586Y-13761814D01*
X14159586Y-13761814D02*
X14345300Y-13761814D01*
X14245300Y-13876100D01*
X14288157Y-13876100D01*
X14316728Y-13890386D01*
X14331014Y-13904671D01*
X14345300Y-13933243D01*
X14345300Y-14004671D01*
X14331014Y-14033243D01*
X14316728Y-14047529D01*
X14288157Y-14061814D01*
X14202443Y-14061814D01*
X14173871Y-14047529D01*
X14159586Y-14033243D01*
X14488157Y-14061814D02*
X14545300Y-14061814D01*
X14573871Y-14047529D01*
X14588157Y-14033243D01*
X14616728Y-13990386D01*
X14631014Y-13933243D01*
X14631014Y-13818957D01*
X14616728Y-13790386D01*
X14602443Y-13776100D01*
X14573871Y-13761814D01*
X14516728Y-13761814D01*
X14488157Y-13776100D01*
X14473871Y-13790386D01*
X14459586Y-13818957D01*
X14459586Y-13890386D01*
X14473871Y-13918957D01*
X14488157Y-13933243D01*
X14516728Y-13947529D01*
X14573871Y-13947529D01*
X14602443Y-13933243D01*
X14616728Y-13918957D01*
X14631014Y-13890386D01*
X14888157Y-13861814D02*
X14888157Y-14061814D01*
X14816728Y-13747529D02*
X14745300Y-13961814D01*
X14931014Y-13961814D01*
X15031014Y-13761814D02*
X15031014Y-13818957D01*
X15145300Y-13761814D02*
X15145300Y-13818957D01*
X15588157Y-14176100D02*
X15573871Y-14161814D01*
X15545300Y-14118957D01*
X15531014Y-14090386D01*
X15516728Y-14047529D01*
X15502443Y-13976100D01*
X15502443Y-13918957D01*
X15516728Y-13847529D01*
X15531014Y-13804671D01*
X15545300Y-13776100D01*
X15573871Y-13733243D01*
X15588157Y-13718957D01*
X15831014Y-13861814D02*
X15831014Y-14061814D01*
X15759586Y-13747529D02*
X15688157Y-13961814D01*
X15873871Y-13961814D01*
X16002443Y-14061814D02*
X16059586Y-14061814D01*
X16088157Y-14047529D01*
X16102443Y-14033243D01*
X16131014Y-13990386D01*
X16145300Y-13933243D01*
X16145300Y-13818957D01*
X16131014Y-13790386D01*
X16116728Y-13776100D01*
X16088157Y-13761814D01*
X16031014Y-13761814D01*
X16002443Y-13776100D01*
X15988157Y-13790386D01*
X15973871Y-13818957D01*
X15973871Y-13890386D01*
X15988157Y-13918957D01*
X16002443Y-13933243D01*
X16031014Y-13947529D01*
X16088157Y-13947529D01*
X16116728Y-13933243D01*
X16131014Y-13918957D01*
X16145300Y-13890386D01*
X16502443Y-14061814D02*
X16502443Y-13761814D01*
X16631014Y-14061814D02*
X16631014Y-13904671D01*
X16616728Y-13876100D01*
X16588157Y-13861814D01*
X16545300Y-13861814D01*
X16516728Y-13876100D01*
X16502443Y-13890386D01*
X16816728Y-14061814D02*
X16788157Y-14047529D01*
X16773871Y-14033243D01*
X16759586Y-14004671D01*
X16759586Y-13918957D01*
X16773871Y-13890386D01*
X16788157Y-13876100D01*
X16816728Y-13861814D01*
X16859586Y-13861814D01*
X16888157Y-13876100D01*
X16902443Y-13890386D01*
X16916728Y-13918957D01*
X16916728Y-14004671D01*
X16902443Y-14033243D01*
X16888157Y-14047529D01*
X16859586Y-14061814D01*
X16816728Y-14061814D01*
X17088157Y-14061814D02*
X17059586Y-14047529D01*
X17045300Y-14018957D01*
X17045300Y-13761814D01*
X17316728Y-14047529D02*
X17288157Y-14061814D01*
X17231014Y-14061814D01*
X17202443Y-14047529D01*
X17188157Y-14018957D01*
X17188157Y-13904671D01*
X17202443Y-13876100D01*
X17231014Y-13861814D01*
X17288157Y-13861814D01*
X17316728Y-13876100D01*
X17331014Y-13904671D01*
X17331014Y-13933243D01*
X17188157Y-13961814D01*
X17445300Y-14047529D02*
X17473871Y-14061814D01*
X17531014Y-14061814D01*
X17559586Y-14047529D01*
X17573871Y-14018957D01*
X17573871Y-14004671D01*
X17559586Y-13976100D01*
X17531014Y-13961814D01*
X17488157Y-13961814D01*
X17459586Y-13947529D01*
X17445300Y-13918957D01*
X17445300Y-13904671D01*
X17459586Y-13876100D01*
X17488157Y-13861814D01*
X17531014Y-13861814D01*
X17559586Y-13876100D01*
X17673871Y-14176100D02*
X17688157Y-14161814D01*
X17716728Y-14118957D01*
X17731014Y-14090386D01*
X17745300Y-14047529D01*
X17759586Y-13976100D01*
X17759586Y-13918957D01*
X17745300Y-13847529D01*
X17731014Y-13804671D01*
X17716728Y-13776100D01*
X17688157Y-13733243D01*
X17673871Y-13718957D01*
X10315421Y-14358021D02*
X10315421Y-14286179D01*
X10243579Y-14286179D01*
X10243579Y-14358021D01*
X10315421Y-14358021D01*
X10773871Y-14457814D02*
X10602443Y-14457814D01*
X10688157Y-14457814D02*
X10688157Y-14157814D01*
X10659586Y-14200671D01*
X10631014Y-14229243D01*
X10602443Y-14243529D01*
X10902443Y-14429243D02*
X10916728Y-14443529D01*
X10902443Y-14457814D01*
X10888157Y-14443529D01*
X10902443Y-14429243D01*
X10902443Y-14457814D01*
X11102443Y-14157814D02*
X11131014Y-14157814D01*
X11159586Y-14172100D01*
X11173871Y-14186386D01*
X11188157Y-14214957D01*
X11202443Y-14272100D01*
X11202443Y-14343529D01*
X11188157Y-14400671D01*
X11173871Y-14429243D01*
X11159586Y-14443529D01*
X11131014Y-14457814D01*
X11102443Y-14457814D01*
X11073871Y-14443529D01*
X11059586Y-14429243D01*
X11045300Y-14400671D01*
X11031014Y-14343529D01*
X11031014Y-14272100D01*
X11045300Y-14214957D01*
X11059586Y-14186386D01*
X11073871Y-14172100D01*
X11102443Y-14157814D01*
X11488157Y-14457814D02*
X11316728Y-14457814D01*
X11402443Y-14457814D02*
X11402443Y-14157814D01*
X11373871Y-14200671D01*
X11345300Y-14229243D01*
X11316728Y-14243529D01*
X11745300Y-14157814D02*
X11688157Y-14157814D01*
X11659586Y-14172100D01*
X11645300Y-14186386D01*
X11616728Y-14229243D01*
X11602443Y-14286386D01*
X11602443Y-14400671D01*
X11616728Y-14429243D01*
X11631014Y-14443529D01*
X11659586Y-14457814D01*
X11716728Y-14457814D01*
X11745300Y-14443529D01*
X11759586Y-14429243D01*
X11773871Y-14400671D01*
X11773871Y-14329243D01*
X11759586Y-14300671D01*
X11745300Y-14286386D01*
X11716728Y-14272100D01*
X11659586Y-14272100D01*
X11631014Y-14286386D01*
X11616728Y-14300671D01*
X11602443Y-14329243D01*
X11902443Y-14457814D02*
X11902443Y-14257814D01*
X11902443Y-14286386D02*
X11916728Y-14272100D01*
X11945300Y-14257814D01*
X11988157Y-14257814D01*
X12016728Y-14272100D01*
X12031014Y-14300671D01*
X12031014Y-14457814D01*
X12031014Y-14300671D02*
X12045300Y-14272100D01*
X12073871Y-14257814D01*
X12116728Y-14257814D01*
X12145300Y-14272100D01*
X12159586Y-14300671D01*
X12159586Y-14457814D01*
X12302443Y-14457814D02*
X12302443Y-14257814D01*
X12302443Y-14286386D02*
X12316728Y-14272100D01*
X12345300Y-14257814D01*
X12388157Y-14257814D01*
X12416728Y-14272100D01*
X12431014Y-14300671D01*
X12431014Y-14457814D01*
X12431014Y-14300671D02*
X12445300Y-14272100D01*
X12473871Y-14257814D01*
X12516728Y-14257814D01*
X12545300Y-14272100D01*
X12559586Y-14300671D01*
X12559586Y-14457814D01*
X13145300Y-14143529D02*
X12888157Y-14529243D01*
X13531014Y-14157814D02*
X13559586Y-14157814D01*
X13588157Y-14172100D01*
X13602443Y-14186386D01*
X13616728Y-14214957D01*
X13631014Y-14272100D01*
X13631014Y-14343529D01*
X13616728Y-14400671D01*
X13602443Y-14429243D01*
X13588157Y-14443529D01*
X13559586Y-14457814D01*
X13531014Y-14457814D01*
X13502443Y-14443529D01*
X13488157Y-14429243D01*
X13473871Y-14400671D01*
X13459586Y-14343529D01*
X13459586Y-14272100D01*
X13473871Y-14214957D01*
X13488157Y-14186386D01*
X13502443Y-14172100D01*
X13531014Y-14157814D01*
X13759586Y-14429243D02*
X13773871Y-14443529D01*
X13759586Y-14457814D01*
X13745300Y-14443529D01*
X13759586Y-14429243D01*
X13759586Y-14457814D01*
X13959586Y-14157814D02*
X13988157Y-14157814D01*
X14016728Y-14172100D01*
X14031014Y-14186386D01*
X14045300Y-14214957D01*
X14059586Y-14272100D01*
X14059586Y-14343529D01*
X14045300Y-14400671D01*
X14031014Y-14429243D01*
X14016728Y-14443529D01*
X13988157Y-14457814D01*
X13959586Y-14457814D01*
X13931014Y-14443529D01*
X13916728Y-14429243D01*
X13902443Y-14400671D01*
X13888157Y-14343529D01*
X13888157Y-14272100D01*
X13902443Y-14214957D01*
X13916728Y-14186386D01*
X13931014Y-14172100D01*
X13959586Y-14157814D01*
X14316728Y-14257814D02*
X14316728Y-14457814D01*
X14245300Y-14143529D02*
X14173871Y-14357814D01*
X14359586Y-14357814D01*
X14531014Y-14157814D02*
X14559586Y-14157814D01*
X14588157Y-14172100D01*
X14602443Y-14186386D01*
X14616728Y-14214957D01*
X14631014Y-14272100D01*
X14631014Y-14343529D01*
X14616728Y-14400671D01*
X14602443Y-14429243D01*
X14588157Y-14443529D01*
X14559586Y-14457814D01*
X14531014Y-14457814D01*
X14502443Y-14443529D01*
X14488157Y-14429243D01*
X14473871Y-14400671D01*
X14459586Y-14343529D01*
X14459586Y-14272100D01*
X14473871Y-14214957D01*
X14488157Y-14186386D01*
X14502443Y-14172100D01*
X14531014Y-14157814D01*
X14816728Y-14157814D02*
X14845300Y-14157814D01*
X14873871Y-14172100D01*
X14888157Y-14186386D01*
X14902443Y-14214957D01*
X14916728Y-14272100D01*
X14916728Y-14343529D01*
X14902443Y-14400671D01*
X14888157Y-14429243D01*
X14873871Y-14443529D01*
X14845300Y-14457814D01*
X14816728Y-14457814D01*
X14788157Y-14443529D01*
X14773871Y-14429243D01*
X14759586Y-14400671D01*
X14745300Y-14343529D01*
X14745300Y-14272100D01*
X14759586Y-14214957D01*
X14773871Y-14186386D01*
X14788157Y-14172100D01*
X14816728Y-14157814D01*
X15031014Y-14157814D02*
X15031014Y-14214957D01*
X15145300Y-14157814D02*
X15145300Y-14214957D01*
X15588157Y-14572100D02*
X15573871Y-14557814D01*
X15545300Y-14514957D01*
X15531014Y-14486386D01*
X15516728Y-14443529D01*
X15502443Y-14372100D01*
X15502443Y-14314957D01*
X15516728Y-14243529D01*
X15531014Y-14200671D01*
X15545300Y-14172100D01*
X15573871Y-14129243D01*
X15588157Y-14114957D01*
X15745300Y-14286386D02*
X15716728Y-14272100D01*
X15702443Y-14257814D01*
X15688157Y-14229243D01*
X15688157Y-14214957D01*
X15702443Y-14186386D01*
X15716728Y-14172100D01*
X15745300Y-14157814D01*
X15802443Y-14157814D01*
X15831014Y-14172100D01*
X15845300Y-14186386D01*
X15859586Y-14214957D01*
X15859586Y-14229243D01*
X15845300Y-14257814D01*
X15831014Y-14272100D01*
X15802443Y-14286386D01*
X15745300Y-14286386D01*
X15716728Y-14300671D01*
X15702443Y-14314957D01*
X15688157Y-14343529D01*
X15688157Y-14400671D01*
X15702443Y-14429243D01*
X15716728Y-14443529D01*
X15745300Y-14457814D01*
X15802443Y-14457814D01*
X15831014Y-14443529D01*
X15845300Y-14429243D01*
X15859586Y-14400671D01*
X15859586Y-14343529D01*
X15845300Y-14314957D01*
X15831014Y-14300671D01*
X15802443Y-14286386D01*
X16116728Y-14157814D02*
X16059586Y-14157814D01*
X16031014Y-14172100D01*
X16016728Y-14186386D01*
X15988157Y-14229243D01*
X15973871Y-14286386D01*
X15973871Y-14400671D01*
X15988157Y-14429243D01*
X16002443Y-14443529D01*
X16031014Y-14457814D01*
X16088157Y-14457814D01*
X16116728Y-14443529D01*
X16131014Y-14429243D01*
X16145300Y-14400671D01*
X16145300Y-14329243D01*
X16131014Y-14300671D01*
X16116728Y-14286386D01*
X16088157Y-14272100D01*
X16031014Y-14272100D01*
X16002443Y-14286386D01*
X15988157Y-14300671D01*
X15973871Y-14329243D01*
X16502443Y-14457814D02*
X16502443Y-14157814D01*
X16631014Y-14457814D02*
X16631014Y-14300671D01*
X16616728Y-14272100D01*
X16588157Y-14257814D01*
X16545300Y-14257814D01*
X16516728Y-14272100D01*
X16502443Y-14286386D01*
X16816728Y-14457814D02*
X16788157Y-14443529D01*
X16773871Y-14429243D01*
X16759586Y-14400671D01*
X16759586Y-14314957D01*
X16773871Y-14286386D01*
X16788157Y-14272100D01*
X16816728Y-14257814D01*
X16859586Y-14257814D01*
X16888157Y-14272100D01*
X16902443Y-14286386D01*
X16916728Y-14314957D01*
X16916728Y-14400671D01*
X16902443Y-14429243D01*
X16888157Y-14443529D01*
X16859586Y-14457814D01*
X16816728Y-14457814D01*
X17088157Y-14457814D02*
X17059586Y-14443529D01*
X17045300Y-14414957D01*
X17045300Y-14157814D01*
X17316728Y-14443529D02*
X17288157Y-14457814D01*
X17231014Y-14457814D01*
X17202443Y-14443529D01*
X17188157Y-14414957D01*
X17188157Y-14300671D01*
X17202443Y-14272100D01*
X17231014Y-14257814D01*
X17288157Y-14257814D01*
X17316728Y-14272100D01*
X17331014Y-14300671D01*
X17331014Y-14329243D01*
X17188157Y-14357814D01*
X17445300Y-14443529D02*
X17473871Y-14457814D01*
X17531014Y-14457814D01*
X17559586Y-14443529D01*
X17573871Y-14414957D01*
X17573871Y-14400671D01*
X17559586Y-14372100D01*
X17531014Y-14357814D01*
X17488157Y-14357814D01*
X17459586Y-14343529D01*
X17445300Y-14314957D01*
X17445300Y-14300671D01*
X17459586Y-14272100D01*
X17488157Y-14257814D01*
X17531014Y-14257814D01*
X17559586Y-14272100D01*
X17673871Y-14572100D02*
X17688157Y-14557814D01*
X17716728Y-14514957D01*
X17731014Y-14486386D01*
X17745300Y-14443529D01*
X17759586Y-14372100D01*
X17759586Y-14314957D01*
X17745300Y-14243529D01*
X17731014Y-14200671D01*
X17716728Y-14172100D01*
X17688157Y-14129243D01*
X17673871Y-14114957D01*
X10279300Y-14769100D02*
X10330300Y-14718100D01*
X10279300Y-14667100D01*
X10228300Y-14718100D01*
X10279300Y-14769100D01*
X10773871Y-14853814D02*
X10602443Y-14853814D01*
X10688157Y-14853814D02*
X10688157Y-14553814D01*
X10659586Y-14596671D01*
X10631014Y-14625243D01*
X10602443Y-14639529D01*
X10902443Y-14825243D02*
X10916728Y-14839529D01*
X10902443Y-14853814D01*
X10888157Y-14839529D01*
X10902443Y-14825243D01*
X10902443Y-14853814D01*
X11102443Y-14553814D02*
X11131014Y-14553814D01*
X11159586Y-14568100D01*
X11173871Y-14582386D01*
X11188157Y-14610957D01*
X11202443Y-14668100D01*
X11202443Y-14739529D01*
X11188157Y-14796671D01*
X11173871Y-14825243D01*
X11159586Y-14839529D01*
X11131014Y-14853814D01*
X11102443Y-14853814D01*
X11073871Y-14839529D01*
X11059586Y-14825243D01*
X11045300Y-14796671D01*
X11031014Y-14739529D01*
X11031014Y-14668100D01*
X11045300Y-14610957D01*
X11059586Y-14582386D01*
X11073871Y-14568100D01*
X11102443Y-14553814D01*
X11316728Y-14582386D02*
X11331014Y-14568100D01*
X11359586Y-14553814D01*
X11431014Y-14553814D01*
X11459586Y-14568100D01*
X11473871Y-14582386D01*
X11488157Y-14610957D01*
X11488157Y-14639529D01*
X11473871Y-14682386D01*
X11302443Y-14853814D01*
X11488157Y-14853814D01*
X11673871Y-14553814D02*
X11702443Y-14553814D01*
X11731014Y-14568100D01*
X11745300Y-14582386D01*
X11759586Y-14610957D01*
X11773871Y-14668100D01*
X11773871Y-14739529D01*
X11759586Y-14796671D01*
X11745300Y-14825243D01*
X11731014Y-14839529D01*
X11702443Y-14853814D01*
X11673871Y-14853814D01*
X11645300Y-14839529D01*
X11631014Y-14825243D01*
X11616728Y-14796671D01*
X11602443Y-14739529D01*
X11602443Y-14668100D01*
X11616728Y-14610957D01*
X11631014Y-14582386D01*
X11645300Y-14568100D01*
X11673871Y-14553814D01*
X11902443Y-14853814D02*
X11902443Y-14653814D01*
X11902443Y-14682386D02*
X11916728Y-14668100D01*
X11945300Y-14653814D01*
X11988157Y-14653814D01*
X12016728Y-14668100D01*
X12031014Y-14696671D01*
X12031014Y-14853814D01*
X12031014Y-14696671D02*
X12045300Y-14668100D01*
X12073871Y-14653814D01*
X12116728Y-14653814D01*
X12145300Y-14668100D01*
X12159586Y-14696671D01*
X12159586Y-14853814D01*
X12302443Y-14853814D02*
X12302443Y-14653814D01*
X12302443Y-14682386D02*
X12316728Y-14668100D01*
X12345300Y-14653814D01*
X12388157Y-14653814D01*
X12416728Y-14668100D01*
X12431014Y-14696671D01*
X12431014Y-14853814D01*
X12431014Y-14696671D02*
X12445300Y-14668100D01*
X12473871Y-14653814D01*
X12516728Y-14653814D01*
X12545300Y-14668100D01*
X12559586Y-14696671D01*
X12559586Y-14853814D01*
X13145300Y-14539529D02*
X12888157Y-14925243D01*
X13531014Y-14553814D02*
X13559586Y-14553814D01*
X13588157Y-14568100D01*
X13602443Y-14582386D01*
X13616728Y-14610957D01*
X13631014Y-14668100D01*
X13631014Y-14739529D01*
X13616728Y-14796671D01*
X13602443Y-14825243D01*
X13588157Y-14839529D01*
X13559586Y-14853814D01*
X13531014Y-14853814D01*
X13502443Y-14839529D01*
X13488157Y-14825243D01*
X13473871Y-14796671D01*
X13459586Y-14739529D01*
X13459586Y-14668100D01*
X13473871Y-14610957D01*
X13488157Y-14582386D01*
X13502443Y-14568100D01*
X13531014Y-14553814D01*
X13759586Y-14825243D02*
X13773871Y-14839529D01*
X13759586Y-14853814D01*
X13745300Y-14839529D01*
X13759586Y-14825243D01*
X13759586Y-14853814D01*
X13959586Y-14553814D02*
X13988157Y-14553814D01*
X14016728Y-14568100D01*
X14031014Y-14582386D01*
X14045300Y-14610957D01*
X14059586Y-14668100D01*
X14059586Y-14739529D01*
X14045300Y-14796671D01*
X14031014Y-14825243D01*
X14016728Y-14839529D01*
X13988157Y-14853814D01*
X13959586Y-14853814D01*
X13931014Y-14839529D01*
X13916728Y-14825243D01*
X13902443Y-14796671D01*
X13888157Y-14739529D01*
X13888157Y-14668100D01*
X13902443Y-14610957D01*
X13916728Y-14582386D01*
X13931014Y-14568100D01*
X13959586Y-14553814D01*
X14316728Y-14653814D02*
X14316728Y-14853814D01*
X14245300Y-14539529D02*
X14173871Y-14753814D01*
X14359586Y-14753814D01*
X14531014Y-14553814D02*
X14559586Y-14553814D01*
X14588157Y-14568100D01*
X14602443Y-14582386D01*
X14616728Y-14610957D01*
X14631014Y-14668100D01*
X14631014Y-14739529D01*
X14616728Y-14796671D01*
X14602443Y-14825243D01*
X14588157Y-14839529D01*
X14559586Y-14853814D01*
X14531014Y-14853814D01*
X14502443Y-14839529D01*
X14488157Y-14825243D01*
X14473871Y-14796671D01*
X14459586Y-14739529D01*
X14459586Y-14668100D01*
X14473871Y-14610957D01*
X14488157Y-14582386D01*
X14502443Y-14568100D01*
X14531014Y-14553814D01*
X14745300Y-14582386D02*
X14759586Y-14568100D01*
X14788157Y-14553814D01*
X14859586Y-14553814D01*
X14888157Y-14568100D01*
X14902443Y-14582386D01*
X14916728Y-14610957D01*
X14916728Y-14639529D01*
X14902443Y-14682386D01*
X14731014Y-14853814D01*
X14916728Y-14853814D01*
X15031014Y-14553814D02*
X15031014Y-14610957D01*
X15145300Y-14553814D02*
X15145300Y-14610957D01*
X15588157Y-14968100D02*
X15573871Y-14953814D01*
X15545300Y-14910957D01*
X15531014Y-14882386D01*
X15516728Y-14839529D01*
X15502443Y-14768100D01*
X15502443Y-14710957D01*
X15516728Y-14639529D01*
X15531014Y-14596671D01*
X15545300Y-14568100D01*
X15573871Y-14525243D01*
X15588157Y-14510957D01*
X15859586Y-14853814D02*
X15688157Y-14853814D01*
X15773871Y-14853814D02*
X15773871Y-14553814D01*
X15745300Y-14596671D01*
X15716728Y-14625243D01*
X15688157Y-14639529D01*
X15973871Y-14582386D02*
X15988157Y-14568100D01*
X16016728Y-14553814D01*
X16088157Y-14553814D01*
X16116728Y-14568100D01*
X16131014Y-14582386D01*
X16145300Y-14610957D01*
X16145300Y-14639529D01*
X16131014Y-14682386D01*
X15959586Y-14853814D01*
X16145300Y-14853814D01*
X16502443Y-14853814D02*
X16502443Y-14553814D01*
X16631014Y-14853814D02*
X16631014Y-14696671D01*
X16616728Y-14668100D01*
X16588157Y-14653814D01*
X16545300Y-14653814D01*
X16516728Y-14668100D01*
X16502443Y-14682386D01*
X16816728Y-14853814D02*
X16788157Y-14839529D01*
X16773871Y-14825243D01*
X16759586Y-14796671D01*
X16759586Y-14710957D01*
X16773871Y-14682386D01*
X16788157Y-14668100D01*
X16816728Y-14653814D01*
X16859586Y-14653814D01*
X16888157Y-14668100D01*
X16902443Y-14682386D01*
X16916728Y-14710957D01*
X16916728Y-14796671D01*
X16902443Y-14825243D01*
X16888157Y-14839529D01*
X16859586Y-14853814D01*
X16816728Y-14853814D01*
X17088157Y-14853814D02*
X17059586Y-14839529D01*
X17045300Y-14810957D01*
X17045300Y-14553814D01*
X17316728Y-14839529D02*
X17288157Y-14853814D01*
X17231014Y-14853814D01*
X17202443Y-14839529D01*
X17188157Y-14810957D01*
X17188157Y-14696671D01*
X17202443Y-14668100D01*
X17231014Y-14653814D01*
X17288157Y-14653814D01*
X17316728Y-14668100D01*
X17331014Y-14696671D01*
X17331014Y-14725243D01*
X17188157Y-14753814D01*
X17445300Y-14839529D02*
X17473871Y-14853814D01*
X17531014Y-14853814D01*
X17559586Y-14839529D01*
X17573871Y-14810957D01*
X17573871Y-14796671D01*
X17559586Y-14768100D01*
X17531014Y-14753814D01*
X17488157Y-14753814D01*
X17459586Y-14739529D01*
X17445300Y-14710957D01*
X17445300Y-14696671D01*
X17459586Y-14668100D01*
X17488157Y-14653814D01*
X17531014Y-14653814D01*
X17559586Y-14668100D01*
X17673871Y-14968100D02*
X17688157Y-14953814D01*
X17716728Y-14910957D01*
X17731014Y-14882386D01*
X17745300Y-14839529D01*
X17759586Y-14768100D01*
X17759586Y-14710957D01*
X17745300Y-14639529D01*
X17731014Y-14596671D01*
X17716728Y-14568100D01*
X17688157Y-14525243D01*
X17673871Y-14510957D01*
X10025500Y-14961700D02*
X10330300Y-15266500D01*
X10330300Y-14961700D02*
X10025500Y-15266500D01*
X10330300Y-15114100D02*
G75*
G03*
X10330300Y-15114100I-152400J0D01*
G01*
X10588157Y-14949814D02*
X10773871Y-14949814D01*
X10673871Y-15064100D01*
X10716728Y-15064100D01*
X10745300Y-15078386D01*
X10759586Y-15092671D01*
X10773871Y-15121243D01*
X10773871Y-15192671D01*
X10759586Y-15221243D01*
X10745300Y-15235529D01*
X10716728Y-15249814D01*
X10631014Y-15249814D01*
X10602443Y-15235529D01*
X10588157Y-15221243D01*
X10902443Y-15221243D02*
X10916728Y-15235529D01*
X10902443Y-15249814D01*
X10888157Y-15235529D01*
X10902443Y-15221243D01*
X10902443Y-15249814D01*
X11102443Y-14949814D02*
X11131014Y-14949814D01*
X11159586Y-14964100D01*
X11173871Y-14978386D01*
X11188157Y-15006957D01*
X11202443Y-15064100D01*
X11202443Y-15135529D01*
X11188157Y-15192671D01*
X11173871Y-15221243D01*
X11159586Y-15235529D01*
X11131014Y-15249814D01*
X11102443Y-15249814D01*
X11073871Y-15235529D01*
X11059586Y-15221243D01*
X11045300Y-15192671D01*
X11031014Y-15135529D01*
X11031014Y-15064100D01*
X11045300Y-15006957D01*
X11059586Y-14978386D01*
X11073871Y-14964100D01*
X11102443Y-14949814D01*
X11459586Y-15049814D02*
X11459586Y-15249814D01*
X11388157Y-14935529D02*
X11316728Y-15149814D01*
X11502443Y-15149814D01*
X11659586Y-15078386D02*
X11631014Y-15064100D01*
X11616728Y-15049814D01*
X11602443Y-15021243D01*
X11602443Y-15006957D01*
X11616728Y-14978386D01*
X11631014Y-14964100D01*
X11659586Y-14949814D01*
X11716728Y-14949814D01*
X11745300Y-14964100D01*
X11759586Y-14978386D01*
X11773871Y-15006957D01*
X11773871Y-15021243D01*
X11759586Y-15049814D01*
X11745300Y-15064100D01*
X11716728Y-15078386D01*
X11659586Y-15078386D01*
X11631014Y-15092671D01*
X11616728Y-15106957D01*
X11602443Y-15135529D01*
X11602443Y-15192671D01*
X11616728Y-15221243D01*
X11631014Y-15235529D01*
X11659586Y-15249814D01*
X11716728Y-15249814D01*
X11745300Y-15235529D01*
X11759586Y-15221243D01*
X11773871Y-15192671D01*
X11773871Y-15135529D01*
X11759586Y-15106957D01*
X11745300Y-15092671D01*
X11716728Y-15078386D01*
X11902443Y-15249814D02*
X11902443Y-15049814D01*
X11902443Y-15078386D02*
X11916728Y-15064100D01*
X11945300Y-15049814D01*
X11988157Y-15049814D01*
X12016728Y-15064100D01*
X12031014Y-15092671D01*
X12031014Y-15249814D01*
X12031014Y-15092671D02*
X12045300Y-15064100D01*
X12073871Y-15049814D01*
X12116728Y-15049814D01*
X12145300Y-15064100D01*
X12159586Y-15092671D01*
X12159586Y-15249814D01*
X12302443Y-15249814D02*
X12302443Y-15049814D01*
X12302443Y-15078386D02*
X12316728Y-15064100D01*
X12345300Y-15049814D01*
X12388157Y-15049814D01*
X12416728Y-15064100D01*
X12431014Y-15092671D01*
X12431014Y-15249814D01*
X12431014Y-15092671D02*
X12445300Y-15064100D01*
X12473871Y-15049814D01*
X12516728Y-15049814D01*
X12545300Y-15064100D01*
X12559586Y-15092671D01*
X12559586Y-15249814D01*
X13145300Y-14935529D02*
X12888157Y-15321243D01*
X13531014Y-14949814D02*
X13559586Y-14949814D01*
X13588157Y-14964100D01*
X13602443Y-14978386D01*
X13616728Y-15006957D01*
X13631014Y-15064100D01*
X13631014Y-15135529D01*
X13616728Y-15192671D01*
X13602443Y-15221243D01*
X13588157Y-15235529D01*
X13559586Y-15249814D01*
X13531014Y-15249814D01*
X13502443Y-15235529D01*
X13488157Y-15221243D01*
X13473871Y-15192671D01*
X13459586Y-15135529D01*
X13459586Y-15064100D01*
X13473871Y-15006957D01*
X13488157Y-14978386D01*
X13502443Y-14964100D01*
X13531014Y-14949814D01*
X13759586Y-15221243D02*
X13773871Y-15235529D01*
X13759586Y-15249814D01*
X13745300Y-15235529D01*
X13759586Y-15221243D01*
X13759586Y-15249814D01*
X14059586Y-15249814D02*
X13888157Y-15249814D01*
X13973871Y-15249814D02*
X13973871Y-14949814D01*
X13945300Y-14992671D01*
X13916728Y-15021243D01*
X13888157Y-15035529D01*
X14173871Y-14978386D02*
X14188157Y-14964100D01*
X14216728Y-14949814D01*
X14288157Y-14949814D01*
X14316728Y-14964100D01*
X14331014Y-14978386D01*
X14345300Y-15006957D01*
X14345300Y-15035529D01*
X14331014Y-15078386D01*
X14159586Y-15249814D01*
X14345300Y-15249814D01*
X14531014Y-14949814D02*
X14559586Y-14949814D01*
X14588157Y-14964100D01*
X14602443Y-14978386D01*
X14616728Y-15006957D01*
X14631014Y-15064100D01*
X14631014Y-15135529D01*
X14616728Y-15192671D01*
X14602443Y-15221243D01*
X14588157Y-15235529D01*
X14559586Y-15249814D01*
X14531014Y-15249814D01*
X14502443Y-15235529D01*
X14488157Y-15221243D01*
X14473871Y-15192671D01*
X14459586Y-15135529D01*
X14459586Y-15064100D01*
X14473871Y-15006957D01*
X14488157Y-14978386D01*
X14502443Y-14964100D01*
X14531014Y-14949814D01*
X14816728Y-14949814D02*
X14845300Y-14949814D01*
X14873871Y-14964100D01*
X14888157Y-14978386D01*
X14902443Y-15006957D01*
X14916728Y-15064100D01*
X14916728Y-15135529D01*
X14902443Y-15192671D01*
X14888157Y-15221243D01*
X14873871Y-15235529D01*
X14845300Y-15249814D01*
X14816728Y-15249814D01*
X14788157Y-15235529D01*
X14773871Y-15221243D01*
X14759586Y-15192671D01*
X14745300Y-15135529D01*
X14745300Y-15064100D01*
X14759586Y-15006957D01*
X14773871Y-14978386D01*
X14788157Y-14964100D01*
X14816728Y-14949814D01*
X15031014Y-14949814D02*
X15031014Y-15006957D01*
X15145300Y-14949814D02*
X15145300Y-15006957D01*
X15588157Y-15364100D02*
X15573871Y-15349814D01*
X15545300Y-15306957D01*
X15531014Y-15278386D01*
X15516728Y-15235529D01*
X15502443Y-15164100D01*
X15502443Y-15106957D01*
X15516728Y-15035529D01*
X15531014Y-14992671D01*
X15545300Y-14964100D01*
X15573871Y-14921243D01*
X15588157Y-14906957D01*
X15831014Y-15049814D02*
X15831014Y-15249814D01*
X15759586Y-14935529D02*
X15688157Y-15149814D01*
X15873871Y-15149814D01*
X16216728Y-15249814D02*
X16216728Y-14949814D01*
X16345300Y-15249814D02*
X16345300Y-15092671D01*
X16331014Y-15064100D01*
X16302443Y-15049814D01*
X16259586Y-15049814D01*
X16231014Y-15064100D01*
X16216728Y-15078386D01*
X16531014Y-15249814D02*
X16502443Y-15235529D01*
X16488157Y-15221243D01*
X16473871Y-15192671D01*
X16473871Y-15106957D01*
X16488157Y-15078386D01*
X16502443Y-15064100D01*
X16531014Y-15049814D01*
X16573871Y-15049814D01*
X16602443Y-15064100D01*
X16616728Y-15078386D01*
X16631014Y-15106957D01*
X16631014Y-15192671D01*
X16616728Y-15221243D01*
X16602443Y-15235529D01*
X16573871Y-15249814D01*
X16531014Y-15249814D01*
X16802443Y-15249814D02*
X16773871Y-15235529D01*
X16759586Y-15206957D01*
X16759586Y-14949814D01*
X17031014Y-15235529D02*
X17002443Y-15249814D01*
X16945300Y-15249814D01*
X16916728Y-15235529D01*
X16902443Y-15206957D01*
X16902443Y-15092671D01*
X16916728Y-15064100D01*
X16945300Y-15049814D01*
X17002443Y-15049814D01*
X17031014Y-15064100D01*
X17045300Y-15092671D01*
X17045300Y-15121243D01*
X16902443Y-15149814D01*
X17159586Y-15235529D02*
X17188157Y-15249814D01*
X17245300Y-15249814D01*
X17273871Y-15235529D01*
X17288157Y-15206957D01*
X17288157Y-15192671D01*
X17273871Y-15164100D01*
X17245300Y-15149814D01*
X17202443Y-15149814D01*
X17173871Y-15135529D01*
X17159586Y-15106957D01*
X17159586Y-15092671D01*
X17173871Y-15064100D01*
X17202443Y-15049814D01*
X17245300Y-15049814D01*
X17273871Y-15064100D01*
X17388157Y-15364100D02*
X17402443Y-15349814D01*
X17431014Y-15306957D01*
X17445300Y-15278386D01*
X17459586Y-15235529D01*
X17473871Y-15164100D01*
X17473871Y-15106957D01*
X17459586Y-15035529D01*
X17445300Y-14992671D01*
X17431014Y-14964100D01*
X17402443Y-14921243D01*
X17388157Y-14906957D01*
M02*
