G04 #@! TF.GenerationSoftware,KiCad,Pcbnew,5.99.0+really5.1.10+dfsg1-1*
G04 #@! TF.CreationDate,2021-11-08T11:55:23-06:00*
G04 #@! TF.ProjectId,dell-fan,64656c6c-2d66-4616-9e2e-6b696361645f,rev?*
G04 #@! TF.SameCoordinates,Original*
G04 #@! TF.FileFunction,Legend,Bot*
G04 #@! TF.FilePolarity,Positive*
%FSLAX46Y46*%
G04 Gerber Fmt 4.6, Leading zero omitted, Abs format (unit mm)*
G04 Created by KiCad (PCBNEW 5.99.0+really5.1.10+dfsg1-1) date 2021-11-08 11:55:23*
%MOMM*%
%LPD*%
G01*
G04 APERTURE LIST*
%ADD10C,2.000000*%
%ADD11C,1.600000*%
%ADD12R,1.700000X1.700000*%
%ADD13O,1.700000X1.700000*%
%ADD14O,1.350000X1.350000*%
%ADD15R,1.350000X1.350000*%
%ADD16R,1.800000X1.800000*%
%ADD17O,1.800000X1.800000*%
%ADD18C,1.727200*%
%ADD19O,1.727200X1.727200*%
%ADD20O,1.727200X2.032000*%
%ADD21C,4.064000*%
G04 APERTURE END LIST*
%LPC*%
D10*
X111760000Y-92710000D03*
X111760000Y-95250000D03*
X111760000Y-97790000D03*
X111760000Y-100330000D03*
X111760000Y-102870000D03*
X111760000Y-105410000D03*
X109220000Y-105410000D03*
X109220000Y-102870000D03*
X109220000Y-100330000D03*
X109220000Y-97790000D03*
X109220000Y-95250000D03*
X109220000Y-92710000D03*
D11*
X175260000Y-81280000D03*
X175260000Y-86360000D03*
D12*
X115570000Y-91440000D03*
D13*
X191770000Y-97790000D03*
X191770000Y-95250000D03*
X191770000Y-92710000D03*
D12*
X191770000Y-90170000D03*
D13*
X179070000Y-97790000D03*
X179070000Y-95250000D03*
X179070000Y-92710000D03*
D12*
X179070000Y-90170000D03*
D13*
X166370000Y-97790000D03*
X166370000Y-95250000D03*
X166370000Y-92710000D03*
D12*
X166370000Y-90170000D03*
D13*
X153670000Y-97790000D03*
X153670000Y-95250000D03*
X153670000Y-92710000D03*
D12*
X153670000Y-90170000D03*
D13*
X140970000Y-97790000D03*
X140970000Y-95250000D03*
X140970000Y-92710000D03*
D12*
X140970000Y-90170000D03*
D13*
X128270000Y-97790000D03*
X128270000Y-95250000D03*
X128270000Y-92710000D03*
D12*
X128270000Y-90170000D03*
D14*
X186150000Y-111950000D03*
X184150000Y-111950000D03*
X186150000Y-109950000D03*
X184150000Y-109950000D03*
X186150000Y-107950000D03*
D15*
X184150000Y-107950000D03*
D14*
X173450000Y-111950000D03*
X171450000Y-111950000D03*
X173450000Y-109950000D03*
X171450000Y-109950000D03*
X173450000Y-107950000D03*
D15*
X171450000Y-107950000D03*
D14*
X160750000Y-111950000D03*
X158750000Y-111950000D03*
X160750000Y-109950000D03*
X158750000Y-109950000D03*
X160750000Y-107950000D03*
D15*
X158750000Y-107950000D03*
D14*
X148050000Y-111950000D03*
X146050000Y-111950000D03*
X148050000Y-109950000D03*
X146050000Y-109950000D03*
X148050000Y-107950000D03*
D15*
X146050000Y-107950000D03*
D13*
X191770000Y-113030000D03*
X191770000Y-110490000D03*
X191770000Y-107950000D03*
D12*
X191770000Y-105410000D03*
D13*
X179070000Y-113030000D03*
X179070000Y-110490000D03*
X179070000Y-107950000D03*
D12*
X179070000Y-105410000D03*
D13*
X166370000Y-113030000D03*
X166370000Y-110490000D03*
X166370000Y-107950000D03*
D12*
X166370000Y-105410000D03*
D13*
X153670000Y-113030000D03*
X153670000Y-110490000D03*
X153670000Y-107950000D03*
D12*
X153670000Y-105410000D03*
D13*
X140970000Y-113030000D03*
X140970000Y-110490000D03*
X140970000Y-107950000D03*
D12*
X140970000Y-105410000D03*
D11*
X182880000Y-83820000D03*
X182880000Y-78740000D03*
X187960000Y-81280000D03*
X187960000Y-86360000D03*
X170180000Y-83820000D03*
X170180000Y-78740000D03*
X162560000Y-81280000D03*
X162560000Y-86360000D03*
X157480000Y-83820000D03*
X157480000Y-78740000D03*
X149860000Y-81280000D03*
X149860000Y-86360000D03*
X144780000Y-83820000D03*
X144780000Y-78740000D03*
X137160000Y-81280000D03*
X137160000Y-86360000D03*
X132080000Y-83820000D03*
X132080000Y-78740000D03*
D14*
X135350000Y-111760000D03*
X133350000Y-111760000D03*
X135350000Y-109760000D03*
X133350000Y-109760000D03*
X135350000Y-107760000D03*
D15*
X133350000Y-107760000D03*
D13*
X128270000Y-113030000D03*
X128270000Y-110490000D03*
X128270000Y-107950000D03*
D12*
X128270000Y-105410000D03*
D14*
X186150000Y-95440000D03*
X184150000Y-95440000D03*
X186150000Y-93440000D03*
X184150000Y-93440000D03*
X186150000Y-91440000D03*
D15*
X184150000Y-91440000D03*
D14*
X173450000Y-95440000D03*
X171450000Y-95440000D03*
X173450000Y-93440000D03*
X171450000Y-93440000D03*
X173450000Y-91440000D03*
D15*
X171450000Y-91440000D03*
D14*
X160750000Y-95440000D03*
X158750000Y-95440000D03*
X160750000Y-93440000D03*
X158750000Y-93440000D03*
X160750000Y-91440000D03*
D15*
X158750000Y-91440000D03*
D14*
X148050000Y-95440000D03*
X146050000Y-95440000D03*
X148050000Y-93440000D03*
X146050000Y-93440000D03*
X148050000Y-91440000D03*
D15*
X146050000Y-91440000D03*
D14*
X135350000Y-95440000D03*
X133350000Y-95440000D03*
X135350000Y-93440000D03*
X133350000Y-93440000D03*
X135350000Y-91440000D03*
D15*
X133350000Y-91440000D03*
D16*
X115570000Y-106680000D03*
D17*
X115570000Y-99060000D03*
D11*
X123190000Y-81280000D03*
X123190000Y-86360000D03*
D14*
X122650000Y-111950000D03*
X120650000Y-111950000D03*
X122650000Y-109950000D03*
X120650000Y-109950000D03*
X122650000Y-107950000D03*
D15*
X120650000Y-107950000D03*
D14*
X122650000Y-95440000D03*
X120650000Y-95440000D03*
X122650000Y-93440000D03*
X120650000Y-93440000D03*
X122650000Y-91440000D03*
D15*
X120650000Y-91440000D03*
D11*
X118110000Y-83820000D03*
X118110000Y-78740000D03*
D18*
X197358000Y-114046000D03*
D19*
X199898000Y-114046000D03*
X197358000Y-111506000D03*
X199898000Y-111506000D03*
X197358000Y-108966000D03*
X199898000Y-108966000D03*
X197358000Y-106426000D03*
X199898000Y-106426000D03*
X197358000Y-103886000D03*
X199898000Y-103886000D03*
X197358000Y-101346000D03*
X199898000Y-101346000D03*
X197358000Y-98806000D03*
X199898000Y-98806000D03*
X197358000Y-96266000D03*
X199898000Y-96266000D03*
X197358000Y-93726000D03*
X199898000Y-93726000D03*
X197358000Y-91186000D03*
X199898000Y-91186000D03*
X197358000Y-88646000D03*
X199898000Y-88646000D03*
X197358000Y-86106000D03*
X199898000Y-86106000D03*
X197358000Y-83566000D03*
X199898000Y-83566000D03*
X197358000Y-81026000D03*
X199898000Y-81026000D03*
X197358000Y-78486000D03*
X199898000Y-78486000D03*
X197358000Y-75946000D03*
X199898000Y-75946000D03*
X197358000Y-73406000D03*
X199898000Y-73406000D03*
X197358000Y-70866000D03*
X199898000Y-70866000D03*
D20*
X131318000Y-119126000D03*
X133858000Y-119126000D03*
X136398000Y-119126000D03*
X138938000Y-119126000D03*
X141478000Y-119126000D03*
X144018000Y-119126000D03*
X146558000Y-119126000D03*
X149098000Y-119126000D03*
X154178000Y-119126000D03*
X156718000Y-119126000D03*
X159258000Y-119126000D03*
X161798000Y-119126000D03*
X164338000Y-119126000D03*
X166878000Y-119126000D03*
X169418000Y-119126000D03*
X171958000Y-119126000D03*
X177038000Y-119126000D03*
X179578000Y-119126000D03*
X182118000Y-119126000D03*
X184658000Y-119126000D03*
X187198000Y-119126000D03*
X189738000Y-119126000D03*
X192278000Y-119126000D03*
X194818000Y-119126000D03*
X122174000Y-70866000D03*
X124714000Y-70866000D03*
X127254000Y-70866000D03*
X129794000Y-70866000D03*
X132334000Y-70866000D03*
X134874000Y-70866000D03*
X137414000Y-70866000D03*
X139954000Y-70866000D03*
X142494000Y-70866000D03*
X145034000Y-70866000D03*
X149098000Y-70866000D03*
X151638000Y-70866000D03*
X154178000Y-70866000D03*
X156718000Y-70866000D03*
X159258000Y-70866000D03*
X161798000Y-70866000D03*
X164338000Y-70866000D03*
X166878000Y-70866000D03*
X171958000Y-70866000D03*
X174498000Y-70866000D03*
X177038000Y-70866000D03*
X179578000Y-70866000D03*
X182118000Y-70866000D03*
X184658000Y-70866000D03*
X187198000Y-70866000D03*
X189738000Y-70866000D03*
D21*
X117348000Y-119126000D03*
X199898000Y-119126000D03*
X118618000Y-70866000D03*
X193548000Y-70866000D03*
M02*
