G04 #@! TF.GenerationSoftware,KiCad,Pcbnew,5.99.0+really5.1.10+dfsg1-1*
G04 #@! TF.CreationDate,2021-11-08T11:55:23-06:00*
G04 #@! TF.ProjectId,dell-fan,64656c6c-2d66-4616-9e2e-6b696361645f,rev?*
G04 #@! TF.SameCoordinates,Original*
G04 #@! TF.FileFunction,Legend,Top*
G04 #@! TF.FilePolarity,Positive*
%FSLAX46Y46*%
G04 Gerber Fmt 4.6, Leading zero omitted, Abs format (unit mm)*
G04 Created by KiCad (PCBNEW 5.99.0+really5.1.10+dfsg1-1) date 2021-11-08 11:55:23*
%MOMM*%
%LPD*%
G01*
G04 APERTURE LIST*
%ADD10C,0.150000*%
%ADD11C,0.100000*%
%ADD12C,0.120000*%
%ADD13C,2.000000*%
%ADD14C,1.600000*%
%ADD15R,1.700000X1.700000*%
%ADD16O,1.700000X1.700000*%
%ADD17O,1.350000X1.350000*%
%ADD18R,1.350000X1.350000*%
%ADD19R,1.800000X1.800000*%
%ADD20O,1.800000X1.800000*%
%ADD21C,1.727200*%
%ADD22O,1.727200X1.727200*%
%ADD23O,1.727200X2.032000*%
%ADD24C,4.064000*%
G04 APERTURE END LIST*
D10*
X131770380Y-116300285D02*
X131770380Y-116871714D01*
X131770380Y-116586000D02*
X130770380Y-116586000D01*
X130913238Y-116681238D01*
X131008476Y-116776476D01*
X131056095Y-116871714D01*
D11*
X107820000Y-91660000D02*
X108180000Y-91300000D01*
X113120000Y-106810000D02*
X113120000Y-106410000D01*
X113120000Y-106810000D02*
X112720000Y-106810000D01*
X107820000Y-106810000D02*
X108220000Y-106810000D01*
X107820000Y-106810000D02*
X107820000Y-106410000D01*
X107820000Y-91660000D02*
X107820000Y-92110000D01*
X108180000Y-91300000D02*
X108610000Y-91300000D01*
X113120000Y-91310000D02*
X113120000Y-91710000D01*
X113120000Y-91310000D02*
X112720000Y-91310000D01*
D12*
X173870000Y-88130000D02*
X173870000Y-79510000D01*
X176650000Y-88130000D02*
X176650000Y-79510000D01*
X173870000Y-88130000D02*
X176650000Y-88130000D01*
X173870000Y-79510000D02*
X176650000Y-79510000D01*
X114240000Y-90110000D02*
X115570000Y-90110000D01*
X114240000Y-91440000D02*
X114240000Y-90110000D01*
X114240000Y-92710000D02*
X116900000Y-92710000D01*
X116900000Y-92710000D02*
X116900000Y-92770000D01*
X114240000Y-92710000D02*
X114240000Y-92770000D01*
X114240000Y-92770000D02*
X116900000Y-92770000D01*
X190440000Y-91440000D02*
X193100000Y-91440000D01*
X190440000Y-91440000D02*
X190440000Y-99120000D01*
X190440000Y-99120000D02*
X193100000Y-99120000D01*
X193100000Y-91440000D02*
X193100000Y-99120000D01*
X193100000Y-88840000D02*
X193100000Y-90170000D01*
X191770000Y-88840000D02*
X193100000Y-88840000D01*
X177740000Y-91440000D02*
X180400000Y-91440000D01*
X177740000Y-91440000D02*
X177740000Y-99120000D01*
X177740000Y-99120000D02*
X180400000Y-99120000D01*
X180400000Y-91440000D02*
X180400000Y-99120000D01*
X180400000Y-88840000D02*
X180400000Y-90170000D01*
X179070000Y-88840000D02*
X180400000Y-88840000D01*
X165040000Y-91440000D02*
X167700000Y-91440000D01*
X165040000Y-91440000D02*
X165040000Y-99120000D01*
X165040000Y-99120000D02*
X167700000Y-99120000D01*
X167700000Y-91440000D02*
X167700000Y-99120000D01*
X167700000Y-88840000D02*
X167700000Y-90170000D01*
X166370000Y-88840000D02*
X167700000Y-88840000D01*
X152340000Y-91440000D02*
X155000000Y-91440000D01*
X152340000Y-91440000D02*
X152340000Y-99120000D01*
X152340000Y-99120000D02*
X155000000Y-99120000D01*
X155000000Y-91440000D02*
X155000000Y-99120000D01*
X155000000Y-88840000D02*
X155000000Y-90170000D01*
X153670000Y-88840000D02*
X155000000Y-88840000D01*
X139640000Y-91440000D02*
X142300000Y-91440000D01*
X139640000Y-91440000D02*
X139640000Y-99120000D01*
X139640000Y-99120000D02*
X142300000Y-99120000D01*
X142300000Y-91440000D02*
X142300000Y-99120000D01*
X142300000Y-88840000D02*
X142300000Y-90170000D01*
X140970000Y-88840000D02*
X142300000Y-88840000D01*
X126940000Y-91440000D02*
X129600000Y-91440000D01*
X126940000Y-91440000D02*
X126940000Y-99120000D01*
X126940000Y-99120000D02*
X129600000Y-99120000D01*
X129600000Y-91440000D02*
X129600000Y-99120000D01*
X129600000Y-88840000D02*
X129600000Y-90170000D01*
X128270000Y-88840000D02*
X129600000Y-88840000D01*
X183090000Y-113010000D02*
X187210000Y-113010000D01*
X183090000Y-108950000D02*
X183090000Y-113010000D01*
X187210000Y-106890000D02*
X187210000Y-113010000D01*
X183090000Y-108950000D02*
X185150000Y-108950000D01*
X185150000Y-108950000D02*
X185150000Y-106890000D01*
X185150000Y-106890000D02*
X187210000Y-106890000D01*
X183090000Y-107950000D02*
X183090000Y-106890000D01*
X183090000Y-106890000D02*
X184150000Y-106890000D01*
X170390000Y-113010000D02*
X174510000Y-113010000D01*
X170390000Y-108950000D02*
X170390000Y-113010000D01*
X174510000Y-106890000D02*
X174510000Y-113010000D01*
X170390000Y-108950000D02*
X172450000Y-108950000D01*
X172450000Y-108950000D02*
X172450000Y-106890000D01*
X172450000Y-106890000D02*
X174510000Y-106890000D01*
X170390000Y-107950000D02*
X170390000Y-106890000D01*
X170390000Y-106890000D02*
X171450000Y-106890000D01*
X157690000Y-113010000D02*
X161810000Y-113010000D01*
X157690000Y-108950000D02*
X157690000Y-113010000D01*
X161810000Y-106890000D02*
X161810000Y-113010000D01*
X157690000Y-108950000D02*
X159750000Y-108950000D01*
X159750000Y-108950000D02*
X159750000Y-106890000D01*
X159750000Y-106890000D02*
X161810000Y-106890000D01*
X157690000Y-107950000D02*
X157690000Y-106890000D01*
X157690000Y-106890000D02*
X158750000Y-106890000D01*
X144990000Y-113010000D02*
X149110000Y-113010000D01*
X144990000Y-108950000D02*
X144990000Y-113010000D01*
X149110000Y-106890000D02*
X149110000Y-113010000D01*
X144990000Y-108950000D02*
X147050000Y-108950000D01*
X147050000Y-108950000D02*
X147050000Y-106890000D01*
X147050000Y-106890000D02*
X149110000Y-106890000D01*
X144990000Y-107950000D02*
X144990000Y-106890000D01*
X144990000Y-106890000D02*
X146050000Y-106890000D01*
X190440000Y-106680000D02*
X193100000Y-106680000D01*
X190440000Y-106680000D02*
X190440000Y-114360000D01*
X190440000Y-114360000D02*
X193100000Y-114360000D01*
X193100000Y-106680000D02*
X193100000Y-114360000D01*
X193100000Y-104080000D02*
X193100000Y-105410000D01*
X191770000Y-104080000D02*
X193100000Y-104080000D01*
X177740000Y-106680000D02*
X180400000Y-106680000D01*
X177740000Y-106680000D02*
X177740000Y-114360000D01*
X177740000Y-114360000D02*
X180400000Y-114360000D01*
X180400000Y-106680000D02*
X180400000Y-114360000D01*
X180400000Y-104080000D02*
X180400000Y-105410000D01*
X179070000Y-104080000D02*
X180400000Y-104080000D01*
X165040000Y-106680000D02*
X167700000Y-106680000D01*
X165040000Y-106680000D02*
X165040000Y-114360000D01*
X165040000Y-114360000D02*
X167700000Y-114360000D01*
X167700000Y-106680000D02*
X167700000Y-114360000D01*
X167700000Y-104080000D02*
X167700000Y-105410000D01*
X166370000Y-104080000D02*
X167700000Y-104080000D01*
X152340000Y-106680000D02*
X155000000Y-106680000D01*
X152340000Y-106680000D02*
X152340000Y-114360000D01*
X152340000Y-114360000D02*
X155000000Y-114360000D01*
X155000000Y-106680000D02*
X155000000Y-114360000D01*
X155000000Y-104080000D02*
X155000000Y-105410000D01*
X153670000Y-104080000D02*
X155000000Y-104080000D01*
X139640000Y-106680000D02*
X142300000Y-106680000D01*
X139640000Y-106680000D02*
X139640000Y-114360000D01*
X139640000Y-114360000D02*
X142300000Y-114360000D01*
X142300000Y-106680000D02*
X142300000Y-114360000D01*
X142300000Y-104080000D02*
X142300000Y-105410000D01*
X140970000Y-104080000D02*
X142300000Y-104080000D01*
X184270000Y-76970000D02*
X184270000Y-85590000D01*
X181490000Y-76970000D02*
X181490000Y-85590000D01*
X184270000Y-76970000D02*
X181490000Y-76970000D01*
X184270000Y-85590000D02*
X181490000Y-85590000D01*
X186570000Y-88130000D02*
X186570000Y-79510000D01*
X189350000Y-88130000D02*
X189350000Y-79510000D01*
X186570000Y-88130000D02*
X189350000Y-88130000D01*
X186570000Y-79510000D02*
X189350000Y-79510000D01*
X171570000Y-76970000D02*
X171570000Y-85590000D01*
X168790000Y-76970000D02*
X168790000Y-85590000D01*
X171570000Y-76970000D02*
X168790000Y-76970000D01*
X171570000Y-85590000D02*
X168790000Y-85590000D01*
X161170000Y-88130000D02*
X161170000Y-79510000D01*
X163950000Y-88130000D02*
X163950000Y-79510000D01*
X161170000Y-88130000D02*
X163950000Y-88130000D01*
X161170000Y-79510000D02*
X163950000Y-79510000D01*
X158870000Y-76970000D02*
X158870000Y-85590000D01*
X156090000Y-76970000D02*
X156090000Y-85590000D01*
X158870000Y-76970000D02*
X156090000Y-76970000D01*
X158870000Y-85590000D02*
X156090000Y-85590000D01*
X148470000Y-88130000D02*
X148470000Y-79510000D01*
X151250000Y-88130000D02*
X151250000Y-79510000D01*
X148470000Y-88130000D02*
X151250000Y-88130000D01*
X148470000Y-79510000D02*
X151250000Y-79510000D01*
X146170000Y-76970000D02*
X146170000Y-85590000D01*
X143390000Y-76970000D02*
X143390000Y-85590000D01*
X146170000Y-76970000D02*
X143390000Y-76970000D01*
X146170000Y-85590000D02*
X143390000Y-85590000D01*
X135770000Y-88130000D02*
X135770000Y-79510000D01*
X138550000Y-88130000D02*
X138550000Y-79510000D01*
X135770000Y-88130000D02*
X138550000Y-88130000D01*
X135770000Y-79510000D02*
X138550000Y-79510000D01*
X133470000Y-76970000D02*
X133470000Y-85590000D01*
X130690000Y-76970000D02*
X130690000Y-85590000D01*
X133470000Y-76970000D02*
X130690000Y-76970000D01*
X133470000Y-85590000D02*
X130690000Y-85590000D01*
X132290000Y-112820000D02*
X136410000Y-112820000D01*
X132290000Y-108760000D02*
X132290000Y-112820000D01*
X136410000Y-106700000D02*
X136410000Y-112820000D01*
X132290000Y-108760000D02*
X134350000Y-108760000D01*
X134350000Y-108760000D02*
X134350000Y-106700000D01*
X134350000Y-106700000D02*
X136410000Y-106700000D01*
X132290000Y-107760000D02*
X132290000Y-106700000D01*
X132290000Y-106700000D02*
X133350000Y-106700000D01*
X126940000Y-106680000D02*
X129600000Y-106680000D01*
X126940000Y-106680000D02*
X126940000Y-114360000D01*
X126940000Y-114360000D02*
X129600000Y-114360000D01*
X129600000Y-106680000D02*
X129600000Y-114360000D01*
X129600000Y-104080000D02*
X129600000Y-105410000D01*
X128270000Y-104080000D02*
X129600000Y-104080000D01*
X183090000Y-96500000D02*
X187210000Y-96500000D01*
X183090000Y-92440000D02*
X183090000Y-96500000D01*
X187210000Y-90380000D02*
X187210000Y-96500000D01*
X183090000Y-92440000D02*
X185150000Y-92440000D01*
X185150000Y-92440000D02*
X185150000Y-90380000D01*
X185150000Y-90380000D02*
X187210000Y-90380000D01*
X183090000Y-91440000D02*
X183090000Y-90380000D01*
X183090000Y-90380000D02*
X184150000Y-90380000D01*
X170390000Y-96500000D02*
X174510000Y-96500000D01*
X170390000Y-92440000D02*
X170390000Y-96500000D01*
X174510000Y-90380000D02*
X174510000Y-96500000D01*
X170390000Y-92440000D02*
X172450000Y-92440000D01*
X172450000Y-92440000D02*
X172450000Y-90380000D01*
X172450000Y-90380000D02*
X174510000Y-90380000D01*
X170390000Y-91440000D02*
X170390000Y-90380000D01*
X170390000Y-90380000D02*
X171450000Y-90380000D01*
X157690000Y-96500000D02*
X161810000Y-96500000D01*
X157690000Y-92440000D02*
X157690000Y-96500000D01*
X161810000Y-90380000D02*
X161810000Y-96500000D01*
X157690000Y-92440000D02*
X159750000Y-92440000D01*
X159750000Y-92440000D02*
X159750000Y-90380000D01*
X159750000Y-90380000D02*
X161810000Y-90380000D01*
X157690000Y-91440000D02*
X157690000Y-90380000D01*
X157690000Y-90380000D02*
X158750000Y-90380000D01*
X144990000Y-96500000D02*
X149110000Y-96500000D01*
X144990000Y-92440000D02*
X144990000Y-96500000D01*
X149110000Y-90380000D02*
X149110000Y-96500000D01*
X144990000Y-92440000D02*
X147050000Y-92440000D01*
X147050000Y-92440000D02*
X147050000Y-90380000D01*
X147050000Y-90380000D02*
X149110000Y-90380000D01*
X144990000Y-91440000D02*
X144990000Y-90380000D01*
X144990000Y-90380000D02*
X146050000Y-90380000D01*
X132290000Y-96500000D02*
X136410000Y-96500000D01*
X132290000Y-92440000D02*
X132290000Y-96500000D01*
X136410000Y-90380000D02*
X136410000Y-96500000D01*
X132290000Y-92440000D02*
X134350000Y-92440000D01*
X134350000Y-92440000D02*
X134350000Y-90380000D01*
X134350000Y-90380000D02*
X136410000Y-90380000D01*
X132290000Y-91440000D02*
X132290000Y-90380000D01*
X132290000Y-90380000D02*
X133350000Y-90380000D01*
X114100000Y-104810000D02*
X117040000Y-104810000D01*
X114100000Y-104570000D02*
X117040000Y-104570000D01*
X114100000Y-104690000D02*
X117040000Y-104690000D01*
X117040000Y-100150000D02*
X116710000Y-100150000D01*
X117040000Y-105590000D02*
X117040000Y-100150000D01*
X116710000Y-105590000D02*
X117040000Y-105590000D01*
X114100000Y-100150000D02*
X114430000Y-100150000D01*
X114100000Y-105590000D02*
X114100000Y-100150000D01*
X114430000Y-105590000D02*
X114100000Y-105590000D01*
X121800000Y-88130000D02*
X121800000Y-79510000D01*
X124580000Y-88130000D02*
X124580000Y-79510000D01*
X121800000Y-88130000D02*
X124580000Y-88130000D01*
X121800000Y-79510000D02*
X124580000Y-79510000D01*
X119590000Y-113010000D02*
X123710000Y-113010000D01*
X119590000Y-108950000D02*
X119590000Y-113010000D01*
X123710000Y-106890000D02*
X123710000Y-113010000D01*
X119590000Y-108950000D02*
X121650000Y-108950000D01*
X121650000Y-108950000D02*
X121650000Y-106890000D01*
X121650000Y-106890000D02*
X123710000Y-106890000D01*
X119590000Y-107950000D02*
X119590000Y-106890000D01*
X119590000Y-106890000D02*
X120650000Y-106890000D01*
X119590000Y-96500000D02*
X123710000Y-96500000D01*
X119590000Y-92440000D02*
X119590000Y-96500000D01*
X123710000Y-90380000D02*
X123710000Y-96500000D01*
X119590000Y-92440000D02*
X121650000Y-92440000D01*
X121650000Y-92440000D02*
X121650000Y-90380000D01*
X121650000Y-90380000D02*
X123710000Y-90380000D01*
X119590000Y-91440000D02*
X119590000Y-90380000D01*
X119590000Y-90380000D02*
X120650000Y-90380000D01*
X119500000Y-85590000D02*
X116720000Y-85590000D01*
X119500000Y-76970000D02*
X116720000Y-76970000D01*
X116720000Y-76970000D02*
X116720000Y-85590000D01*
X119500000Y-76970000D02*
X119500000Y-85590000D01*
D10*
X201168000Y-115316000D02*
X201168000Y-69596000D01*
X196088000Y-69596000D02*
X196088000Y-112776000D01*
X201168000Y-69596000D02*
X196088000Y-69596000D01*
X201168000Y-115316000D02*
X198628000Y-115316000D01*
X195808000Y-114046000D02*
X195808000Y-115596000D01*
X198628000Y-115316000D02*
X198628000Y-112776000D01*
X198628000Y-112776000D02*
X196088000Y-112776000D01*
X195808000Y-115596000D02*
X197358000Y-115596000D01*
X132588000Y-120396000D02*
X150368000Y-120396000D01*
X150368000Y-120396000D02*
X150368000Y-117856000D01*
X150368000Y-117856000D02*
X132588000Y-117856000D01*
X129768000Y-120676000D02*
X131318000Y-120676000D01*
X132588000Y-120396000D02*
X132588000Y-117856000D01*
X131318000Y-117576000D02*
X129768000Y-117576000D01*
X129768000Y-117576000D02*
X129768000Y-120676000D01*
X155448000Y-120396000D02*
X173228000Y-120396000D01*
X173228000Y-120396000D02*
X173228000Y-117856000D01*
X173228000Y-117856000D02*
X155448000Y-117856000D01*
X152628000Y-120676000D02*
X154178000Y-120676000D01*
X155448000Y-120396000D02*
X155448000Y-117856000D01*
X154178000Y-117576000D02*
X152628000Y-117576000D01*
X152628000Y-117576000D02*
X152628000Y-120676000D01*
X178308000Y-120396000D02*
X196088000Y-120396000D01*
X196088000Y-120396000D02*
X196088000Y-117856000D01*
X196088000Y-117856000D02*
X178308000Y-117856000D01*
X175488000Y-120676000D02*
X177038000Y-120676000D01*
X178308000Y-120396000D02*
X178308000Y-117856000D01*
X177038000Y-117576000D02*
X175488000Y-117576000D01*
X175488000Y-117576000D02*
X175488000Y-120676000D01*
X123444000Y-72136000D02*
X146304000Y-72136000D01*
X146304000Y-72136000D02*
X146304000Y-69596000D01*
X146304000Y-69596000D02*
X123444000Y-69596000D01*
X120624000Y-72416000D02*
X122174000Y-72416000D01*
X123444000Y-72136000D02*
X123444000Y-69596000D01*
X122174000Y-69316000D02*
X120624000Y-69316000D01*
X120624000Y-69316000D02*
X120624000Y-72416000D01*
X150368000Y-72136000D02*
X168148000Y-72136000D01*
X168148000Y-72136000D02*
X168148000Y-69596000D01*
X168148000Y-69596000D02*
X150368000Y-69596000D01*
X147548000Y-72416000D02*
X149098000Y-72416000D01*
X150368000Y-72136000D02*
X150368000Y-69596000D01*
X149098000Y-69316000D02*
X147548000Y-69316000D01*
X147548000Y-69316000D02*
X147548000Y-72416000D01*
X173228000Y-72136000D02*
X191008000Y-72136000D01*
X191008000Y-72136000D02*
X191008000Y-69596000D01*
X191008000Y-69596000D02*
X173228000Y-69596000D01*
X170408000Y-72416000D02*
X171958000Y-72416000D01*
X173228000Y-72136000D02*
X173228000Y-69596000D01*
X171958000Y-69316000D02*
X170408000Y-69316000D01*
X170408000Y-69316000D02*
X170408000Y-72416000D01*
X119634000Y-119126000D02*
G75*
G03*
X119634000Y-119126000I-2286000J0D01*
G01*
X202184000Y-119126000D02*
G75*
G03*
X202184000Y-119126000I-2286000J0D01*
G01*
X120904000Y-70866000D02*
G75*
G03*
X120904000Y-70866000I-2286000J0D01*
G01*
X195834000Y-70866000D02*
G75*
G03*
X195834000Y-70866000I-2286000J0D01*
G01*
X110236666Y-89232380D02*
X110236666Y-89946666D01*
X110189047Y-90089523D01*
X110093809Y-90184761D01*
X109950952Y-90232380D01*
X109855714Y-90232380D01*
X111236666Y-90232380D02*
X110665238Y-90232380D01*
X110950952Y-90232380D02*
X110950952Y-89232380D01*
X110855714Y-89375238D01*
X110760476Y-89470476D01*
X110665238Y-89518095D01*
X173192380Y-84462857D02*
X172716190Y-84796190D01*
X173192380Y-85034285D02*
X172192380Y-85034285D01*
X172192380Y-84653333D01*
X172240000Y-84558095D01*
X172287619Y-84510476D01*
X172382857Y-84462857D01*
X172525714Y-84462857D01*
X172620952Y-84510476D01*
X172668571Y-84558095D01*
X172716190Y-84653333D01*
X172716190Y-85034285D01*
X173192380Y-83510476D02*
X173192380Y-84081904D01*
X173192380Y-83796190D02*
X172192380Y-83796190D01*
X172335238Y-83891428D01*
X172430476Y-83986666D01*
X172478095Y-84081904D01*
X172192380Y-82891428D02*
X172192380Y-82796190D01*
X172240000Y-82700952D01*
X172287619Y-82653333D01*
X172382857Y-82605714D01*
X172573333Y-82558095D01*
X172811428Y-82558095D01*
X173001904Y-82605714D01*
X173097142Y-82653333D01*
X173144761Y-82700952D01*
X173192380Y-82796190D01*
X173192380Y-82891428D01*
X173144761Y-82986666D01*
X173097142Y-83034285D01*
X173001904Y-83081904D01*
X172811428Y-83129523D01*
X172573333Y-83129523D01*
X172382857Y-83081904D01*
X172287619Y-83034285D01*
X172240000Y-82986666D01*
X172192380Y-82891428D01*
X112522380Y-88610000D02*
X112427142Y-88562380D01*
X112284285Y-88562380D01*
X112141428Y-88610000D01*
X112046190Y-88705238D01*
X111998571Y-88800476D01*
X111950952Y-88990952D01*
X111950952Y-89133809D01*
X111998571Y-89324285D01*
X112046190Y-89419523D01*
X112141428Y-89514761D01*
X112284285Y-89562380D01*
X112379523Y-89562380D01*
X112522380Y-89514761D01*
X112570000Y-89467142D01*
X112570000Y-89133809D01*
X112379523Y-89133809D01*
X112998571Y-89562380D02*
X112998571Y-88562380D01*
X113570000Y-89562380D01*
X113570000Y-88562380D01*
X114046190Y-89562380D02*
X114046190Y-88562380D01*
X114284285Y-88562380D01*
X114427142Y-88610000D01*
X114522380Y-88705238D01*
X114570000Y-88800476D01*
X114617619Y-88990952D01*
X114617619Y-89133809D01*
X114570000Y-89324285D01*
X114522380Y-89419523D01*
X114427142Y-89514761D01*
X114284285Y-89562380D01*
X114046190Y-89562380D01*
X114808095Y-89657619D02*
X115570000Y-89657619D01*
X116284285Y-89562380D02*
X115808095Y-89562380D01*
X115808095Y-88562380D01*
X116617619Y-89562380D02*
X116617619Y-88562380D01*
X117189047Y-89562380D01*
X117189047Y-88562380D01*
X117665238Y-89562380D02*
X117665238Y-88562380D01*
X118236666Y-89562380D02*
X117808095Y-88990952D01*
X118236666Y-88562380D02*
X117665238Y-89133809D01*
X119189047Y-89562380D02*
X118617619Y-89562380D01*
X118903333Y-89562380D02*
X118903333Y-88562380D01*
X118808095Y-88705238D01*
X118712857Y-88800476D01*
X118617619Y-88848095D01*
X190484285Y-87328571D02*
X190150952Y-87328571D01*
X190150952Y-87852380D02*
X190150952Y-86852380D01*
X190627142Y-86852380D01*
X190960476Y-87566666D02*
X191436666Y-87566666D01*
X190865238Y-87852380D02*
X191198571Y-86852380D01*
X191531904Y-87852380D01*
X191865238Y-87852380D02*
X191865238Y-86852380D01*
X192436666Y-87852380D01*
X192436666Y-86852380D01*
X193341428Y-86852380D02*
X193150952Y-86852380D01*
X193055714Y-86900000D01*
X193008095Y-86947619D01*
X192912857Y-87090476D01*
X192865238Y-87280952D01*
X192865238Y-87661904D01*
X192912857Y-87757142D01*
X192960476Y-87804761D01*
X193055714Y-87852380D01*
X193246190Y-87852380D01*
X193341428Y-87804761D01*
X193389047Y-87757142D01*
X193436666Y-87661904D01*
X193436666Y-87423809D01*
X193389047Y-87328571D01*
X193341428Y-87280952D01*
X193246190Y-87233333D01*
X193055714Y-87233333D01*
X192960476Y-87280952D01*
X192912857Y-87328571D01*
X192865238Y-87423809D01*
X177784285Y-87328571D02*
X177450952Y-87328571D01*
X177450952Y-87852380D02*
X177450952Y-86852380D01*
X177927142Y-86852380D01*
X178260476Y-87566666D02*
X178736666Y-87566666D01*
X178165238Y-87852380D02*
X178498571Y-86852380D01*
X178831904Y-87852380D01*
X179165238Y-87852380D02*
X179165238Y-86852380D01*
X179736666Y-87852380D01*
X179736666Y-86852380D01*
X180689047Y-86852380D02*
X180212857Y-86852380D01*
X180165238Y-87328571D01*
X180212857Y-87280952D01*
X180308095Y-87233333D01*
X180546190Y-87233333D01*
X180641428Y-87280952D01*
X180689047Y-87328571D01*
X180736666Y-87423809D01*
X180736666Y-87661904D01*
X180689047Y-87757142D01*
X180641428Y-87804761D01*
X180546190Y-87852380D01*
X180308095Y-87852380D01*
X180212857Y-87804761D01*
X180165238Y-87757142D01*
X165084285Y-87328571D02*
X164750952Y-87328571D01*
X164750952Y-87852380D02*
X164750952Y-86852380D01*
X165227142Y-86852380D01*
X165560476Y-87566666D02*
X166036666Y-87566666D01*
X165465238Y-87852380D02*
X165798571Y-86852380D01*
X166131904Y-87852380D01*
X166465238Y-87852380D02*
X166465238Y-86852380D01*
X167036666Y-87852380D01*
X167036666Y-86852380D01*
X167941428Y-87185714D02*
X167941428Y-87852380D01*
X167703333Y-86804761D02*
X167465238Y-87519047D01*
X168084285Y-87519047D01*
X152384285Y-87328571D02*
X152050952Y-87328571D01*
X152050952Y-87852380D02*
X152050952Y-86852380D01*
X152527142Y-86852380D01*
X152860476Y-87566666D02*
X153336666Y-87566666D01*
X152765238Y-87852380D02*
X153098571Y-86852380D01*
X153431904Y-87852380D01*
X153765238Y-87852380D02*
X153765238Y-86852380D01*
X154336666Y-87852380D01*
X154336666Y-86852380D01*
X154717619Y-86852380D02*
X155336666Y-86852380D01*
X155003333Y-87233333D01*
X155146190Y-87233333D01*
X155241428Y-87280952D01*
X155289047Y-87328571D01*
X155336666Y-87423809D01*
X155336666Y-87661904D01*
X155289047Y-87757142D01*
X155241428Y-87804761D01*
X155146190Y-87852380D01*
X154860476Y-87852380D01*
X154765238Y-87804761D01*
X154717619Y-87757142D01*
X139684285Y-87328571D02*
X139350952Y-87328571D01*
X139350952Y-87852380D02*
X139350952Y-86852380D01*
X139827142Y-86852380D01*
X140160476Y-87566666D02*
X140636666Y-87566666D01*
X140065238Y-87852380D02*
X140398571Y-86852380D01*
X140731904Y-87852380D01*
X141065238Y-87852380D02*
X141065238Y-86852380D01*
X141636666Y-87852380D01*
X141636666Y-86852380D01*
X142065238Y-86947619D02*
X142112857Y-86900000D01*
X142208095Y-86852380D01*
X142446190Y-86852380D01*
X142541428Y-86900000D01*
X142589047Y-86947619D01*
X142636666Y-87042857D01*
X142636666Y-87138095D01*
X142589047Y-87280952D01*
X142017619Y-87852380D01*
X142636666Y-87852380D01*
X126984285Y-87328571D02*
X126650952Y-87328571D01*
X126650952Y-87852380D02*
X126650952Y-86852380D01*
X127127142Y-86852380D01*
X127460476Y-87566666D02*
X127936666Y-87566666D01*
X127365238Y-87852380D02*
X127698571Y-86852380D01*
X128031904Y-87852380D01*
X128365238Y-87852380D02*
X128365238Y-86852380D01*
X128936666Y-87852380D01*
X128936666Y-86852380D01*
X129936666Y-87852380D02*
X129365238Y-87852380D01*
X129650952Y-87852380D02*
X129650952Y-86852380D01*
X129555714Y-86995238D01*
X129460476Y-87090476D01*
X129365238Y-87138095D01*
X183530952Y-106342380D02*
X183530952Y-105342380D01*
X183911904Y-105342380D01*
X184007142Y-105390000D01*
X184054761Y-105437619D01*
X184102380Y-105532857D01*
X184102380Y-105675714D01*
X184054761Y-105770952D01*
X184007142Y-105818571D01*
X183911904Y-105866190D01*
X183530952Y-105866190D01*
X185102380Y-106247142D02*
X185054761Y-106294761D01*
X184911904Y-106342380D01*
X184816666Y-106342380D01*
X184673809Y-106294761D01*
X184578571Y-106199523D01*
X184530952Y-106104285D01*
X184483333Y-105913809D01*
X184483333Y-105770952D01*
X184530952Y-105580476D01*
X184578571Y-105485238D01*
X184673809Y-105390000D01*
X184816666Y-105342380D01*
X184911904Y-105342380D01*
X185054761Y-105390000D01*
X185102380Y-105437619D01*
X185292857Y-106437619D02*
X186054761Y-106437619D01*
X186721428Y-105342380D02*
X186530952Y-105342380D01*
X186435714Y-105390000D01*
X186388095Y-105437619D01*
X186292857Y-105580476D01*
X186245238Y-105770952D01*
X186245238Y-106151904D01*
X186292857Y-106247142D01*
X186340476Y-106294761D01*
X186435714Y-106342380D01*
X186626190Y-106342380D01*
X186721428Y-106294761D01*
X186769047Y-106247142D01*
X186816666Y-106151904D01*
X186816666Y-105913809D01*
X186769047Y-105818571D01*
X186721428Y-105770952D01*
X186626190Y-105723333D01*
X186435714Y-105723333D01*
X186340476Y-105770952D01*
X186292857Y-105818571D01*
X186245238Y-105913809D01*
X170830952Y-106342380D02*
X170830952Y-105342380D01*
X171211904Y-105342380D01*
X171307142Y-105390000D01*
X171354761Y-105437619D01*
X171402380Y-105532857D01*
X171402380Y-105675714D01*
X171354761Y-105770952D01*
X171307142Y-105818571D01*
X171211904Y-105866190D01*
X170830952Y-105866190D01*
X172402380Y-106247142D02*
X172354761Y-106294761D01*
X172211904Y-106342380D01*
X172116666Y-106342380D01*
X171973809Y-106294761D01*
X171878571Y-106199523D01*
X171830952Y-106104285D01*
X171783333Y-105913809D01*
X171783333Y-105770952D01*
X171830952Y-105580476D01*
X171878571Y-105485238D01*
X171973809Y-105390000D01*
X172116666Y-105342380D01*
X172211904Y-105342380D01*
X172354761Y-105390000D01*
X172402380Y-105437619D01*
X172592857Y-106437619D02*
X173354761Y-106437619D01*
X174069047Y-105342380D02*
X173592857Y-105342380D01*
X173545238Y-105818571D01*
X173592857Y-105770952D01*
X173688095Y-105723333D01*
X173926190Y-105723333D01*
X174021428Y-105770952D01*
X174069047Y-105818571D01*
X174116666Y-105913809D01*
X174116666Y-106151904D01*
X174069047Y-106247142D01*
X174021428Y-106294761D01*
X173926190Y-106342380D01*
X173688095Y-106342380D01*
X173592857Y-106294761D01*
X173545238Y-106247142D01*
X158130952Y-106342380D02*
X158130952Y-105342380D01*
X158511904Y-105342380D01*
X158607142Y-105390000D01*
X158654761Y-105437619D01*
X158702380Y-105532857D01*
X158702380Y-105675714D01*
X158654761Y-105770952D01*
X158607142Y-105818571D01*
X158511904Y-105866190D01*
X158130952Y-105866190D01*
X159702380Y-106247142D02*
X159654761Y-106294761D01*
X159511904Y-106342380D01*
X159416666Y-106342380D01*
X159273809Y-106294761D01*
X159178571Y-106199523D01*
X159130952Y-106104285D01*
X159083333Y-105913809D01*
X159083333Y-105770952D01*
X159130952Y-105580476D01*
X159178571Y-105485238D01*
X159273809Y-105390000D01*
X159416666Y-105342380D01*
X159511904Y-105342380D01*
X159654761Y-105390000D01*
X159702380Y-105437619D01*
X159892857Y-106437619D02*
X160654761Y-106437619D01*
X161321428Y-105675714D02*
X161321428Y-106342380D01*
X161083333Y-105294761D02*
X160845238Y-106009047D01*
X161464285Y-106009047D01*
X145430952Y-106342380D02*
X145430952Y-105342380D01*
X145811904Y-105342380D01*
X145907142Y-105390000D01*
X145954761Y-105437619D01*
X146002380Y-105532857D01*
X146002380Y-105675714D01*
X145954761Y-105770952D01*
X145907142Y-105818571D01*
X145811904Y-105866190D01*
X145430952Y-105866190D01*
X147002380Y-106247142D02*
X146954761Y-106294761D01*
X146811904Y-106342380D01*
X146716666Y-106342380D01*
X146573809Y-106294761D01*
X146478571Y-106199523D01*
X146430952Y-106104285D01*
X146383333Y-105913809D01*
X146383333Y-105770952D01*
X146430952Y-105580476D01*
X146478571Y-105485238D01*
X146573809Y-105390000D01*
X146716666Y-105342380D01*
X146811904Y-105342380D01*
X146954761Y-105390000D01*
X147002380Y-105437619D01*
X147192857Y-106437619D02*
X147954761Y-106437619D01*
X148097619Y-105342380D02*
X148716666Y-105342380D01*
X148383333Y-105723333D01*
X148526190Y-105723333D01*
X148621428Y-105770952D01*
X148669047Y-105818571D01*
X148716666Y-105913809D01*
X148716666Y-106151904D01*
X148669047Y-106247142D01*
X148621428Y-106294761D01*
X148526190Y-106342380D01*
X148240476Y-106342380D01*
X148145238Y-106294761D01*
X148097619Y-106247142D01*
X190531904Y-103092380D02*
X190531904Y-102092380D01*
X190912857Y-102092380D01*
X191008095Y-102140000D01*
X191055714Y-102187619D01*
X191103333Y-102282857D01*
X191103333Y-102425714D01*
X191055714Y-102520952D01*
X191008095Y-102568571D01*
X190912857Y-102616190D01*
X190531904Y-102616190D01*
X192103333Y-102997142D02*
X192055714Y-103044761D01*
X191912857Y-103092380D01*
X191817619Y-103092380D01*
X191674761Y-103044761D01*
X191579523Y-102949523D01*
X191531904Y-102854285D01*
X191484285Y-102663809D01*
X191484285Y-102520952D01*
X191531904Y-102330476D01*
X191579523Y-102235238D01*
X191674761Y-102140000D01*
X191817619Y-102092380D01*
X191912857Y-102092380D01*
X192055714Y-102140000D01*
X192103333Y-102187619D01*
X192960476Y-102092380D02*
X192770000Y-102092380D01*
X192674761Y-102140000D01*
X192627142Y-102187619D01*
X192531904Y-102330476D01*
X192484285Y-102520952D01*
X192484285Y-102901904D01*
X192531904Y-102997142D01*
X192579523Y-103044761D01*
X192674761Y-103092380D01*
X192865238Y-103092380D01*
X192960476Y-103044761D01*
X193008095Y-102997142D01*
X193055714Y-102901904D01*
X193055714Y-102663809D01*
X193008095Y-102568571D01*
X192960476Y-102520952D01*
X192865238Y-102473333D01*
X192674761Y-102473333D01*
X192579523Y-102520952D01*
X192531904Y-102568571D01*
X192484285Y-102663809D01*
X177831904Y-103092380D02*
X177831904Y-102092380D01*
X178212857Y-102092380D01*
X178308095Y-102140000D01*
X178355714Y-102187619D01*
X178403333Y-102282857D01*
X178403333Y-102425714D01*
X178355714Y-102520952D01*
X178308095Y-102568571D01*
X178212857Y-102616190D01*
X177831904Y-102616190D01*
X179403333Y-102997142D02*
X179355714Y-103044761D01*
X179212857Y-103092380D01*
X179117619Y-103092380D01*
X178974761Y-103044761D01*
X178879523Y-102949523D01*
X178831904Y-102854285D01*
X178784285Y-102663809D01*
X178784285Y-102520952D01*
X178831904Y-102330476D01*
X178879523Y-102235238D01*
X178974761Y-102140000D01*
X179117619Y-102092380D01*
X179212857Y-102092380D01*
X179355714Y-102140000D01*
X179403333Y-102187619D01*
X180308095Y-102092380D02*
X179831904Y-102092380D01*
X179784285Y-102568571D01*
X179831904Y-102520952D01*
X179927142Y-102473333D01*
X180165238Y-102473333D01*
X180260476Y-102520952D01*
X180308095Y-102568571D01*
X180355714Y-102663809D01*
X180355714Y-102901904D01*
X180308095Y-102997142D01*
X180260476Y-103044761D01*
X180165238Y-103092380D01*
X179927142Y-103092380D01*
X179831904Y-103044761D01*
X179784285Y-102997142D01*
X165131904Y-103092380D02*
X165131904Y-102092380D01*
X165512857Y-102092380D01*
X165608095Y-102140000D01*
X165655714Y-102187619D01*
X165703333Y-102282857D01*
X165703333Y-102425714D01*
X165655714Y-102520952D01*
X165608095Y-102568571D01*
X165512857Y-102616190D01*
X165131904Y-102616190D01*
X166703333Y-102997142D02*
X166655714Y-103044761D01*
X166512857Y-103092380D01*
X166417619Y-103092380D01*
X166274761Y-103044761D01*
X166179523Y-102949523D01*
X166131904Y-102854285D01*
X166084285Y-102663809D01*
X166084285Y-102520952D01*
X166131904Y-102330476D01*
X166179523Y-102235238D01*
X166274761Y-102140000D01*
X166417619Y-102092380D01*
X166512857Y-102092380D01*
X166655714Y-102140000D01*
X166703333Y-102187619D01*
X167560476Y-102425714D02*
X167560476Y-103092380D01*
X167322380Y-102044761D02*
X167084285Y-102759047D01*
X167703333Y-102759047D01*
X152431904Y-103092380D02*
X152431904Y-102092380D01*
X152812857Y-102092380D01*
X152908095Y-102140000D01*
X152955714Y-102187619D01*
X153003333Y-102282857D01*
X153003333Y-102425714D01*
X152955714Y-102520952D01*
X152908095Y-102568571D01*
X152812857Y-102616190D01*
X152431904Y-102616190D01*
X154003333Y-102997142D02*
X153955714Y-103044761D01*
X153812857Y-103092380D01*
X153717619Y-103092380D01*
X153574761Y-103044761D01*
X153479523Y-102949523D01*
X153431904Y-102854285D01*
X153384285Y-102663809D01*
X153384285Y-102520952D01*
X153431904Y-102330476D01*
X153479523Y-102235238D01*
X153574761Y-102140000D01*
X153717619Y-102092380D01*
X153812857Y-102092380D01*
X153955714Y-102140000D01*
X154003333Y-102187619D01*
X154336666Y-102092380D02*
X154955714Y-102092380D01*
X154622380Y-102473333D01*
X154765238Y-102473333D01*
X154860476Y-102520952D01*
X154908095Y-102568571D01*
X154955714Y-102663809D01*
X154955714Y-102901904D01*
X154908095Y-102997142D01*
X154860476Y-103044761D01*
X154765238Y-103092380D01*
X154479523Y-103092380D01*
X154384285Y-103044761D01*
X154336666Y-102997142D01*
X139731904Y-103092380D02*
X139731904Y-102092380D01*
X140112857Y-102092380D01*
X140208095Y-102140000D01*
X140255714Y-102187619D01*
X140303333Y-102282857D01*
X140303333Y-102425714D01*
X140255714Y-102520952D01*
X140208095Y-102568571D01*
X140112857Y-102616190D01*
X139731904Y-102616190D01*
X141303333Y-102997142D02*
X141255714Y-103044761D01*
X141112857Y-103092380D01*
X141017619Y-103092380D01*
X140874761Y-103044761D01*
X140779523Y-102949523D01*
X140731904Y-102854285D01*
X140684285Y-102663809D01*
X140684285Y-102520952D01*
X140731904Y-102330476D01*
X140779523Y-102235238D01*
X140874761Y-102140000D01*
X141017619Y-102092380D01*
X141112857Y-102092380D01*
X141255714Y-102140000D01*
X141303333Y-102187619D01*
X141684285Y-102187619D02*
X141731904Y-102140000D01*
X141827142Y-102092380D01*
X142065238Y-102092380D01*
X142160476Y-102140000D01*
X142208095Y-102187619D01*
X142255714Y-102282857D01*
X142255714Y-102378095D01*
X142208095Y-102520952D01*
X141636666Y-103092380D01*
X142255714Y-103092380D01*
X180792380Y-81922857D02*
X180316190Y-82256190D01*
X180792380Y-82494285D02*
X179792380Y-82494285D01*
X179792380Y-82113333D01*
X179840000Y-82018095D01*
X179887619Y-81970476D01*
X179982857Y-81922857D01*
X180125714Y-81922857D01*
X180220952Y-81970476D01*
X180268571Y-82018095D01*
X180316190Y-82113333D01*
X180316190Y-82494285D01*
X180792380Y-80970476D02*
X180792380Y-81541904D01*
X180792380Y-81256190D02*
X179792380Y-81256190D01*
X179935238Y-81351428D01*
X180030476Y-81446666D01*
X180078095Y-81541904D01*
X180792380Y-80018095D02*
X180792380Y-80589523D01*
X180792380Y-80303809D02*
X179792380Y-80303809D01*
X179935238Y-80399047D01*
X180030476Y-80494285D01*
X180078095Y-80589523D01*
X185892380Y-84462857D02*
X185416190Y-84796190D01*
X185892380Y-85034285D02*
X184892380Y-85034285D01*
X184892380Y-84653333D01*
X184940000Y-84558095D01*
X184987619Y-84510476D01*
X185082857Y-84462857D01*
X185225714Y-84462857D01*
X185320952Y-84510476D01*
X185368571Y-84558095D01*
X185416190Y-84653333D01*
X185416190Y-85034285D01*
X185892380Y-83510476D02*
X185892380Y-84081904D01*
X185892380Y-83796190D02*
X184892380Y-83796190D01*
X185035238Y-83891428D01*
X185130476Y-83986666D01*
X185178095Y-84081904D01*
X184987619Y-83129523D02*
X184940000Y-83081904D01*
X184892380Y-82986666D01*
X184892380Y-82748571D01*
X184940000Y-82653333D01*
X184987619Y-82605714D01*
X185082857Y-82558095D01*
X185178095Y-82558095D01*
X185320952Y-82605714D01*
X185892380Y-83177142D01*
X185892380Y-82558095D01*
X168092380Y-78906666D02*
X167616190Y-79240000D01*
X168092380Y-79478095D02*
X167092380Y-79478095D01*
X167092380Y-79097142D01*
X167140000Y-79001904D01*
X167187619Y-78954285D01*
X167282857Y-78906666D01*
X167425714Y-78906666D01*
X167520952Y-78954285D01*
X167568571Y-79001904D01*
X167616190Y-79097142D01*
X167616190Y-79478095D01*
X168092380Y-78430476D02*
X168092380Y-78240000D01*
X168044761Y-78144761D01*
X167997142Y-78097142D01*
X167854285Y-78001904D01*
X167663809Y-77954285D01*
X167282857Y-77954285D01*
X167187619Y-78001904D01*
X167140000Y-78049523D01*
X167092380Y-78144761D01*
X167092380Y-78335238D01*
X167140000Y-78430476D01*
X167187619Y-78478095D01*
X167282857Y-78525714D01*
X167520952Y-78525714D01*
X167616190Y-78478095D01*
X167663809Y-78430476D01*
X167711428Y-78335238D01*
X167711428Y-78144761D01*
X167663809Y-78049523D01*
X167616190Y-78001904D01*
X167520952Y-77954285D01*
X160492380Y-83986666D02*
X160016190Y-84320000D01*
X160492380Y-84558095D02*
X159492380Y-84558095D01*
X159492380Y-84177142D01*
X159540000Y-84081904D01*
X159587619Y-84034285D01*
X159682857Y-83986666D01*
X159825714Y-83986666D01*
X159920952Y-84034285D01*
X159968571Y-84081904D01*
X160016190Y-84177142D01*
X160016190Y-84558095D01*
X159920952Y-83415238D02*
X159873333Y-83510476D01*
X159825714Y-83558095D01*
X159730476Y-83605714D01*
X159682857Y-83605714D01*
X159587619Y-83558095D01*
X159540000Y-83510476D01*
X159492380Y-83415238D01*
X159492380Y-83224761D01*
X159540000Y-83129523D01*
X159587619Y-83081904D01*
X159682857Y-83034285D01*
X159730476Y-83034285D01*
X159825714Y-83081904D01*
X159873333Y-83129523D01*
X159920952Y-83224761D01*
X159920952Y-83415238D01*
X159968571Y-83510476D01*
X160016190Y-83558095D01*
X160111428Y-83605714D01*
X160301904Y-83605714D01*
X160397142Y-83558095D01*
X160444761Y-83510476D01*
X160492380Y-83415238D01*
X160492380Y-83224761D01*
X160444761Y-83129523D01*
X160397142Y-83081904D01*
X160301904Y-83034285D01*
X160111428Y-83034285D01*
X160016190Y-83081904D01*
X159968571Y-83129523D01*
X159920952Y-83224761D01*
X155392380Y-78906666D02*
X154916190Y-79240000D01*
X155392380Y-79478095D02*
X154392380Y-79478095D01*
X154392380Y-79097142D01*
X154440000Y-79001904D01*
X154487619Y-78954285D01*
X154582857Y-78906666D01*
X154725714Y-78906666D01*
X154820952Y-78954285D01*
X154868571Y-79001904D01*
X154916190Y-79097142D01*
X154916190Y-79478095D01*
X154392380Y-78573333D02*
X154392380Y-77906666D01*
X155392380Y-78335238D01*
X147792380Y-83986666D02*
X147316190Y-84320000D01*
X147792380Y-84558095D02*
X146792380Y-84558095D01*
X146792380Y-84177142D01*
X146840000Y-84081904D01*
X146887619Y-84034285D01*
X146982857Y-83986666D01*
X147125714Y-83986666D01*
X147220952Y-84034285D01*
X147268571Y-84081904D01*
X147316190Y-84177142D01*
X147316190Y-84558095D01*
X146792380Y-83129523D02*
X146792380Y-83320000D01*
X146840000Y-83415238D01*
X146887619Y-83462857D01*
X147030476Y-83558095D01*
X147220952Y-83605714D01*
X147601904Y-83605714D01*
X147697142Y-83558095D01*
X147744761Y-83510476D01*
X147792380Y-83415238D01*
X147792380Y-83224761D01*
X147744761Y-83129523D01*
X147697142Y-83081904D01*
X147601904Y-83034285D01*
X147363809Y-83034285D01*
X147268571Y-83081904D01*
X147220952Y-83129523D01*
X147173333Y-83224761D01*
X147173333Y-83415238D01*
X147220952Y-83510476D01*
X147268571Y-83558095D01*
X147363809Y-83605714D01*
X142692380Y-78906666D02*
X142216190Y-79240000D01*
X142692380Y-79478095D02*
X141692380Y-79478095D01*
X141692380Y-79097142D01*
X141740000Y-79001904D01*
X141787619Y-78954285D01*
X141882857Y-78906666D01*
X142025714Y-78906666D01*
X142120952Y-78954285D01*
X142168571Y-79001904D01*
X142216190Y-79097142D01*
X142216190Y-79478095D01*
X141692380Y-78001904D02*
X141692380Y-78478095D01*
X142168571Y-78525714D01*
X142120952Y-78478095D01*
X142073333Y-78382857D01*
X142073333Y-78144761D01*
X142120952Y-78049523D01*
X142168571Y-78001904D01*
X142263809Y-77954285D01*
X142501904Y-77954285D01*
X142597142Y-78001904D01*
X142644761Y-78049523D01*
X142692380Y-78144761D01*
X142692380Y-78382857D01*
X142644761Y-78478095D01*
X142597142Y-78525714D01*
X135092380Y-83986666D02*
X134616190Y-84320000D01*
X135092380Y-84558095D02*
X134092380Y-84558095D01*
X134092380Y-84177142D01*
X134140000Y-84081904D01*
X134187619Y-84034285D01*
X134282857Y-83986666D01*
X134425714Y-83986666D01*
X134520952Y-84034285D01*
X134568571Y-84081904D01*
X134616190Y-84177142D01*
X134616190Y-84558095D01*
X134425714Y-83129523D02*
X135092380Y-83129523D01*
X134044761Y-83367619D02*
X134759047Y-83605714D01*
X134759047Y-82986666D01*
X129992380Y-78906666D02*
X129516190Y-79240000D01*
X129992380Y-79478095D02*
X128992380Y-79478095D01*
X128992380Y-79097142D01*
X129040000Y-79001904D01*
X129087619Y-78954285D01*
X129182857Y-78906666D01*
X129325714Y-78906666D01*
X129420952Y-78954285D01*
X129468571Y-79001904D01*
X129516190Y-79097142D01*
X129516190Y-79478095D01*
X128992380Y-78573333D02*
X128992380Y-77954285D01*
X129373333Y-78287619D01*
X129373333Y-78144761D01*
X129420952Y-78049523D01*
X129468571Y-78001904D01*
X129563809Y-77954285D01*
X129801904Y-77954285D01*
X129897142Y-78001904D01*
X129944761Y-78049523D01*
X129992380Y-78144761D01*
X129992380Y-78430476D01*
X129944761Y-78525714D01*
X129897142Y-78573333D01*
X132730952Y-106152380D02*
X132730952Y-105152380D01*
X133111904Y-105152380D01*
X133207142Y-105200000D01*
X133254761Y-105247619D01*
X133302380Y-105342857D01*
X133302380Y-105485714D01*
X133254761Y-105580952D01*
X133207142Y-105628571D01*
X133111904Y-105676190D01*
X132730952Y-105676190D01*
X134302380Y-106057142D02*
X134254761Y-106104761D01*
X134111904Y-106152380D01*
X134016666Y-106152380D01*
X133873809Y-106104761D01*
X133778571Y-106009523D01*
X133730952Y-105914285D01*
X133683333Y-105723809D01*
X133683333Y-105580952D01*
X133730952Y-105390476D01*
X133778571Y-105295238D01*
X133873809Y-105200000D01*
X134016666Y-105152380D01*
X134111904Y-105152380D01*
X134254761Y-105200000D01*
X134302380Y-105247619D01*
X134492857Y-106247619D02*
X135254761Y-106247619D01*
X135445238Y-105247619D02*
X135492857Y-105200000D01*
X135588095Y-105152380D01*
X135826190Y-105152380D01*
X135921428Y-105200000D01*
X135969047Y-105247619D01*
X136016666Y-105342857D01*
X136016666Y-105438095D01*
X135969047Y-105580952D01*
X135397619Y-106152380D01*
X136016666Y-106152380D01*
X127031904Y-103092380D02*
X127031904Y-102092380D01*
X127412857Y-102092380D01*
X127508095Y-102140000D01*
X127555714Y-102187619D01*
X127603333Y-102282857D01*
X127603333Y-102425714D01*
X127555714Y-102520952D01*
X127508095Y-102568571D01*
X127412857Y-102616190D01*
X127031904Y-102616190D01*
X128603333Y-102997142D02*
X128555714Y-103044761D01*
X128412857Y-103092380D01*
X128317619Y-103092380D01*
X128174761Y-103044761D01*
X128079523Y-102949523D01*
X128031904Y-102854285D01*
X127984285Y-102663809D01*
X127984285Y-102520952D01*
X128031904Y-102330476D01*
X128079523Y-102235238D01*
X128174761Y-102140000D01*
X128317619Y-102092380D01*
X128412857Y-102092380D01*
X128555714Y-102140000D01*
X128603333Y-102187619D01*
X129555714Y-103092380D02*
X128984285Y-103092380D01*
X129270000Y-103092380D02*
X129270000Y-102092380D01*
X129174761Y-102235238D01*
X129079523Y-102330476D01*
X128984285Y-102378095D01*
X183483333Y-89308571D02*
X183150000Y-89308571D01*
X183150000Y-89832380D02*
X183150000Y-88832380D01*
X183626190Y-88832380D01*
X183959523Y-89546666D02*
X184435714Y-89546666D01*
X183864285Y-89832380D02*
X184197619Y-88832380D01*
X184530952Y-89832380D01*
X184864285Y-89832380D02*
X184864285Y-88832380D01*
X185435714Y-89832380D01*
X185435714Y-88832380D01*
X185673809Y-89927619D02*
X186435714Y-89927619D01*
X187102380Y-88832380D02*
X186911904Y-88832380D01*
X186816666Y-88880000D01*
X186769047Y-88927619D01*
X186673809Y-89070476D01*
X186626190Y-89260952D01*
X186626190Y-89641904D01*
X186673809Y-89737142D01*
X186721428Y-89784761D01*
X186816666Y-89832380D01*
X187007142Y-89832380D01*
X187102380Y-89784761D01*
X187150000Y-89737142D01*
X187197619Y-89641904D01*
X187197619Y-89403809D01*
X187150000Y-89308571D01*
X187102380Y-89260952D01*
X187007142Y-89213333D01*
X186816666Y-89213333D01*
X186721428Y-89260952D01*
X186673809Y-89308571D01*
X186626190Y-89403809D01*
X170783333Y-89308571D02*
X170450000Y-89308571D01*
X170450000Y-89832380D02*
X170450000Y-88832380D01*
X170926190Y-88832380D01*
X171259523Y-89546666D02*
X171735714Y-89546666D01*
X171164285Y-89832380D02*
X171497619Y-88832380D01*
X171830952Y-89832380D01*
X172164285Y-89832380D02*
X172164285Y-88832380D01*
X172735714Y-89832380D01*
X172735714Y-88832380D01*
X172973809Y-89927619D02*
X173735714Y-89927619D01*
X174450000Y-88832380D02*
X173973809Y-88832380D01*
X173926190Y-89308571D01*
X173973809Y-89260952D01*
X174069047Y-89213333D01*
X174307142Y-89213333D01*
X174402380Y-89260952D01*
X174450000Y-89308571D01*
X174497619Y-89403809D01*
X174497619Y-89641904D01*
X174450000Y-89737142D01*
X174402380Y-89784761D01*
X174307142Y-89832380D01*
X174069047Y-89832380D01*
X173973809Y-89784761D01*
X173926190Y-89737142D01*
X158083333Y-89308571D02*
X157750000Y-89308571D01*
X157750000Y-89832380D02*
X157750000Y-88832380D01*
X158226190Y-88832380D01*
X158559523Y-89546666D02*
X159035714Y-89546666D01*
X158464285Y-89832380D02*
X158797619Y-88832380D01*
X159130952Y-89832380D01*
X159464285Y-89832380D02*
X159464285Y-88832380D01*
X160035714Y-89832380D01*
X160035714Y-88832380D01*
X160273809Y-89927619D02*
X161035714Y-89927619D01*
X161702380Y-89165714D02*
X161702380Y-89832380D01*
X161464285Y-88784761D02*
X161226190Y-89499047D01*
X161845238Y-89499047D01*
X145383333Y-89308571D02*
X145050000Y-89308571D01*
X145050000Y-89832380D02*
X145050000Y-88832380D01*
X145526190Y-88832380D01*
X145859523Y-89546666D02*
X146335714Y-89546666D01*
X145764285Y-89832380D02*
X146097619Y-88832380D01*
X146430952Y-89832380D01*
X146764285Y-89832380D02*
X146764285Y-88832380D01*
X147335714Y-89832380D01*
X147335714Y-88832380D01*
X147573809Y-89927619D02*
X148335714Y-89927619D01*
X148478571Y-88832380D02*
X149097619Y-88832380D01*
X148764285Y-89213333D01*
X148907142Y-89213333D01*
X149002380Y-89260952D01*
X149050000Y-89308571D01*
X149097619Y-89403809D01*
X149097619Y-89641904D01*
X149050000Y-89737142D01*
X149002380Y-89784761D01*
X148907142Y-89832380D01*
X148621428Y-89832380D01*
X148526190Y-89784761D01*
X148478571Y-89737142D01*
X132683333Y-89308571D02*
X132350000Y-89308571D01*
X132350000Y-89832380D02*
X132350000Y-88832380D01*
X132826190Y-88832380D01*
X133159523Y-89546666D02*
X133635714Y-89546666D01*
X133064285Y-89832380D02*
X133397619Y-88832380D01*
X133730952Y-89832380D01*
X134064285Y-89832380D02*
X134064285Y-88832380D01*
X134635714Y-89832380D01*
X134635714Y-88832380D01*
X134873809Y-89927619D02*
X135635714Y-89927619D01*
X135826190Y-88927619D02*
X135873809Y-88880000D01*
X135969047Y-88832380D01*
X136207142Y-88832380D01*
X136302380Y-88880000D01*
X136350000Y-88927619D01*
X136397619Y-89022857D01*
X136397619Y-89118095D01*
X136350000Y-89260952D01*
X135778571Y-89832380D01*
X136397619Y-89832380D01*
X113552380Y-103608095D02*
X112552380Y-103608095D01*
X112552380Y-103370000D01*
X112600000Y-103227142D01*
X112695238Y-103131904D01*
X112790476Y-103084285D01*
X112980952Y-103036666D01*
X113123809Y-103036666D01*
X113314285Y-103084285D01*
X113409523Y-103131904D01*
X113504761Y-103227142D01*
X113552380Y-103370000D01*
X113552380Y-103608095D01*
X113552380Y-102084285D02*
X113552380Y-102655714D01*
X113552380Y-102370000D02*
X112552380Y-102370000D01*
X112695238Y-102465238D01*
X112790476Y-102560476D01*
X112838095Y-102655714D01*
X114122380Y-106941904D02*
X113122380Y-106941904D01*
X114122380Y-106370476D02*
X113550952Y-106799047D01*
X113122380Y-106370476D02*
X113693809Y-106941904D01*
X121122380Y-83986666D02*
X120646190Y-84320000D01*
X121122380Y-84558095D02*
X120122380Y-84558095D01*
X120122380Y-84177142D01*
X120170000Y-84081904D01*
X120217619Y-84034285D01*
X120312857Y-83986666D01*
X120455714Y-83986666D01*
X120550952Y-84034285D01*
X120598571Y-84081904D01*
X120646190Y-84177142D01*
X120646190Y-84558095D01*
X120217619Y-83605714D02*
X120170000Y-83558095D01*
X120122380Y-83462857D01*
X120122380Y-83224761D01*
X120170000Y-83129523D01*
X120217619Y-83081904D01*
X120312857Y-83034285D01*
X120408095Y-83034285D01*
X120550952Y-83081904D01*
X121122380Y-83653333D01*
X121122380Y-83034285D01*
X120030952Y-106342380D02*
X120030952Y-105342380D01*
X120411904Y-105342380D01*
X120507142Y-105390000D01*
X120554761Y-105437619D01*
X120602380Y-105532857D01*
X120602380Y-105675714D01*
X120554761Y-105770952D01*
X120507142Y-105818571D01*
X120411904Y-105866190D01*
X120030952Y-105866190D01*
X121602380Y-106247142D02*
X121554761Y-106294761D01*
X121411904Y-106342380D01*
X121316666Y-106342380D01*
X121173809Y-106294761D01*
X121078571Y-106199523D01*
X121030952Y-106104285D01*
X120983333Y-105913809D01*
X120983333Y-105770952D01*
X121030952Y-105580476D01*
X121078571Y-105485238D01*
X121173809Y-105390000D01*
X121316666Y-105342380D01*
X121411904Y-105342380D01*
X121554761Y-105390000D01*
X121602380Y-105437619D01*
X121792857Y-106437619D02*
X122554761Y-106437619D01*
X123316666Y-106342380D02*
X122745238Y-106342380D01*
X123030952Y-106342380D02*
X123030952Y-105342380D01*
X122935714Y-105485238D01*
X122840476Y-105580476D01*
X122745238Y-105628095D01*
X119983333Y-89308571D02*
X119650000Y-89308571D01*
X119650000Y-89832380D02*
X119650000Y-88832380D01*
X120126190Y-88832380D01*
X120459523Y-89546666D02*
X120935714Y-89546666D01*
X120364285Y-89832380D02*
X120697619Y-88832380D01*
X121030952Y-89832380D01*
X121364285Y-89832380D02*
X121364285Y-88832380D01*
X121935714Y-89832380D01*
X121935714Y-88832380D01*
X122173809Y-89927619D02*
X122935714Y-89927619D01*
X123697619Y-89832380D02*
X123126190Y-89832380D01*
X123411904Y-89832380D02*
X123411904Y-88832380D01*
X123316666Y-88975238D01*
X123221428Y-89070476D01*
X123126190Y-89118095D01*
X116022380Y-78906666D02*
X115546190Y-79240000D01*
X116022380Y-79478095D02*
X115022380Y-79478095D01*
X115022380Y-79097142D01*
X115070000Y-79001904D01*
X115117619Y-78954285D01*
X115212857Y-78906666D01*
X115355714Y-78906666D01*
X115450952Y-78954285D01*
X115498571Y-79001904D01*
X115546190Y-79097142D01*
X115546190Y-79478095D01*
X116022380Y-77954285D02*
X116022380Y-78525714D01*
X116022380Y-78240000D02*
X115022380Y-78240000D01*
X115165238Y-78335238D01*
X115260476Y-78430476D01*
X115308095Y-78525714D01*
X195016380Y-93194095D02*
X194016380Y-93194095D01*
X194016380Y-92813142D01*
X194064000Y-92717904D01*
X194111619Y-92670285D01*
X194206857Y-92622666D01*
X194349714Y-92622666D01*
X194444952Y-92670285D01*
X194492571Y-92717904D01*
X194540190Y-92813142D01*
X194540190Y-93194095D01*
X195016380Y-91670285D02*
X195016380Y-92241714D01*
X195016380Y-91956000D02*
X194016380Y-91956000D01*
X194159238Y-92051238D01*
X194254476Y-92146476D01*
X194302095Y-92241714D01*
X139469904Y-116784380D02*
X139469904Y-115784380D01*
X139850857Y-115784380D01*
X139946095Y-115832000D01*
X139993714Y-115879619D01*
X140041333Y-115974857D01*
X140041333Y-116117714D01*
X139993714Y-116212952D01*
X139946095Y-116260571D01*
X139850857Y-116308190D01*
X139469904Y-116308190D01*
X140422285Y-115879619D02*
X140469904Y-115832000D01*
X140565142Y-115784380D01*
X140803238Y-115784380D01*
X140898476Y-115832000D01*
X140946095Y-115879619D01*
X140993714Y-115974857D01*
X140993714Y-116070095D01*
X140946095Y-116212952D01*
X140374666Y-116784380D01*
X140993714Y-116784380D01*
X162329904Y-117038380D02*
X162329904Y-116038380D01*
X162710857Y-116038380D01*
X162806095Y-116086000D01*
X162853714Y-116133619D01*
X162901333Y-116228857D01*
X162901333Y-116371714D01*
X162853714Y-116466952D01*
X162806095Y-116514571D01*
X162710857Y-116562190D01*
X162329904Y-116562190D01*
X163234666Y-116038380D02*
X163853714Y-116038380D01*
X163520380Y-116419333D01*
X163663238Y-116419333D01*
X163758476Y-116466952D01*
X163806095Y-116514571D01*
X163853714Y-116609809D01*
X163853714Y-116847904D01*
X163806095Y-116943142D01*
X163758476Y-116990761D01*
X163663238Y-117038380D01*
X163377523Y-117038380D01*
X163282285Y-116990761D01*
X163234666Y-116943142D01*
X185189904Y-116784380D02*
X185189904Y-115784380D01*
X185570857Y-115784380D01*
X185666095Y-115832000D01*
X185713714Y-115879619D01*
X185761333Y-115974857D01*
X185761333Y-116117714D01*
X185713714Y-116212952D01*
X185666095Y-116260571D01*
X185570857Y-116308190D01*
X185189904Y-116308190D01*
X186618476Y-116117714D02*
X186618476Y-116784380D01*
X186380380Y-115736761D02*
X186142285Y-116451047D01*
X186761333Y-116451047D01*
X132865904Y-74112380D02*
X132865904Y-73112380D01*
X133246857Y-73112380D01*
X133342095Y-73160000D01*
X133389714Y-73207619D01*
X133437333Y-73302857D01*
X133437333Y-73445714D01*
X133389714Y-73540952D01*
X133342095Y-73588571D01*
X133246857Y-73636190D01*
X132865904Y-73636190D01*
X134342095Y-73112380D02*
X133865904Y-73112380D01*
X133818285Y-73588571D01*
X133865904Y-73540952D01*
X133961142Y-73493333D01*
X134199238Y-73493333D01*
X134294476Y-73540952D01*
X134342095Y-73588571D01*
X134389714Y-73683809D01*
X134389714Y-73921904D01*
X134342095Y-74017142D01*
X134294476Y-74064761D01*
X134199238Y-74112380D01*
X133961142Y-74112380D01*
X133865904Y-74064761D01*
X133818285Y-74017142D01*
X157249904Y-74112380D02*
X157249904Y-73112380D01*
X157630857Y-73112380D01*
X157726095Y-73160000D01*
X157773714Y-73207619D01*
X157821333Y-73302857D01*
X157821333Y-73445714D01*
X157773714Y-73540952D01*
X157726095Y-73588571D01*
X157630857Y-73636190D01*
X157249904Y-73636190D01*
X158678476Y-73112380D02*
X158488000Y-73112380D01*
X158392761Y-73160000D01*
X158345142Y-73207619D01*
X158249904Y-73350476D01*
X158202285Y-73540952D01*
X158202285Y-73921904D01*
X158249904Y-74017142D01*
X158297523Y-74064761D01*
X158392761Y-74112380D01*
X158583238Y-74112380D01*
X158678476Y-74064761D01*
X158726095Y-74017142D01*
X158773714Y-73921904D01*
X158773714Y-73683809D01*
X158726095Y-73588571D01*
X158678476Y-73540952D01*
X158583238Y-73493333D01*
X158392761Y-73493333D01*
X158297523Y-73540952D01*
X158249904Y-73588571D01*
X158202285Y-73683809D01*
X180109904Y-74112380D02*
X180109904Y-73112380D01*
X180490857Y-73112380D01*
X180586095Y-73160000D01*
X180633714Y-73207619D01*
X180681333Y-73302857D01*
X180681333Y-73445714D01*
X180633714Y-73540952D01*
X180586095Y-73588571D01*
X180490857Y-73636190D01*
X180109904Y-73636190D01*
X181014666Y-73112380D02*
X181681333Y-73112380D01*
X181252761Y-74112380D01*
%LPC*%
D13*
X111760000Y-92710000D03*
X111760000Y-95250000D03*
X111760000Y-97790000D03*
X111760000Y-100330000D03*
X111760000Y-102870000D03*
X111760000Y-105410000D03*
X109220000Y-105410000D03*
X109220000Y-102870000D03*
X109220000Y-100330000D03*
X109220000Y-97790000D03*
X109220000Y-95250000D03*
X109220000Y-92710000D03*
D14*
X175260000Y-81280000D03*
X175260000Y-86360000D03*
D15*
X115570000Y-91440000D03*
D16*
X191770000Y-97790000D03*
X191770000Y-95250000D03*
X191770000Y-92710000D03*
D15*
X191770000Y-90170000D03*
D16*
X179070000Y-97790000D03*
X179070000Y-95250000D03*
X179070000Y-92710000D03*
D15*
X179070000Y-90170000D03*
D16*
X166370000Y-97790000D03*
X166370000Y-95250000D03*
X166370000Y-92710000D03*
D15*
X166370000Y-90170000D03*
D16*
X153670000Y-97790000D03*
X153670000Y-95250000D03*
X153670000Y-92710000D03*
D15*
X153670000Y-90170000D03*
D16*
X140970000Y-97790000D03*
X140970000Y-95250000D03*
X140970000Y-92710000D03*
D15*
X140970000Y-90170000D03*
D16*
X128270000Y-97790000D03*
X128270000Y-95250000D03*
X128270000Y-92710000D03*
D15*
X128270000Y-90170000D03*
D17*
X186150000Y-111950000D03*
X184150000Y-111950000D03*
X186150000Y-109950000D03*
X184150000Y-109950000D03*
X186150000Y-107950000D03*
D18*
X184150000Y-107950000D03*
D17*
X173450000Y-111950000D03*
X171450000Y-111950000D03*
X173450000Y-109950000D03*
X171450000Y-109950000D03*
X173450000Y-107950000D03*
D18*
X171450000Y-107950000D03*
D17*
X160750000Y-111950000D03*
X158750000Y-111950000D03*
X160750000Y-109950000D03*
X158750000Y-109950000D03*
X160750000Y-107950000D03*
D18*
X158750000Y-107950000D03*
D17*
X148050000Y-111950000D03*
X146050000Y-111950000D03*
X148050000Y-109950000D03*
X146050000Y-109950000D03*
X148050000Y-107950000D03*
D18*
X146050000Y-107950000D03*
D16*
X191770000Y-113030000D03*
X191770000Y-110490000D03*
X191770000Y-107950000D03*
D15*
X191770000Y-105410000D03*
D16*
X179070000Y-113030000D03*
X179070000Y-110490000D03*
X179070000Y-107950000D03*
D15*
X179070000Y-105410000D03*
D16*
X166370000Y-113030000D03*
X166370000Y-110490000D03*
X166370000Y-107950000D03*
D15*
X166370000Y-105410000D03*
D16*
X153670000Y-113030000D03*
X153670000Y-110490000D03*
X153670000Y-107950000D03*
D15*
X153670000Y-105410000D03*
D16*
X140970000Y-113030000D03*
X140970000Y-110490000D03*
X140970000Y-107950000D03*
D15*
X140970000Y-105410000D03*
D14*
X182880000Y-83820000D03*
X182880000Y-78740000D03*
X187960000Y-81280000D03*
X187960000Y-86360000D03*
X170180000Y-83820000D03*
X170180000Y-78740000D03*
X162560000Y-81280000D03*
X162560000Y-86360000D03*
X157480000Y-83820000D03*
X157480000Y-78740000D03*
X149860000Y-81280000D03*
X149860000Y-86360000D03*
X144780000Y-83820000D03*
X144780000Y-78740000D03*
X137160000Y-81280000D03*
X137160000Y-86360000D03*
X132080000Y-83820000D03*
X132080000Y-78740000D03*
D17*
X135350000Y-111760000D03*
X133350000Y-111760000D03*
X135350000Y-109760000D03*
X133350000Y-109760000D03*
X135350000Y-107760000D03*
D18*
X133350000Y-107760000D03*
D16*
X128270000Y-113030000D03*
X128270000Y-110490000D03*
X128270000Y-107950000D03*
D15*
X128270000Y-105410000D03*
D17*
X186150000Y-95440000D03*
X184150000Y-95440000D03*
X186150000Y-93440000D03*
X184150000Y-93440000D03*
X186150000Y-91440000D03*
D18*
X184150000Y-91440000D03*
D17*
X173450000Y-95440000D03*
X171450000Y-95440000D03*
X173450000Y-93440000D03*
X171450000Y-93440000D03*
X173450000Y-91440000D03*
D18*
X171450000Y-91440000D03*
D17*
X160750000Y-95440000D03*
X158750000Y-95440000D03*
X160750000Y-93440000D03*
X158750000Y-93440000D03*
X160750000Y-91440000D03*
D18*
X158750000Y-91440000D03*
D17*
X148050000Y-95440000D03*
X146050000Y-95440000D03*
X148050000Y-93440000D03*
X146050000Y-93440000D03*
X148050000Y-91440000D03*
D18*
X146050000Y-91440000D03*
D17*
X135350000Y-95440000D03*
X133350000Y-95440000D03*
X135350000Y-93440000D03*
X133350000Y-93440000D03*
X135350000Y-91440000D03*
D18*
X133350000Y-91440000D03*
D19*
X115570000Y-106680000D03*
D20*
X115570000Y-99060000D03*
D14*
X123190000Y-81280000D03*
X123190000Y-86360000D03*
D17*
X122650000Y-111950000D03*
X120650000Y-111950000D03*
X122650000Y-109950000D03*
X120650000Y-109950000D03*
X122650000Y-107950000D03*
D18*
X120650000Y-107950000D03*
D17*
X122650000Y-95440000D03*
X120650000Y-95440000D03*
X122650000Y-93440000D03*
X120650000Y-93440000D03*
X122650000Y-91440000D03*
D18*
X120650000Y-91440000D03*
D14*
X118110000Y-83820000D03*
X118110000Y-78740000D03*
D21*
X197358000Y-114046000D03*
D22*
X199898000Y-114046000D03*
X197358000Y-111506000D03*
X199898000Y-111506000D03*
X197358000Y-108966000D03*
X199898000Y-108966000D03*
X197358000Y-106426000D03*
X199898000Y-106426000D03*
X197358000Y-103886000D03*
X199898000Y-103886000D03*
X197358000Y-101346000D03*
X199898000Y-101346000D03*
X197358000Y-98806000D03*
X199898000Y-98806000D03*
X197358000Y-96266000D03*
X199898000Y-96266000D03*
X197358000Y-93726000D03*
X199898000Y-93726000D03*
X197358000Y-91186000D03*
X199898000Y-91186000D03*
X197358000Y-88646000D03*
X199898000Y-88646000D03*
X197358000Y-86106000D03*
X199898000Y-86106000D03*
X197358000Y-83566000D03*
X199898000Y-83566000D03*
X197358000Y-81026000D03*
X199898000Y-81026000D03*
X197358000Y-78486000D03*
X199898000Y-78486000D03*
X197358000Y-75946000D03*
X199898000Y-75946000D03*
X197358000Y-73406000D03*
X199898000Y-73406000D03*
X197358000Y-70866000D03*
X199898000Y-70866000D03*
D23*
X131318000Y-119126000D03*
X133858000Y-119126000D03*
X136398000Y-119126000D03*
X138938000Y-119126000D03*
X141478000Y-119126000D03*
X144018000Y-119126000D03*
X146558000Y-119126000D03*
X149098000Y-119126000D03*
X154178000Y-119126000D03*
X156718000Y-119126000D03*
X159258000Y-119126000D03*
X161798000Y-119126000D03*
X164338000Y-119126000D03*
X166878000Y-119126000D03*
X169418000Y-119126000D03*
X171958000Y-119126000D03*
X177038000Y-119126000D03*
X179578000Y-119126000D03*
X182118000Y-119126000D03*
X184658000Y-119126000D03*
X187198000Y-119126000D03*
X189738000Y-119126000D03*
X192278000Y-119126000D03*
X194818000Y-119126000D03*
X122174000Y-70866000D03*
X124714000Y-70866000D03*
X127254000Y-70866000D03*
X129794000Y-70866000D03*
X132334000Y-70866000D03*
X134874000Y-70866000D03*
X137414000Y-70866000D03*
X139954000Y-70866000D03*
X142494000Y-70866000D03*
X145034000Y-70866000D03*
X149098000Y-70866000D03*
X151638000Y-70866000D03*
X154178000Y-70866000D03*
X156718000Y-70866000D03*
X159258000Y-70866000D03*
X161798000Y-70866000D03*
X164338000Y-70866000D03*
X166878000Y-70866000D03*
X171958000Y-70866000D03*
X174498000Y-70866000D03*
X177038000Y-70866000D03*
X179578000Y-70866000D03*
X182118000Y-70866000D03*
X184658000Y-70866000D03*
X187198000Y-70866000D03*
X189738000Y-70866000D03*
D24*
X117348000Y-119126000D03*
X199898000Y-119126000D03*
X118618000Y-70866000D03*
X193548000Y-70866000D03*
M02*
